# Blender 4.4.1
# www.blender.org
mtllib left arm.mtl
o DPROP_GEN_SentinelArm_03_STAT.001
v -0.563639 0.395491 -1.455094
v -0.646747 0.384306 -1.184587
v -0.528862 -0.236921 -1.379265
v -0.549739 0.448193 -1.282460
v -0.646747 0.384306 -1.184587
v -0.510761 0.458920 -1.431838
v 0.239660 0.472728 -1.324656
v 0.246206 0.385178 -1.435446
v -0.451753 -0.138822 -1.620705
v 0.198413 0.450732 -1.411531
v 0.283942 0.380962 -1.195637
v 0.271499 -0.236465 -1.362730
v 0.283942 0.380962 -1.195637
v 0.242744 -0.202883 -1.589920
v 0.241398 -0.569619 -1.485175
v 0.222005 -0.522196 -1.653451
v 0.197577 -0.856838 -1.709167
v -0.334651 -0.835687 -1.783492
v -0.386108 -0.504769 -1.710686
v 0.209428 -0.971546 -1.500449
v 0.118262 -0.925238 -1.732601
v 0.133350 -1.048088 -1.510131
v -0.252085 -0.906247 -1.787648
v -0.422315 -0.966862 -1.553838
v -0.475588 -0.601894 -1.466551
v -0.340684 -1.038805 -1.560651
v -0.369217 -1.093705 -1.794734
v -0.073217 -3.674218 -1.569404
v 0.131283 -3.695086 -1.580014
v 0.173030 -2.447733 -1.758412
v -0.195970 -2.454803 -1.805413
v 0.214321 -2.116313 -1.893097
v -0.355829 -2.134464 -1.839446
v -0.361313 -1.599213 -1.828523
v 0.197296 -1.565950 -1.867679
v 0.188543 -1.049429 -1.817831
v 0.432838 -4.562049 -1.076286
v 0.548085 -3.400486 -1.394333
v -0.025042 -5.284119 -1.047905
v -0.400650 -5.208348 -0.969485
v -0.385247 -5.410279 -0.952842
v -0.035706 -5.413785 -1.011416
v -0.048998 -5.462216 -0.891912
v 0.273919 -5.468166 -0.881836
v 0.344022 -5.430958 -1.000212
v -0.005655 -4.490066 -1.217007
v -0.537951 -4.352177 -1.040822
v -0.732355 -3.169377 -1.286376
v -0.355725 -5.455828 -0.840721
v 0.806818 -0.043244 -0.990900
v 0.283942 0.380962 -1.195637
v 0.271499 -0.236465 -1.362730
v 0.646275 -0.363599 -1.329239
v 0.241398 -0.569619 -1.485175
v 0.418560 -0.730833 -1.625293
v 0.209428 -0.971546 -1.500449
v 0.188543 -1.049429 -1.817831
v 0.534498 -0.728466 -1.753012
v 0.783758 -0.356953 -1.436191
v 0.943741 -0.055503 -1.108374
v 0.970024 -0.223073 -0.933207
v 1.133402 -0.390914 -0.814654
v 1.095269 -0.240043 -1.033896
v 1.246966 -0.412597 -0.898561
v 1.184471 -0.905847 -1.102996
v 1.396955 -1.214497 -0.769066
v 1.261055 -1.279931 -0.752174
v 1.374348 -1.273668 -0.392946
v 1.214589 -1.340806 -1.159093
v 0.945436 -1.039229 -1.454151
v 0.685489 -1.228554 -1.729458
v 0.278804 -1.047273 -1.961595
v 1.015800 -1.480955 -1.436772
v 1.170889 -1.377225 -1.123129
v 1.345504 -1.466388 -0.766536
v 1.472937 -1.440844 -0.348576
v 1.151890 -1.593006 -1.140898
v 0.932769 -1.514738 -1.353300
v 0.791441 -1.667606 -1.694377
v 0.294192 -1.543577 -2.010831
v 0.197296 -1.565950 -1.867679
v 0.214321 -2.116313 -1.893097
v 0.307429 -2.075927 -2.036058
v 0.555232 -1.870285 -1.878888
v 0.697949 -1.722124 -1.569596
v 0.932194 -1.768605 -1.401663
v 1.227854 -1.682055 -1.169189
v 1.434519 -1.546120 -0.780832
v 1.156417 -2.859040 -1.017521
v 1.299519 -2.766127 -0.713890
v 1.003509 -1.848951 -1.454249
v 0.670847 -1.998831 -1.606340
v 0.461932 -1.917739 -1.745016
v 0.214321 -2.116313 -1.893097
v 0.424851 -2.214977 -1.712786
v 0.737497 -2.070479 -1.683213
v 0.947522 -3.030646 -1.298691
v 0.709530 -3.219437 -1.504331
v 0.488522 -2.277292 -1.800121
v 0.454933 -3.430516 -1.631059
v 0.173030 -2.447733 -1.758412
v 0.233722 -2.500705 -1.856199
v 0.192635 -3.640650 -1.703987
v 0.131283 -3.695086 -1.580014
v 1.184386 -2.839727 -0.713020
v 1.054786 -2.923263 -0.968618
v 0.854422 -3.087521 -1.217762
v 0.614637 -3.278142 -1.394766
v 0.381969 -3.482509 -1.512592
v 0.131283 -3.695086 -1.580014
v 0.548085 -3.400486 -1.394333
v 0.786417 -3.199604 -1.181726
v 0.993981 -3.011635 -0.922304
v 1.131062 -2.932382 -0.682961
v 1.190434 -2.917856 -0.406681
v 1.226135 -2.830545 -0.399521
v 0.432838 -4.562049 -1.076286
v 0.588504 -4.560840 -1.130663
v 0.689839 -3.438564 -1.429778
v 0.919495 -3.260453 -1.211714
v 1.118388 -3.095256 -0.946834
v 1.240756 -3.019430 -0.692367
v 0.870343 -4.472043 -0.676883
v 0.951696 -4.428308 -0.240295
v 0.745600 -5.405336 -0.539582
v 0.790947 -3.607826 0.613890
v 1.029250 -3.384559 0.414440
v 0.912425 -4.448698 0.189593
v 1.200198 -3.198427 0.165356
v 1.292679 -3.074033 -0.111567
v 1.287372 -3.003558 -0.400414
v 1.190974 -2.986459 -0.131707
v 1.091781 -3.113704 0.130793
v 0.925095 -3.303018 0.358441
v 0.691055 -3.529467 0.536453
v 1.184608 -2.897486 -0.058457
v 1.052476 -3.036357 0.178722
v 0.826928 -3.280811 0.441527
v 0.559711 -3.567733 0.600274
v 0.401975 -3.827105 0.672819
v 0.225851 -3.928207 0.691897
v 0.922768 -3.214559 0.571861
v 0.638792 -3.506540 0.732573
v 0.906891 -2.406667 0.927586
v 0.542335 -2.727777 0.997839
v 0.296910 -3.859526 0.822047
v 0.122715 -4.116601 0.766551
v -0.106918 -4.280116 0.735307
v -0.043883 -4.203972 0.863312
v 0.197342 -3.057417 1.012753
v 0.488514 -2.668351 0.905599
v 0.853957 -2.329093 0.849655
v 1.229207 -2.104978 0.760836
v 1.163437 -2.022397 0.699451
v 1.388955 -1.753734 0.430768
v 1.216752 -1.858525 0.663408
v 0.952432 -2.061248 0.812937
v 0.699633 -2.276627 0.940096
v 0.329414 -2.471182 0.991339
v 0.140475 -3.015066 0.903782
v -0.106918 -4.280116 0.735307
v 0.436287 -2.504085 1.141662
v 0.777756 -2.308449 1.072123
v 1.078784 -2.076832 0.959531
v 1.319899 -1.828072 0.747604
v 1.407776 -1.628857 0.421827
v 1.487708 -1.552373 0.443624
v 1.257547 -1.099044 0.742144
v 1.451469 -0.867155 0.440618
v 1.029101 -1.372215 1.097343
v 0.839055 -1.647225 1.171464
v 0.558465 -1.879577 1.255512
v 1.086588 -1.038199 1.042627
v 1.096802 -0.699416 1.001031
v 0.861660 -1.360378 1.012524
v 0.702577 -1.622957 1.055810
v 0.452969 -1.842189 1.109655
v 0.329414 -2.471182 0.991339
v 0.896911 -1.025651 0.963296
v 0.921308 -0.682666 0.943665
v 1.084572 -0.226907 0.938859
v 0.918680 -0.193654 0.890975
v 1.019259 -0.139956 0.654571
v 0.800047 -0.118238 0.790398
v 0.958555 -0.016087 0.647770
v 1.065067 0.121274 0.439436
v 0.797261 0.114737 0.384865
v 0.797416 0.217401 0.057491
v 0.714617 0.030188 0.552155
v 0.593138 -0.042592 0.664544
v 0.645321 0.323304 -0.217244
v 0.869096 0.307750 -0.379932
v 1.065272 0.256717 0.007538
v 1.144759 -0.079626 0.306919
v 1.190004 -0.162367 0.698496
v 1.301236 -0.514240 0.602701
v 1.307152 -0.093432 0.369063
v 1.478945 -0.450628 0.070615
v 1.404112 -0.290564 0.230396
v 1.246445 -0.277487 0.170738
v 1.187272 -0.034043 -0.108877
v 0.945039 0.092279 -0.524909
v 0.652565 0.457107 -0.752941
v 0.706076 0.233264 -0.877960
v 1.267493 -0.498161 -0.628186
v 0.239660 0.472728 -1.324656
v 0.153947 0.770704 -1.124148
v 0.159569 0.698458 -0.748626
v 0.486618 0.414173 -0.450139
v 1.475049 -0.872172 -0.044640
v 1.510214 -0.548561 -0.142746
v 1.492055 -0.875784 -0.394573
v 1.487906 -0.587405 -0.401217
v 1.395209 -0.886852 -0.730108
v 1.387536 -0.528242 -0.673687
v 1.361392 -0.548928 -0.394130
v 1.371965 -0.527801 -0.177924
v 1.325996 -0.438281 0.013438
v 0.480313 -5.356495 -0.466749
v 0.273919 -5.468166 -0.881836
v -0.116381 -5.451355 -0.142690
v -0.048998 -5.462216 -0.891912
v -0.355725 -5.455828 -0.840721
v -0.623105 -5.456533 -0.603211
v -0.763651 -5.430804 -0.287382
v -0.712857 -5.446601 0.090711
v -0.522819 -5.428041 0.423179
v -0.200556 -5.431945 0.626008
v 0.088425 -5.333221 0.682864
v 0.345784 -5.266813 0.501221
v 0.529168 -5.292639 0.169602
v 0.571656 -5.336656 -0.139459
v -0.595212 -5.252797 0.484723
v -0.629359 -4.644728 0.482408
v -0.270936 -4.643898 0.715809
v -0.230968 -5.213820 0.720978
v -0.576407 -5.377710 0.494469
v -0.204968 -5.338032 0.712194
v -0.200556 -5.431945 0.626008
v 0.088425 -5.333221 0.682864
v 0.108156 -5.230879 0.800007
v 0.102641 -4.728455 0.735244
v -0.106918 -4.280116 0.735307
v 0.122715 -4.116601 0.766551
v -0.522819 -5.428041 0.423179
v -0.662228 -4.010705 0.628881
v -0.386208 -4.277187 0.682741
v -0.235178 -4.287842 0.680863
v -0.120089 -3.011515 0.875133
v 0.140475 -3.015066 0.903782
v -0.039336 -2.446250 0.979748
v 0.329414 -2.471182 0.991339
v 0.013353 -1.832758 1.105379
v 0.452969 -1.842189 1.109655
v -0.365356 -2.472280 1.098433
v -0.312504 -1.794834 1.203705
v -0.394214 -3.024116 0.968589
v 0.047701 -1.349594 1.162912
v -0.419917 -1.300708 1.122504
v -0.593524 -1.498576 1.185464
v -0.739478 -1.277904 1.173957
v -0.830712 -0.979477 1.155356
v -0.442011 -0.804274 1.230661
v -0.867716 -0.706618 1.145786
v -0.397047 -0.376653 1.304737
v -0.913447 -0.253352 1.094080
v 0.074987 -0.840977 1.248732
v 0.110427 -0.403922 1.275493
v 0.540157 -0.785940 1.131171
v 0.550681 -0.279232 1.018424
v 0.484178 -1.342571 1.074556
v -0.707332 -0.096537 0.909134
v -0.310284 -0.165199 1.090264
v 0.081098 -0.195366 1.065176
v 0.405647 -0.164005 0.836526
v 0.800047 -0.118238 0.790398
v 0.918680 -0.193654 0.890975
v 0.593138 -0.042592 0.664544
v 0.921308 -0.682666 0.943665
v 0.896911 -1.025651 0.963296
v 0.861660 -1.360378 1.012524
v 0.702577 -1.622957 1.055810
v 0.226418 -4.144018 0.866898
v 0.190466 -4.700694 0.858336
v 0.102641 -4.728455 0.735244
v 0.173879 -5.178403 0.921686
v 0.108156 -5.230879 0.800007
v 0.503772 -3.879992 0.761714
v 0.600941 -4.547121 0.617076
v 0.538042 -5.231796 0.685911
v 0.438352 -5.270028 0.600379
v 0.088425 -5.333221 0.682864
v 0.831665 -5.366985 -0.136758
v 0.705792 -5.411253 -0.137332
v 0.661620 -5.356269 0.212023
v 0.791952 -5.319869 0.253228
v 0.345784 -5.266813 0.501221
v 0.529168 -5.292639 0.169602
v 0.571656 -5.336656 -0.139459
v 0.606685 -5.437680 -0.508156
v 0.500404 -5.400785 -1.044511
v 0.344022 -5.430958 -1.000212
v 0.273919 -5.468166 -0.881836
v 0.480313 -5.356495 -0.466749
v -1.000302 -1.112941 -1.596540
v -0.436181 -1.574702 -1.981662
v -0.464072 -1.089875 -1.964234
v -0.869308 -0.642861 -1.627689
v -0.696222 -1.888731 -1.680253
v -0.355829 -2.134464 -1.839446
v -0.424176 -2.069471 -1.979783
v -0.775950 -1.819699 -1.794765
v -1.059753 -1.573464 -1.551132
v -1.307586 -1.343795 -1.215199
v -1.240554 -0.879689 -1.236969
v -1.139305 -0.265608 -1.245736
v -0.963911 -0.270132 -1.176358
v -0.355829 -2.134464 -1.839446
v -0.361313 -1.599213 -1.828523
v -0.369217 -1.093705 -1.794734
v -0.722213 -0.664361 -1.512856
v -0.709155 -0.288840 -1.278002
v -0.854503 0.216798 -1.028256
v -0.528862 -0.236921 -1.379265
v -0.646747 0.384306 -1.184587
v -0.589738 -0.653645 -1.446103
v -0.475588 -0.601894 -1.466551
v -0.422315 -0.966862 -1.553838
v -1.262963 0.013722 -0.894586
v -1.100503 0.035906 -0.832465
v -0.897673 0.449584 -0.867319
v -0.522548 0.833717 -1.115787
v -0.549739 0.448193 -1.282460
v 0.153947 0.770704 -1.124148
v 0.239660 0.472728 -1.324656
v 0.159569 0.698458 -0.748626
v -0.398631 0.686078 -0.745533
v -0.664164 0.353151 -0.536963
v -1.029506 0.220303 -0.310345
v -0.789419 0.255128 -0.169611
v -1.045387 0.087603 0.145359
v -0.803902 0.149836 0.173281
v -0.905858 0.067393 0.430354
v -1.177822 -0.028840 0.475547
v -0.821286 -0.014901 0.694047
v -1.064708 -0.144006 0.812481
v -0.707332 -0.096537 0.909134
v -0.913447 -0.253352 1.094080
v -1.000804 -0.723935 1.264512
v -0.867716 -0.706618 1.145786
v -0.830712 -0.979477 1.155356
v -1.047031 -0.283151 1.198222
v -1.214166 -0.165224 0.909695
v -1.321390 -0.046180 0.592082
v -1.254946 -0.169430 0.358696
v -1.267363 -0.213004 -0.041042
v -1.401674 -0.189295 0.455082
v -1.437170 -1.316175 0.720890
v -1.297767 -1.527678 0.937278
v -1.213187 -1.560243 0.801153
v -0.959871 -0.988720 1.300508
v -1.367699 -0.731653 0.792944
v -1.472920 -0.318432 0.299231
v -1.321995 -0.291493 0.221983
v -1.542059 -0.421043 -0.382272
v -1.376503 -0.394717 -0.360815
v -1.390291 -0.417121 -0.159452
v -1.370990 -0.377561 0.045252
v -1.527488 -0.407387 0.086579
v -1.543976 -0.703362 0.201720
v -1.554779 -1.118417 0.356522
v -1.575404 -0.695837 -0.094010
v -1.553403 -0.447749 -0.154534
v -1.567376 -0.683082 -0.428924
v -1.579211 -1.041750 -0.454249
v -1.596263 -1.022134 -0.054377
v -1.482306 -1.117253 -0.066747
v -1.477254 -1.131255 -0.431432
v -1.368874 -1.461698 -0.880066
v -1.483505 -1.354329 -0.451387
v -1.604970 -1.425831 -0.486805
v -1.382906 -1.243540 -0.812683
v -1.489536 -1.147088 -0.836345
v -1.445235 -0.671859 -0.881471
v -1.471172 -0.321692 -0.619798
v -1.376185 -0.159991 -0.777381
v -1.303157 -0.299498 -0.566307
v -1.176284 -0.083666 -0.469595
v -1.210950 -0.137883 -0.722396
v -1.260981 -1.385134 -1.136010
v -1.177616 -1.648738 -1.219702
v -1.480895 -1.530619 -0.928483
v -1.272214 -1.715092 -1.280058
v -1.349933 -2.674181 -0.906023
v -1.124288 -2.850224 -1.235706
v -1.212907 -2.767579 -0.862493
v -0.970024 -1.654192 -1.460918
v -0.882302 -1.921343 -1.524077
v -0.959470 -1.985135 -1.596374
v -0.832388 -3.084069 -1.465310
v -1.004403 -2.927098 -1.161689
v -0.729635 -3.144419 -1.360805
v -0.556306 -2.184824 -1.694128
v -0.634941 -2.239085 -1.771431
v -0.504982 -3.338258 -1.615299
v -0.415785 -3.401453 -1.490385
v -0.732355 -3.169377 -1.286376
v -0.073217 -3.674218 -1.569404
v -0.148855 -3.608180 -1.714731
v -0.276070 -2.499538 -1.887719
v -0.195970 -2.454803 -1.805413
v -0.073217 -3.674218 -1.569404
v -0.958395 -3.013084 -1.092473
v -0.870109 -3.216977 -1.339201
v -0.665547 -4.334388 -1.138608
v -0.537951 -4.352177 -1.040822
v -0.525296 -5.133845 -1.074575
v -0.400650 -5.208348 -0.969485
v -1.143916 -2.879559 -0.846270
v -1.079435 -3.078792 -1.137136
v -0.944872 -4.242822 -0.828388
v -0.808309 -5.129361 -0.774670
v -0.685021 -5.191947 -0.696969
v -1.266020 -2.956598 -0.885955
v -1.270809 -2.808736 -0.564050
v -1.336667 -2.696688 -0.556277
v -1.481046 -2.608531 -0.551724
v -1.502360 -1.349130 -0.049439
v -1.633269 -1.423226 -0.071861
v -1.506382 -2.630405 -0.198488
v -1.354663 -2.713320 -0.251114
v -1.296841 -2.825665 -0.286029
v -1.298167 -2.819050 0.009299
v -1.248103 -2.948504 -0.014934
v -1.430317 -2.907515 -0.296806
v -1.392540 -2.885536 -0.587748
v -1.096677 -4.239224 -0.387128
v -1.386443 -3.019012 -0.004341
v -1.103356 -3.197993 0.225725
v -1.174024 -2.997295 0.223520
v -1.435337 -2.763426 0.109766
v -1.590018 -1.520100 0.321858
v -1.452810 -1.734057 0.653973
v -1.296633 -2.968989 0.371836
v -1.350714 -1.644805 0.613938
v -1.473517 -1.438429 0.313051
v -1.439073 -1.199124 0.308933
v -1.348472 -1.374970 0.628535
v -1.139920 -1.928476 0.841582
v -1.231839 -2.017137 0.899451
v -1.113289 -3.232257 0.550048
v -1.005943 -3.261602 0.399103
v -0.978358 -2.350203 1.021782
v -0.914269 -3.526451 0.679186
v -0.822186 -3.556835 0.525612
v -0.892181 -3.593699 0.452091
v -0.714965 -5.233663 0.590490
v -0.767122 -4.633251 0.585235
v -0.629359 -4.644728 0.482408
v -0.662228 -4.010705 0.628881
v -0.796196 -4.011832 0.715991
v -0.604703 -3.916571 0.604192
v -0.691847 -3.869938 0.748467
v -0.712858 -2.726228 1.084594
v -0.481761 -3.083018 1.086096
v -0.469421 -4.213426 0.817751
v -0.386208 -4.277187 0.682741
v -0.394214 -3.024116 0.968589
v -0.386208 -4.277187 0.682741
v -0.739478 -1.277904 1.173957
v -0.593524 -1.498576 1.185464
v -0.670279 -1.531201 1.341392
v -0.357429 -1.847165 1.367117
v -0.779527 -2.143794 1.234098
v -0.402571 -2.477499 1.288799
v -0.722937 -2.152736 1.079051
v -0.365356 -2.472280 1.098433
v -0.628211 -2.652750 0.987987
v -0.312504 -1.794834 1.203705
v -0.365356 -2.472280 1.098433
v -0.896614 -2.262151 0.946086
v -1.025647 -1.820361 0.967557
v -1.102529 -1.792226 1.101123
v -0.847317 -1.291348 1.318363
v 1.467555 -1.841310 0.475616
v 1.165061 -2.965045 0.307086
v 1.305213 -2.820354 0.029310
v 1.584970 -1.609524 0.059111
v 1.354764 -2.747569 -0.352359
v 1.565926 -1.528967 -0.348453
v 1.499173 -1.521678 0.036625
v 1.512858 -1.213598 -0.372537
v 1.443458 -1.416965 0.045401
v 1.552687 -1.348685 0.066504
v -0.798027 -5.202898 0.108919
v -0.794029 -5.398976 0.113755
v -0.852187 -5.380872 -0.319209
v -0.856192 -5.184793 -0.324042
v -0.691244 -5.410361 -0.680875
v -0.385247 -5.410279 -0.952842
v -0.355725 -5.455828 -0.840721
v -0.623105 -5.456533 -0.603211
v -0.763651 -5.430804 -0.287382
v -0.712857 -5.446601 0.090711
v -0.522819 -5.428041 0.423179
v -0.576407 -5.377710 0.494469
v -0.595212 -5.252797 0.484723
v -0.940501 -5.153942 0.145177
v -0.998554 -5.125704 -0.349537
v -1.022287 -4.382241 0.100025
v -1.246548 -3.257184 0.257697
v -1.030761 -3.623833 0.511627
v 0.593138 -0.042592 0.664544
v 0.405647 -0.164005 0.836526
v -0.042183 0.127866 0.227771
v 0.081098 -0.195366 1.065176
v -0.310284 -0.165199 1.090264
v -0.707332 -0.096537 0.909134
v -0.821286 -0.014901 0.694047
v -0.905858 0.067393 0.430354
v -0.803902 0.149836 0.173281
v -0.789419 0.255128 -0.169611
v -0.664164 0.353151 -0.536963
v -0.398631 0.686078 -0.745533
v 0.159569 0.698458 -0.748626
v 0.486618 0.414173 -0.450139
v 0.645321 0.323304 -0.217244
v 0.797416 0.217401 0.057491
v 0.797261 0.114737 0.384865
v 0.714617 0.030188 0.552155
vn -0.6401 0.3540 -0.6818
vn -0.7960 0.2260 -0.5616
vn -0.7869 0.0560 -0.6146
vn -0.5311 0.7106 -0.4615
vn -0.7959 0.2259 -0.5617
vn -0.2750 0.8087 -0.5201
vn 0.5973 0.5759 -0.5582
vn 0.6545 0.3124 -0.6885
vn -0.5537 0.1077 -0.8257
vn 0.2224 0.7270 -0.6496
vn 0.6913 -0.2937 -0.6601
vn 0.7600 0.2172 -0.6125
vn 0.6824 0.1348 -0.7184
vn 0.6519 0.2377 -0.7200
vn 0.6971 0.0798 -0.7125
vn 0.7057 -0.1628 -0.6895
vn -0.4973 -0.1227 -0.8588
vn -0.5313 0.0979 -0.8415
vn -0.0594 0.3290 -0.9424
vn 0.3097 -0.4800 -0.8208
vn -0.1203 0.3780 -0.9179
vn -0.1156 -0.4287 -0.8960
vn -0.0076 0.4660 -0.8848
vn -0.6692 0.0645 -0.7402
vn 0.1130 0.3419 -0.9329
vn 0.5058 0.6240 -0.5956
vn -0.1999 -0.4169 -0.8867
vn 0.1109 -0.4384 -0.8919
vn -0.1921 -0.0532 -0.9799
vn 0.2218 -0.0098 -0.9750
vn 0.1097 -0.3778 -0.9194
vn -0.2242 -0.3352 -0.9151
vn 0.4907 0.0401 -0.8704
vn -0.5043 0.0334 -0.8629
vn -0.5841 0.5983 -0.5485
vn -0.0383 -0.2184 -0.9751
vn 0.4066 -0.1833 -0.8950
vn -0.0618 -0.2029 -0.9772
vn -0.2921 -0.3240 -0.8998
vn -0.3650 -0.5701 -0.7361
vn -0.0726 -0.6510 -0.7556
vn -0.0412 -0.9784 -0.2025
vn 0.0723 -0.9910 -0.1127
vn 0.0385 -0.7254 -0.6872
vn -0.0696 -0.3234 -0.9437
vn 0.1097 -0.1580 -0.9813
vn -0.4795 -0.3716 -0.7950
vn -0.1185 -0.9731 -0.1976
vn 0.5494 0.6830 -0.4813
vn 0.6912 -0.2937 -0.6603
vn 0.7600 0.2172 -0.6126
vn -0.1444 0.6887 -0.7105
vn 0.6521 0.2378 -0.7199
vn -0.5323 0.5915 -0.6057
vn -0.0597 0.3290 -0.9424
vn -0.5842 0.5983 -0.5484
vn 0.0678 0.5616 -0.8246
vn 0.1974 0.6000 -0.7753
vn 0.3817 0.8859 -0.2635
vn 0.6613 0.7165 0.2220
vn 0.6498 0.7580 0.0562
vn 0.8008 0.5804 -0.1477
vn 0.7910 0.5746 -0.2103
vn 0.8189 0.1281 -0.5595
vn 0.8365 -0.4675 -0.2860
vn 0.8970 -0.3885 -0.2109
vn 0.8752 -0.3883 -0.2885
vn 0.8563 -0.3862 -0.3429
vn 0.7252 0.1396 -0.6743
vn 0.6061 0.1035 -0.7887
vn -0.2754 0.3491 -0.8957
vn 0.7874 -0.4834 -0.3825
vn 0.8284 -0.4830 -0.2839
vn 0.7560 0.5391 -0.3713
vn 0.7910 0.6046 -0.0940
vn 0.6737 0.3158 -0.6681
vn 0.7557 -0.5308 -0.3836
vn 0.7722 -0.4385 -0.4598
vn -0.2135 0.0572 -0.9753
vn 0.1097 -0.3779 -0.9193
vn -0.0106 -0.6550 -0.7556
vn 0.7301 -0.4733 -0.4929
vn 0.7512 -0.4821 -0.4509
vn 0.4531 0.3970 -0.7982
vn 0.7285 0.2793 -0.6255
vn 0.8453 0.3430 -0.4097
vn 0.8092 -0.5130 -0.2863
vn 0.8409 -0.5049 -0.1949
vn 0.5383 0.3100 -0.7837
vn 0.2575 0.3706 -0.8924
vn 0.6967 -0.5741 -0.4301
vn 0.1098 -0.3777 -0.9194
vn 0.1335 0.2367 -0.9624
vn 0.3044 0.3154 -0.8988
vn 0.7668 -0.5363 -0.3528
vn 0.6991 -0.5481 -0.4591
vn 0.0727 0.2947 -0.9528
vn 0.6285 -0.5617 -0.5380
vn -0.1922 -0.0532 -0.9799
vn -0.3502 0.1263 -0.9281
vn -0.1103 -0.6814 -0.7235
vn 0.1107 -0.4385 -0.8919
vn 0.6768 -0.7297 -0.0976
vn 0.6508 -0.7554 -0.0768
vn 0.6779 -0.7296 -0.0898
vn 0.7112 -0.6713 -0.2090
vn 0.6581 -0.7166 -0.2311
vn 0.1109 -0.4385 -0.8919
vn 0.4065 -0.1833 -0.8951
vn 0.6457 0.0984 -0.7572
vn 0.8153 0.0225 -0.5787
vn 0.9277 0.0931 -0.3615
vn 0.9817 0.1728 -0.0800
vn 0.7570 -0.6486 -0.0791
vn -0.0387 -0.2184 -0.9751
vn 0.3467 -0.2229 -0.9111
vn 0.2636 0.1015 -0.9593
vn 0.6048 0.2591 -0.7531
vn 0.7420 0.2999 -0.5995
vn 0.8886 0.3112 -0.3370
vn 0.9113 -0.2149 -0.3512
vn 0.9794 -0.1967 -0.0465
vn 0.6983 -0.6779 -0.2299
vn 0.3530 0.2728 0.8949
vn 0.5704 0.2813 0.7717
vn 0.9278 -0.1626 0.3357
vn 0.7816 0.2942 0.5500
vn 0.9173 0.3076 0.2528
vn 0.9428 0.3299 -0.0474
vn 0.8937 0.3503 0.2804
vn 0.6659 0.3992 0.6302
vn 0.4298 0.4135 0.8027
vn 0.1806 0.3725 0.9103
vn 0.8293 -0.5566 0.0493
vn 0.8530 -0.4570 0.2520
vn 0.8006 -0.4738 0.3670
vn 0.7241 -0.4673 0.5073
vn -0.1856 0.4801 0.8573
vn 0.5143 -0.2641 0.8159
vn 0.7641 -0.5669 0.3078
vn 0.7000 -0.5586 0.4449
vn 0.1877 0.1704 0.9673
vn -0.0725 0.2132 0.9743
vn 0.6288 -0.5476 0.5521
vn -0.4989 0.3782 0.7798
vn -0.2588 -0.1034 0.9604
vn -0.1747 -0.6462 0.7429
vn -0.4080 0.1368 0.9027
vn -0.1356 0.2129 0.9676
vn 0.1014 0.2578 0.9608
vn 0.4991 0.1859 0.8464
vn 0.3139 0.3287 0.8908
vn 0.7196 0.3101 0.6213
vn 0.7867 -0.6038 0.1284
vn 0.6751 -0.6669 0.3153
vn 0.5832 -0.7617 0.2824
vn -0.0590 -0.3452 0.9367
vn -0.4183 0.0737 0.9053
vn -0.2586 -0.1035 0.9604
vn -0.1897 -0.8371 0.5132
vn 0.5738 -0.7426 0.3454
vn 0.6910 -0.6517 0.3128
vn 0.8459 -0.4913 0.2075
vn 0.8879 -0.4599 -0.0122
vn 0.9336 -0.3366 0.1225
vn 0.8453 0.0358 0.5332
vn 0.9331 0.0939 0.3470
vn 0.2903 0.1590 0.9436
vn 0.0541 0.2122 0.9757
vn -0.2707 0.1876 0.9442
vn 0.3499 0.0855 0.9329
vn 0.3664 0.1002 0.9251
vn -0.1529 0.2055 0.9666
vn -0.2086 0.3814 0.9006
vn -0.3127 0.1244 0.9417
vn -0.0589 -0.3452 0.9367
vn 0.0374 0.1032 0.9940
vn 0.0294 0.0953 0.9950
vn 0.3434 0.5090 0.7893
vn 0.1038 0.6795 0.7263
vn 0.4034 0.7861 0.4683
vn 0.0814 0.8263 0.5573
vn 0.3405 0.6499 0.6794
vn 0.5517 0.7159 0.4280
vn -0.0773 0.9254 0.3709
vn -0.0418 0.9572 0.2865
vn -0.0570 0.8807 0.4703
vn -0.0710 0.8546 0.5144
vn 0.1016 0.9498 0.2959
vn 0.5730 0.8169 -0.0661
vn 0.5493 0.8333 0.0617
vn 0.7771 0.6289 0.0246
vn 0.5899 0.7040 0.3954
vn 0.8960 0.1345 0.4233
vn 0.6140 0.7878 -0.0490
vn 0.8386 0.5234 -0.1513
vn 0.8232 0.5371 -0.1839
vn 0.7029 0.6216 -0.3457
vn 0.9010 0.4193 -0.1112
vn 0.8036 0.4858 -0.3439
vn 0.6543 0.7428 -0.1420
vn 0.7466 0.4280 -0.5093
vn 0.6002 0.7992 -0.0333
vn 0.5972 0.5759 -0.5583
vn 0.2784 0.8769 -0.3919
vn 0.1899 0.9265 0.3249
vn 0.2161 0.9015 0.3749
vn 0.9987 0.0345 0.0380
vn 0.8411 0.5274 -0.1200
vn 0.9899 0.0065 -0.1415
vn 0.8258 0.5407 -0.1607
vn 0.9131 0.0492 -0.4048
vn 0.7804 0.5961 -0.1886
vn 0.6044 0.7917 -0.0888
vn 0.4962 0.8446 -0.2011
vn 0.6452 0.7007 -0.3045
vn -0.1520 -0.9675 0.2021
vn 0.0723 -0.9910 -0.1124
vn 0.0807 -0.9954 0.0520
vn -0.0412 -0.9784 -0.2024
vn -0.1184 -0.9731 -0.1975
vn -0.2296 -0.9667 -0.1131
vn -0.3105 -0.9502 -0.0255
vn -0.2747 -0.9573 0.0903
vn -0.2215 -0.9518 0.2120
vn -0.0158 -0.9092 0.4161
vn 0.2179 -0.8926 0.3946
vn 0.0713 -0.9972 0.0216
vn -0.1758 -0.9836 0.0413
vn -0.2189 -0.9693 0.1121
vn -0.4988 -0.3485 0.7936
vn 0.0425 -0.0877 0.9952
vn -0.3141 -0.0254 0.9490
vn -0.3787 -0.0592 0.9236
vn -0.6093 -0.4991 0.6161
vn -0.2365 -0.4526 0.8598
vn -0.0158 -0.9091 0.4162
vn 0.2178 -0.8926 0.3947
vn -0.1942 -0.5694 0.7988
vn -0.5048 0.0226 0.8629
vn -0.4989 0.3781 0.7798
vn -0.2217 -0.9517 0.2123
vn 0.1878 0.1704 0.9673
vn -0.2142 -0.2318 0.9489
vn -0.2013 -0.0149 0.9794
vn 0.0952 -0.1926 0.9767
vn -0.4182 0.0737 0.9054
vn 0.1417 -0.2096 0.9675
vn -0.0589 -0.3451 0.9367
vn 0.1274 -0.1704 0.9771
vn -0.3128 0.1245 0.9416
vn 0.1578 -0.4321 0.8879
vn 0.5458 0.1275 0.8282
vn 0.4796 -0.0736 0.8744
vn 0.0583 -0.0879 0.9944
vn 0.0047 0.0011 1.0000
vn 0.4679 0.4255 0.7746
vn 0.5009 0.2946 0.8138
vn 0.3664 0.1003 0.9251
vn -0.1251 -0.1740 0.9768
vn 0.2176 0.0675 0.9737
vn -0.1123 0.3136 0.9429
vn 0.0162 0.6895 0.7241
vn 0.0963 -0.1436 0.9849
vn 0.1954 0.3320 0.9228
vn 0.3430 0.0143 0.9392
vn 0.2492 0.5591 0.7908
vn 0.1770 -0.0505 0.9829
vn -0.1054 0.8823 0.4587
vn -0.0064 0.8369 0.5474
vn 0.1355 0.8379 0.5288
vn 0.0452 0.8911 0.4515
vn 0.0813 0.8263 0.5573
vn 0.1040 0.6794 0.7263
vn -0.0710 0.8546 0.5145
vn 0.0295 0.0953 0.9950
vn -0.1526 0.2055 0.9667
vn -0.2084 0.3814 0.9006
vn -0.1757 0.1971 0.9645
vn -0.2168 0.0401 0.9754
vn -0.5050 0.0226 0.8628
vn -0.2108 -0.3794 0.9009
vn -0.1943 -0.5695 0.7987
vn 0.1253 0.3120 0.9418
vn 0.6792 -0.0760 0.7300
vn 0.5358 -0.5491 0.6414
vn 0.0662 -0.9759 0.2078
vn 0.2179 -0.8926 0.3948
vn 0.7815 -0.6233 0.0276
vn -0.0484 -0.9924 0.1134
vn -0.0791 -0.9893 0.1225
vn 0.7105 -0.6199 0.3329
vn 0.0711 -0.9972 0.0215
vn -0.1760 -0.9835 0.0413
vn -0.2190 -0.9693 0.1121
vn -0.0807 -0.9925 0.0916
vn 0.3349 -0.5736 -0.7476
vn 0.0385 -0.7255 -0.6871
vn 0.0723 -0.9910 -0.1125
vn -0.1520 -0.9675 0.2023
vn -0.6895 0.0663 -0.7213
vn 0.2639 0.0312 -0.9641
vn 0.2401 0.3369 -0.9104
vn -0.1899 0.5659 -0.8023
vn -0.6899 -0.5650 -0.4525
vn -0.2242 -0.3353 -0.9150
vn 0.1048 -0.5907 -0.8001
vn -0.7236 -0.4127 -0.5533
vn -0.7885 -0.4021 -0.4653
vn -0.8758 -0.3627 -0.3184
vn -0.8149 0.1004 -0.5708
vn -0.3967 0.5775 -0.7135
vn -0.0848 0.6414 -0.7625
vn -0.2242 -0.3355 -0.9150
vn 0.4906 0.0401 -0.8705
vn 0.5058 0.6241 -0.5955
vn 0.4131 0.6579 -0.6297
vn -0.3909 0.3483 -0.8520
vn -0.6775 0.2576 -0.6889
vn -0.7868 0.0560 -0.6146
vn -0.7959 0.2260 -0.5617
vn 0.0431 0.3590 -0.9323
vn -0.0077 0.4660 -0.8848
vn -0.5208 0.8413 -0.1449
vn -0.7104 0.6583 -0.2489
vn -0.7582 0.6413 -0.1178
vn -0.3593 0.8692 -0.3397
vn -0.5313 0.7105 -0.4615
vn 0.2782 0.8769 -0.3919
vn 0.1896 0.9266 0.3249
vn -0.2323 0.8577 0.4586
vn -0.2893 0.8551 0.4303
vn -0.6431 0.7556 0.1244
vn -0.1469 0.9588 0.2431
vn -0.5695 0.8104 0.1378
vn -0.1291 0.9530 0.2742
vn -0.1766 0.9415 0.2871
vn -0.4341 0.9007 0.0179
vn -0.1335 0.9202 0.3679
vn -0.0857 0.9233 0.3745
vn -0.1056 0.8824 0.4586
vn 0.0165 0.6897 0.7239
vn -0.1051 0.1118 0.9882
vn 0.2175 0.0675 0.9737
vn -0.1694 0.4726 0.8648
vn -0.5492 0.6729 0.4956
vn -0.5946 0.7942 0.1253
vn -0.6632 0.6786 -0.3157
vn -0.8513 0.5245 -0.0128
vn -0.8416 0.5334 -0.0851
vn -0.9106 -0.3581 0.2061
vn -0.8696 -0.3963 0.2945
vn -0.8662 -0.4614 0.1918
vn -0.0572 0.1197 0.9912
vn -0.8873 0.0752 0.4551
vn -0.8316 0.5532 -0.0486
vn -0.6380 0.7275 -0.2524
vn -0.7811 0.6241 0.0197
vn -0.5400 0.8333 0.1182
vn -0.5458 0.8373 -0.0326
vn -0.5720 0.8025 -0.1699
vn -0.7961 0.6033 -0.0483
vn -0.9787 0.0926 0.1835
vn -0.9342 -0.3506 0.0660
vn -0.9972 0.0679 0.0303
vn -0.7868 0.6172 -0.0028
vn -0.9861 0.0707 -0.1504
vn -0.9291 -0.3605 -0.0823
vn -0.9367 -0.3502 -0.0042
vn -0.9068 -0.4214 -0.0134
vn -0.8999 -0.4330 -0.0513
vn -0.7509 0.4735 -0.4604
vn -0.8433 0.4987 -0.2001
vn -0.8561 0.4717 -0.2112
vn -0.9025 -0.4102 -0.1313
vn -0.9107 -0.3515 -0.2168
vn -0.9066 0.1035 -0.4090
vn -0.8060 0.5899 0.0486
vn -0.8011 0.5921 0.0873
vn -0.6060 0.7495 0.2665
vn -0.8787 0.4759 -0.0374
vn -0.6397 0.6730 0.3713
vn -0.8503 -0.4774 -0.2215
vn -0.5624 0.4031 -0.7220
vn -0.7538 0.4396 -0.4885
vn -0.5929 0.3810 -0.7095
vn -0.8264 -0.4962 -0.2661
vn -0.7687 -0.5298 -0.3583
vn -0.6988 -0.7069 -0.1097
vn -0.7951 -0.4786 -0.3724
vn -0.3520 0.3621 -0.8631
vn -0.3827 0.3297 -0.8630
vn -0.6897 -0.5719 -0.4441
vn -0.6656 -0.7415 -0.0838
vn -0.6454 -0.7601 -0.0760
vn -0.2008 0.2639 -0.9434
vn -0.1926 0.2975 -0.9351
vn -0.6260 -0.5826 -0.5184
vn -0.6264 -0.7778 -0.0509
vn -0.4794 -0.3716 -0.7950
vn -0.1998 -0.4170 -0.8867
vn 0.1155 -0.6713 -0.7321
vn 0.1790 0.1491 -0.9725
vn 0.2219 -0.0097 -0.9750
vn -0.1999 -0.4170 -0.8867
vn -0.7059 0.0926 -0.7022
vn -0.2421 0.1695 -0.9553
vn -0.1159 -0.1636 -0.9797
vn 0.1096 -0.1579 -0.9814
vn -0.0530 -0.4745 -0.8787
vn -0.2922 -0.3241 -0.8998
vn -0.8320 0.1508 -0.5339
vn -0.6178 0.3088 -0.7231
vn -0.8516 -0.2170 -0.4771
vn -0.6824 -0.5871 -0.4356
vn -0.6618 -0.5914 -0.4608
vn -0.7632 0.3453 -0.5462
vn -0.9445 0.1900 -0.2679
vn -0.6911 -0.7145 -0.1093
vn -0.8540 -0.4936 -0.1644
vn -0.8605 0.5008 0.0932
vn -0.8885 0.4549 0.0599
vn -0.8708 -0.4886 -0.0546
vn -0.7066 -0.6990 -0.1101
vn -0.9781 0.1851 0.0949
vn -0.7446 -0.6535 -0.1361
vn -0.8714 0.1858 0.4540
vn -0.9162 0.3880 0.1001
vn -0.8792 0.3923 -0.2704
vn -0.9724 -0.1994 -0.1208
vn -0.8208 0.3292 0.4668
vn -0.6603 0.1830 0.7284
vn -0.8023 -0.5918 -0.0775
vn -0.8535 -0.5210 0.0103
vn -0.8526 0.3721 0.3669
vn -0.6998 0.2628 0.6643
vn -0.8491 -0.5194 0.0959
vn -0.6514 0.3205 0.6878
vn -0.8144 0.4512 0.3648
vn -0.9071 -0.4209 -0.0058
vn -0.8881 -0.4492 0.0979
vn -0.4086 0.2068 0.8890
vn -0.4482 0.1739 0.8769
vn -0.8446 -0.5118 0.1572
vn -0.8626 -0.5057 0.0168
vn -0.1998 0.1033 0.9744
vn -0.8278 -0.4948 0.2644
vn -0.8600 -0.4694 0.2003
vn -0.2731 0.2503 0.9289
vn -0.1639 -0.5874 0.7925
vn -0.2743 -0.1272 0.9532
vn 0.0425 -0.0876 0.9952
vn -0.1681 0.0645 0.9836
vn -0.7814 -0.2595 0.5676
vn -0.8263 -0.4756 0.3016
vn -0.0024 0.0799 0.9968
vn 0.2937 -0.0627 0.9538
vn -0.1276 -0.7683 0.6272
vn -0.2143 -0.2320 0.9488
vn 0.4797 -0.0733 0.8743
vn -0.2139 -0.2319 0.9489
vn 0.5010 0.2946 0.8138
vn 0.4679 0.4257 0.7745
vn 0.1797 0.2710 0.9457
vn 0.5550 0.1191 0.8232
vn -0.6534 -0.5560 0.5137
vn 0.1961 -0.8148 0.5456
vn -0.6993 -0.6007 0.3874
vn 0.1579 -0.4323 0.8878
vn 0.1241 0.0859 0.9885
vn 0.5458 0.1276 0.8282
vn 0.1578 -0.4323 0.8878
vn -0.1450 0.1116 0.9831
vn -0.8091 -0.5239 0.2661
vn -0.7806 -0.4795 0.4010
vn 0.0615 0.1343 0.9890
vn 0.7728 0.2420 0.5867
vn 0.8048 -0.5660 0.1786
vn 0.8392 -0.5402 0.0629
vn 0.9186 0.3123 0.2419
vn 0.8539 -0.5149 -0.0755
vn 0.9353 0.3271 -0.1348
vn 0.7919 0.5622 0.2385
vn 0.8767 -0.4275 -0.2205
vn 0.9517 -0.2776 -0.1313
vn 0.9243 -0.3622 -0.1201
vn -0.7525 -0.6352 0.1737
vn -0.8244 -0.5006 0.2642
vn -0.8705 -0.4754 -0.1273
vn -0.7691 -0.6239 -0.1387
vn -0.6951 -0.5326 -0.4829
vn -0.3652 -0.5700 -0.7360
vn -0.2298 -0.9666 -0.1133
vn -0.3106 -0.9502 -0.0255
vn -0.2750 -0.9572 0.0903
vn -0.2217 -0.9518 0.2122
vn -0.6096 -0.4991 0.6159
vn -0.4988 -0.3488 0.7935
vn -0.7887 -0.5860 0.1857
vn -0.8161 -0.5618 -0.1358
vn -0.9536 -0.1575 0.2567
vn -0.6780 0.2504 0.6911
vn -0.4743 0.2194 0.8526
vn 0.0452 0.8912 0.4514
vn -0.0134 0.9224 0.3859
vn 0.1355 0.8380 0.5286
vn -0.0063 0.8370 0.5472
vn -0.1054 0.8824 0.4585
vn -0.1334 0.9203 0.3679
vn -0.1765 0.9415 0.2871
vn -0.1290 0.9530 0.2742
vn -0.1466 0.9588 0.2432
vn -0.2322 0.8577 0.4588
vn 0.1896 0.9265 0.3250
vn 0.2160 0.9015 0.3751
vn 0.1014 0.9498 0.2960
vn -0.0417 0.9571 0.2866
vn -0.0773 0.9255 0.3709
vt 0.943359 0.982437
vt 0.928711 0.983917
vt 0.935059 0.949921
vt 0.944336 0.992405
vt 0.937988 0.996590
vt 0.946777 0.985039
vt 0.985352 0.989227
vt 0.985352 0.981598
vt 0.948730 0.953522
vt 0.982910 0.984985
vt 0.993652 0.991302
vt 0.996582 0.950653
vt 0.998047 0.984024
vt 0.984863 0.950378
vt 0.992676 0.931458
vt 0.983398 0.934143
vt 0.981445 0.918335
vt 0.955078 0.919006
vt 0.951660 0.934631
vt 0.987305 0.908081
vt 0.977539 0.916199
vt 0.980469 0.904968
vt 0.958984 0.916748
vt 0.947754 0.907654
vt 0.938477 0.929077
vt 0.954590 0.904114
vt 0.952637 0.891785
vt 0.961914 0.751709
vt 0.972168 0.751465
vt 0.975098 0.816406
vt 0.955566 0.817261
vt 0.978027 0.834595
vt 0.948730 0.835449
vt 0.950195 0.864380
vt 0.979492 0.863159
vt 0.982422 0.889771
vt 0.992676 0.701904
vt 0.997070 0.763550
vt 0.972168 0.664307
vt 0.950195 0.666504
vt 0.951660 0.657227
vt 0.971680 0.657959
vt 0.970215 0.651367
vt 0.988281 0.650635
vt 0.991699 0.657227
vt 0.969238 0.705811
vt 0.939453 0.706787
vt 0.919434 0.766113
vt 0.952637 0.650879
vt 0.086975 0.663086
vt 0.066956 0.692871
vt 0.049561 0.663818
vt 0.062988 0.649902
vt 0.037964 0.647461
vt 0.039734 0.634521
vt 0.021408 0.635986
vt 0.021255 0.619629
vt 0.044434 0.626953
vt 0.066406 0.642334
vt 0.085388 0.655029
vt 0.094910 0.652100
vt 0.102539 0.641846
vt 0.091187 0.645264
vt 0.099121 0.635498
vt 0.087219 0.611084
vt 0.105957 0.595215
vt 0.104614 0.588623
vt 0.124084 0.588623
vt 0.083862 0.588867
vt 0.065857 0.606934
vt 0.046082 0.600342
vt 0.026382 0.614014
vt 0.065735 0.584229
vt 0.084534 0.585449
vt 0.104614 0.579346
vt 0.126953 0.580078
vt 0.082764 0.574463
vt 0.067322 0.578613
vt 0.047363 0.577148
vt 0.019379 0.589600
vt 0.010849 0.591797
vt 0.005203 0.563477
vt 0.014320 0.562500
vt 0.030853 0.569580
vt 0.050018 0.569336
vt 0.064819 0.565918
vt 0.083984 0.568359
vt 0.105713 0.574219
vt 0.088013 0.507812
vt 0.105469 0.511719
vt 0.066284 0.560303
vt 0.046722 0.555420
vt 0.033569 0.560791
vt 0.017593 0.552490
vt 0.031891 0.545166
vt 0.048981 0.549561
vt 0.070068 0.499512
vt 0.054382 0.489746
vt 0.035645 0.539551
vt 0.039886 0.479980
vt 0.018295 0.532471
vt 0.023407 0.528564
vt 0.025864 0.470215
vt 0.019241 0.466797
vt 0.104004 0.505371
vt 0.088562 0.501465
vt 0.071838 0.492676
vt 0.057098 0.481445
vt 0.042023 0.472656
vt 0.027863 0.463379
vt 0.054596 0.473633
vt 0.071411 0.485840
vt 0.089233 0.496094
vt 0.104492 0.500000
vt 0.120178 0.500244
vt 0.121033 0.504639
vt 0.065552 0.409668
vt 0.073608 0.412598
vt 0.061554 0.470703
vt 0.076477 0.480957
vt 0.092468 0.489746
vt 0.106018 0.493652
vt 0.100830 0.417969
vt 0.123535 0.419434
vt 0.106384 0.370117
vt 0.172852 0.457031
vt 0.159912 0.471191
vt 0.145386 0.416992
vt 0.146851 0.482422
vt 0.133789 0.489746
vt 0.120300 0.494141
vt 0.135132 0.496094
vt 0.149902 0.488281
vt 0.164062 0.476562
vt 0.177979 0.462891
vt 0.139282 0.500000
vt 0.153442 0.491699
vt 0.170898 0.477051
vt 0.185181 0.459961
vt 0.191772 0.444336
vt 0.199829 0.437988
vt 0.176147 0.484863
vt 0.190186 0.467285
vt 0.197388 0.525635
vt 0.211060 0.505615
vt 0.203857 0.445801
vt 0.203369 0.425781
vt 0.214111 0.417480
vt 0.216919 0.425293
vt 0.222778 0.485352
vt 0.216675 0.509766
vt 0.201050 0.530762
vt 0.183105 0.543945
vt 0.185913 0.549561
vt 0.168457 0.564697
vt 0.183716 0.558350
vt 0.197754 0.544922
vt 0.212036 0.532715
vt 0.228882 0.518311
vt 0.229248 0.487305
vt 0.222900 0.419922
vt 0.233521 0.528809
vt 0.217163 0.539795
vt 0.202881 0.552979
vt 0.186768 0.564453
vt 0.167725 0.571045
vt 0.168335 0.576904
vt 0.185913 0.602051
vt 0.167236 0.611816
vt 0.208008 0.589844
vt 0.217407 0.574707
vt 0.230347 0.561523
vt 0.203125 0.607422
vt 0.199219 0.624756
vt 0.217285 0.592285
vt 0.226196 0.578369
vt 0.238525 0.563965
vt 0.243408 0.529785
vt 0.213257 0.610596
vt 0.207397 0.629395
vt 0.191528 0.648438
vt 0.195068 0.656006
vt 0.180298 0.658936
vt 0.191162 0.666748
vt 0.179077 0.665771
vt 0.165283 0.668945
vt 0.167847 0.681885
vt 0.146973 0.687500
vt 0.180664 0.679688
vt 0.190430 0.680420
vt 0.128540 0.694580
vt 0.121582 0.681885
vt 0.143066 0.674805
vt 0.159790 0.657959
vt 0.179443 0.649902
vt 0.175781 0.630859
vt 0.162598 0.650391
vt 0.148193 0.632324
vt 0.155884 0.640625
vt 0.151367 0.647217
vt 0.137817 0.659424
vt 0.114136 0.669678
vt 0.099243 0.690918
vt 0.092468 0.678711
vt 0.112671 0.635010
vt 0.063049 0.697998
vt 0.072754 0.714844
vt 0.092285 0.718018
vt 0.113770 0.701416
vt 0.143188 0.611328
vt 0.138062 0.627441
vt 0.125854 0.611328
vt 0.125488 0.625488
vt 0.108398 0.611084
vt 0.111450 0.628906
vt 0.124390 0.631836
vt 0.134521 0.633301
vt 0.143677 0.638428
vt 0.381592 0.189453
vt 0.385254 0.165527
vt 0.416992 0.195312
vt 0.402100 0.159668
vt 0.419434 0.156738
vt 0.437012 0.164062
vt 0.448975 0.177246
vt 0.452148 0.196289
vt 0.448242 0.215820
vt 0.434570 0.230957
vt 0.419922 0.238770
vt 0.403564 0.234863
vt 0.389160 0.221191
vt 0.382324 0.207031
vt 0.287109 0.451172
vt 0.289307 0.479492
vt 0.266113 0.479492
vt 0.263916 0.453125
vt 0.285645 0.445312
vt 0.262939 0.447754
vt 0.263916 0.441895
vt 0.247192 0.444336
vt 0.245117 0.451660
vt 0.246582 0.476074
vt 0.258789 0.498047
vt 0.247437 0.507080
vt 0.284424 0.439941
vt 0.288086 0.510498
vt 0.273438 0.497559
vt 0.265625 0.497559
vt 0.260254 0.563232
vt 0.246826 0.563232
vt 0.256104 0.592529
vt 0.237183 0.591309
vt 0.253174 0.624756
vt 0.230591 0.623779
vt 0.273926 0.592529
vt 0.270264 0.627686
vt 0.274902 0.563477
vt 0.250488 0.649658
vt 0.274170 0.653320
vt 0.283691 0.643555
vt 0.290527 0.655273
vt 0.294678 0.670898
vt 0.274170 0.678955
vt 0.295898 0.685059
vt 0.270264 0.700439
vt 0.297363 0.709229
vt 0.247925 0.676025
vt 0.245361 0.697754
vt 0.223755 0.677490
vt 0.219727 0.703857
vt 0.227539 0.648926
vt 0.287842 0.722900
vt 0.265625 0.715332
vt 0.244019 0.712891
vt 0.223511 0.717041
vt 0.203491 0.714111
vt 0.199341 0.706543
vt 0.211182 0.724365
vt 0.201904 0.681641
vt 0.204590 0.664062
vt 0.208130 0.647217
vt 0.217041 0.634033
vt 0.196777 0.423828
vt 0.192871 0.395508
vt 0.200195 0.392578
vt 0.189331 0.372070
vt 0.191162 0.367188
vt 0.185669 0.440430
vt 0.170898 0.408203
vt 0.168701 0.373047
vt 0.168701 0.366699
vt 0.187012 0.359375
vt 0.126099 0.371094
vt 0.125854 0.364746
vt 0.144775 0.365234
vt 0.144531 0.372559
vt 0.168457 0.360352
vt 0.145752 0.357910
vt 0.126343 0.356934
vt 0.105835 0.363281
vt 0.079346 0.369629
vt 0.075989 0.363770
vt 0.080688 0.357910
vt 0.106079 0.355957
vt 0.645508 0.854858
vt 0.682129 0.836426
vt 0.675781 0.860229
vt 0.648438 0.879761
vt 0.662109 0.812378
vt 0.682129 0.800781
vt 0.685547 0.810791
vt 0.664062 0.820679
vt 0.644531 0.830933
vt 0.622559 0.840454
vt 0.623535 0.864502
vt 0.624023 0.896118
vt 0.629395 0.903503
vt 0.694336 0.809448
vt 0.690918 0.837769
vt 0.682129 0.866821
vt 0.654785 0.886963
vt 0.642090 0.907898
vt 0.619141 0.928894
vt 0.650879 0.914185
vt 0.629395 0.941925
vt 0.658691 0.892456
vt 0.662598 0.897705
vt 0.675293 0.882019
vt 0.605957 0.908325
vt 0.605469 0.916016
vt 0.607910 0.938965
vt 0.621094 0.962952
vt 0.636230 0.951080
vt 0.630859 0.993809
vt 0.650391 0.991745
vt 0.610840 0.999299
vt 0.603027 0.969818
vt 0.587891 0.948792
vt 0.577148 0.928833
vt 0.568848 0.940338
vt 0.552246 0.924133
vt 0.548828 0.936707
vt 0.533203 0.928345
vt 0.534668 0.913757
vt 0.515625 0.925293
vt 0.514648 0.910461
vt 0.500977 0.923096
vt 0.496094 0.906006
vt 0.489502 0.877747
vt 0.481689 0.882446
vt 0.475830 0.867554
vt 0.498535 0.898560
vt 0.514160 0.901978
vt 0.530762 0.905945
vt 0.542480 0.906433
vt 0.562012 0.905396
vt 0.537598 0.899231
vt 0.520996 0.843384
vt 0.507812 0.834229
vt 0.513184 0.828125
vt 0.485352 0.864258
vt 0.518555 0.872681
vt 0.544922 0.892578
vt 0.549316 0.899902
vt 0.578613 0.886047
vt 0.577637 0.894043
vt 0.567871 0.893250
vt 0.558105 0.895447
vt 0.555664 0.887695
vt 0.549316 0.872925
vt 0.540527 0.852539
vt 0.563965 0.872925
vt 0.567383 0.885132
vt 0.580566 0.873047
vt 0.581543 0.855347
vt 0.561523 0.856812
vt 0.562012 0.849976
vt 0.581055 0.848999
vt 0.605469 0.832397
vt 0.582520 0.838257
vt 0.582520 0.831299
vt 0.601562 0.842896
vt 0.601074 0.849731
vt 0.603516 0.873413
vt 0.590820 0.891113
vt 0.599609 0.899414
vt 0.587891 0.899109
vt 0.584473 0.911804
vt 0.596680 0.907227
vt 0.619629 0.836304
vt 0.625977 0.823120
vt 0.604492 0.825806
vt 0.624512 0.816772
vt 0.606445 0.767212
vt 0.626953 0.758179
vt 0.606445 0.758545
vt 0.642578 0.823242
vt 0.648926 0.809570
vt 0.645996 0.803711
vt 0.645020 0.746094
vt 0.625977 0.749756
vt 0.643066 0.737061
vt 0.668457 0.796631
vt 0.664551 0.791260
vt 0.663574 0.734131
vt 0.661621 0.725830
vt 0.639160 0.732666
vt 0.680176 0.711914
vt 0.682129 0.720459
vt 0.682617 0.777954
vt 0.687988 0.781738
vt 0.689941 0.716309
vt 0.624023 0.743652
vt 0.632324 0.729004
vt 0.622559 0.670898
vt 0.629395 0.667236
vt 0.616211 0.631592
vt 0.617676 0.625000
vt 0.607422 0.751953
vt 0.619141 0.737793
vt 0.602051 0.678223
vt 0.596191 0.637207
vt 0.595215 0.629883
vt 0.604492 0.745361
vt 0.590332 0.756592
vt 0.588867 0.762695
vt 0.587402 0.770996
vt 0.561523 0.838745
vt 0.562988 0.831909
vt 0.569336 0.770264
vt 0.572754 0.762085
vt 0.574219 0.756226
vt 0.558105 0.756592
vt 0.558594 0.750000
vt 0.576172 0.749268
vt 0.589355 0.750000
vt 0.577637 0.679688
vt 0.562500 0.743652
vt 0.542969 0.736572
vt 0.544922 0.747070
vt 0.553223 0.763916
vt 0.544434 0.827881
vt 0.527832 0.817749
vt 0.537598 0.753662
vt 0.525391 0.824097
vt 0.542480 0.834229
vt 0.542480 0.845825
vt 0.524902 0.837524
vt 0.508789 0.809448
vt 0.512695 0.803589
vt 0.525391 0.739746
vt 0.532227 0.733398
vt 0.500977 0.786011
vt 0.513672 0.724365
vt 0.520996 0.718018
vt 0.525879 0.716309
vt 0.526855 0.634521
vt 0.524414 0.661133
vt 0.516113 0.659180
vt 0.512207 0.693115
vt 0.519531 0.691895
vt 0.509277 0.698975
vt 0.503418 0.706055
vt 0.490234 0.765747
vt 0.482178 0.746582
vt 0.492676 0.688232
vt 0.496826 0.680908
vt 0.474609 0.748779
vt 0.486084 0.682617
vt 0.470215 0.851562
vt 0.462402 0.839844
vt 0.470459 0.835205
vt 0.456543 0.818115
vt 0.478027 0.803589
vt 0.459473 0.786011
vt 0.483643 0.796753
vt 0.467529 0.777832
vt 0.483887 0.770020
vt 0.449219 0.821533
vt 0.449463 0.785034
vt 0.495850 0.791504
vt 0.499756 0.815063
vt 0.494873 0.821655
vt 0.479004 0.848389
vt 0.167114 0.558594
vt 0.159302 0.499023
vt 0.143799 0.507324
vt 0.146851 0.570557
vt 0.124268 0.511963
vt 0.127563 0.574463
vt 0.146851 0.576172
vt 0.126953 0.594727
vt 0.147339 0.581543
vt 0.149170 0.587158
vt 0.549805 0.630859
vt 0.549805 0.622314
vt 0.572266 0.622559
vt 0.573242 0.631348
vt 0.592773 0.619873
vt 0.614258 0.615479
vt 0.609863 0.610352
vt 0.590820 0.614746
vt 0.571289 0.617188
vt 0.549805 0.617432
vt 0.529297 0.617920
vt 0.527344 0.623047
vt 0.525879 0.629639
vt 0.549805 0.637939
vt 0.573730 0.638672
vt 0.552246 0.673584
vt 0.548340 0.731689
vt 0.532715 0.712646
vt 0.792969 0.680908
vt 0.785645 0.692871
vt 0.756836 0.662842
vt 0.770996 0.707031
vt 0.751953 0.711182
vt 0.729980 0.705322
vt 0.722656 0.695068
vt 0.715820 0.682129
vt 0.718262 0.667725
vt 0.714844 0.649902
vt 0.717285 0.629639
vt 0.729980 0.609131
vt 0.757324 0.604004
vt 0.777832 0.621582
vt 0.787598 0.632812
vt 0.797852 0.646240
vt 0.800781 0.663330
vt 0.797852 0.673340
s 1
usemtl DPROP_GEN_Sentinel_Arm_MATINST.002
f 1/1/1 3/3/3 2/2/2
f 4/4/4 1/1/1 5/5/5
f 1/1/1 4/4/4 6/6/6
f 7/7/7 6/6/6 4/4/4
f 6/6/6 8/8/8 1/1/1
f 8/8/8 9/9/9 1/1/1
f 3/3/3 1/1/1 9/9/9
f 7/7/7 8/8/8 10/10/10
f 8/8/8 6/6/6 10/10/10
f 6/6/6 7/7/7 10/10/10
f 8/8/8 7/7/7 11/11/11
f 12/12/12 8/8/8 13/13/11
f 8/8/8 12/12/12 14/14/13
f 9/9/9 8/8/8 14/14/13
f 15/15/14 14/14/13 12/12/12
f 14/14/13 15/15/14 16/16/15
f 15/15/14 17/17/16 16/16/15
f 18/18/17 16/16/15 17/17/16
f 19/19/18 14/14/13 16/16/15
f 14/14/13 19/19/18 9/9/9
f 16/16/15 18/18/17 19/19/18
f 19/19/18 3/3/3 9/9/9
f 17/17/16 15/15/14 20/20/19
f 20/20/19 21/21/20 17/17/16
f 21/21/20 20/20/19 22/22/21
f 22/22/21 23/23/22 21/21/20
f 23/23/22 17/17/16 21/21/20
f 17/17/16 23/23/22 18/18/17
f 23/23/22 24/24/23 18/18/17
f 25/25/24 18/18/17 24/24/23
f 18/18/17 25/25/24 19/19/18
f 3/3/3 19/19/18 25/25/24
f 24/24/23 23/23/22 26/26/25
f 23/23/22 22/22/21 26/26/25
f 24/24/23 26/26/25 27/27/26
f 22/22/21 27/27/26 26/26/25
f 28/28/27 30/30/29 29/29/28
f 30/30/29 28/28/27 31/31/30
f 31/31/30 32/32/31 30/30/29
f 32/32/31 31/31/30 33/33/32
f 34/34/33 32/32/31 33/33/32
f 32/32/31 34/34/33 35/35/34
f 27/27/26 35/35/34 34/34/33
f 27/27/26 22/22/21 36/36/35
f 22/22/21 20/20/19 36/36/35
f 35/35/34 27/27/26 36/36/35
f 37/37/36 29/29/28 38/38/37
f 39/39/38 41/41/40 40/40/39
f 41/41/40 39/39/38 42/42/41
f 43/43/42 41/41/40 42/42/41
f 42/42/41 44/44/43 43/43/42
f 39/39/38 45/45/44 42/42/41
f 39/39/38 37/37/36 45/45/44
f 44/44/43 42/42/41 45/45/44
f 37/37/36 39/39/38 46/46/45
f 29/29/28 37/37/36 46/46/45
f 46/46/45 28/28/27 29/29/28
f 40/40/39 46/46/45 39/39/38
f 46/46/45 40/40/39 47/47/46
f 47/47/46 28/28/27 46/46/45
f 28/28/27 47/47/46 48/48/47
f 41/41/40 43/43/42 49/49/48
f 50/50/49 52/52/51 51/51/50
f 52/52/51 50/50/49 53/53/52
f 53/53/52 54/54/53 52/52/51
f 54/54/53 53/53/52 55/55/54
f 55/55/54 56/56/55 54/54/53
f 56/56/55 55/55/54 57/57/56
f 58/58/57 57/57/56 55/55/54
f 59/59/58 55/55/54 53/53/52
f 55/55/54 59/59/58 58/58/57
f 53/53/52 60/60/59 59/59/58
f 60/60/59 53/53/52 50/50/49
f 61/61/60 60/60/59 50/50/49
f 50/50/49 62/62/61 61/61/60
f 59/59/58 60/60/59 63/63/62
f 60/60/59 61/61/60 63/63/62
f 62/62/61 63/63/62 61/61/60
f 63/63/62 62/62/61 64/64/63
f 65/65/64 59/59/58 63/63/62
f 65/65/64 63/63/62 64/64/63
f 66/66/65 68/68/67 67/67/66
f 65/65/64 66/66/65 69/69/68
f 67/67/66 69/69/68 66/66/65
f 69/69/68 70/70/69 65/65/64
f 59/59/58 65/65/64 70/70/69
f 70/70/69 58/58/57 59/59/58
f 58/58/57 70/70/69 71/71/70
f 57/57/56 58/58/57 72/72/71
f 71/71/70 72/72/71 58/58/57
f 70/70/69 69/69/68 73/73/72
f 73/73/72 71/71/70 70/70/69
f 69/69/68 67/67/66 74/74/73
f 74/74/73 73/73/72 69/69/68
f 68/68/67 75/75/74 67/67/66
f 75/75/74 74/74/73 67/67/66
f 75/75/74 68/68/67 76/76/75
f 74/74/73 75/75/74 77/77/76
f 73/73/72 74/74/73 78/78/77
f 77/77/76 78/78/77 74/74/73
f 78/78/77 79/79/78 73/73/72
f 71/71/70 73/73/72 79/79/78
f 79/79/78 80/80/79 71/71/70
f 72/72/71 71/71/70 80/80/79
f 72/72/71 81/81/34 57/57/56
f 81/81/34 72/72/71 80/80/79
f 81/81/34 83/83/81 82/82/80
f 83/83/81 81/81/34 80/80/79
f 80/80/79 79/79/78 84/84/82
f 80/80/79 84/84/82 83/83/81
f 79/79/78 78/78/77 85/85/83
f 85/85/83 84/84/82 79/79/78
f 86/86/84 85/85/83 78/78/77
f 78/78/77 77/77/76 86/86/84
f 87/87/85 86/86/84 77/77/76
f 88/88/86 77/77/76 75/75/74
f 76/76/75 88/88/86 75/75/74
f 77/77/76 88/88/86 87/87/85
f 87/87/85 90/90/88 89/89/87
f 90/90/88 87/87/85 88/88/86
f 89/89/87 91/91/89 87/87/85
f 86/86/84 87/87/85 91/91/89
f 91/91/89 92/92/90 86/86/84
f 85/85/83 86/86/84 92/92/90
f 92/92/90 93/93/91 85/85/83
f 93/93/91 83/83/81 84/84/82
f 84/84/82 85/85/83 93/93/91
f 83/83/81 93/93/91 94/94/92
f 95/95/93 94/94/92 93/93/91
f 93/93/91 92/92/90 95/95/93
f 96/96/94 95/95/93 92/92/90
f 92/92/90 91/91/89 96/96/94
f 91/91/89 89/89/87 97/97/95
f 97/97/95 96/96/94 91/91/89
f 96/96/94 97/97/95 98/98/96
f 98/98/96 99/99/97 96/96/94
f 95/95/93 96/96/94 99/99/97
f 99/99/97 98/98/96 100/100/98
f 94/94/92 95/95/93 101/101/99
f 99/99/97 101/101/99 95/95/93
f 101/101/99 99/99/97 102/102/100
f 100/100/98 102/102/100 99/99/97
f 103/103/101 101/101/99 102/102/100
f 102/102/100 100/100/98 103/103/101
f 101/101/99 103/103/101 104/104/102
f 105/105/103 89/89/87 90/90/88
f 106/106/104 97/97/95 89/89/87
f 89/89/87 105/105/103 106/106/104
f 97/97/95 106/106/104 107/107/105
f 107/107/105 98/98/96 97/97/95
f 108/108/106 100/100/98 98/98/96
f 98/98/96 107/107/105 108/108/106
f 100/100/98 108/108/106 109/109/107
f 109/109/107 103/103/101 100/100/98
f 103/103/101 109/109/107 110/110/108
f 111/111/109 109/109/107 108/108/106
f 109/109/107 111/111/109 110/110/108
f 112/112/110 108/108/106 107/107/105
f 108/108/106 112/112/110 111/111/109
f 107/107/105 113/113/111 112/112/110
f 113/113/111 107/107/105 106/106/104
f 106/106/104 114/114/112 113/113/111
f 114/114/112 106/106/104 105/105/103
f 105/105/103 115/115/113 114/114/112
f 115/115/113 105/105/103 116/116/114
f 90/90/88 116/116/114 105/105/103
f 111/111/109 118/118/116 117/117/115
f 118/118/116 111/111/109 119/119/117
f 112/112/110 119/119/117 111/111/109
f 113/113/111 120/120/118 112/112/110
f 119/119/117 112/112/110 120/120/118
f 120/120/118 113/113/111 121/121/119
f 114/114/112 121/121/119 113/113/111
f 121/121/119 114/114/112 122/122/120
f 115/115/113 122/122/120 114/114/112
f 121/121/119 123/123/121 120/120/118
f 123/123/121 119/119/117 120/120/118
f 122/122/120 123/123/121 121/121/119
f 119/119/117 123/123/121 118/118/116
f 123/123/121 122/122/120 124/124/122
f 124/124/122 125/125/123 123/123/121
f 125/125/123 118/118/116 123/123/121
f 126/126/124 128/128/126 127/127/125
f 128/128/126 129/129/127 127/127/125
f 124/124/122 129/129/127 128/128/126
f 129/129/127 124/124/122 130/130/128
f 122/122/120 115/115/113 131/131/129
f 131/131/129 130/130/128 124/124/122
f 124/124/122 122/122/120 131/131/129
f 131/131/129 132/132/130 130/130/128
f 132/132/130 131/131/129 115/115/113
f 116/116/114 132/132/130 115/115/113
f 133/133/131 130/130/128 132/132/130
f 130/130/128 133/133/131 129/129/127
f 134/134/132 129/129/127 133/133/131
f 129/129/127 134/134/132 127/127/125
f 135/135/133 127/127/125 134/134/132
f 127/127/125 135/135/133 126/126/124
f 132/132/130 116/116/114 136/136/134
f 136/136/134 133/133/131 132/132/130
f 137/137/135 134/134/132 133/133/131
f 133/133/131 136/136/134 137/137/135
f 138/138/136 135/135/133 134/134/132
f 134/134/132 137/137/135 138/138/136
f 135/135/133 138/138/136 139/139/137
f 140/140/138 126/126/124 135/135/133
f 139/139/137 140/140/138 135/135/133
f 140/140/138 139/139/137 141/141/139
f 137/137/135 142/142/140 138/138/136
f 138/138/136 143/143/141 139/139/137
f 143/143/141 138/138/136 142/142/140
f 142/142/140 144/144/142 143/143/141
f 145/145/143 143/143/141 144/144/142
f 143/143/141 145/145/143 146/146/144
f 146/146/144 139/139/137 143/143/141
f 139/139/137 146/146/144 141/141/139
f 141/141/139 147/147/145 140/140/138
f 147/147/145 141/141/139 148/148/146
f 149/149/147 141/141/139 146/146/144
f 141/141/139 149/149/147 148/148/146
f 150/150/148 146/146/144 145/145/143
f 146/146/144 150/150/148 149/149/147
f 144/144/142 151/151/149 145/145/143
f 151/151/149 150/150/148 145/145/143
f 151/151/149 144/144/142 152/152/150
f 144/144/142 142/142/140 153/153/151
f 153/153/151 152/152/150 144/144/142
f 152/152/150 153/153/151 154/154/152
f 155/155/153 156/156/154 154/154/152
f 157/157/155 154/154/152 156/156/154
f 154/154/152 157/157/155 152/152/150
f 152/152/150 158/158/156 151/151/149
f 158/158/156 152/152/150 157/157/155
f 159/159/157 151/151/149 158/158/156
f 150/150/148 151/151/149 160/160/158
f 160/160/158 149/149/147 150/150/148
f 151/151/149 159/159/157 160/160/158
f 149/149/147 160/160/158 161/161/159
f 158/158/156 162/162/160 159/159/157
f 162/162/160 158/158/156 163/163/161
f 157/157/155 163/163/161 158/158/156
f 163/163/161 157/157/155 164/164/162
f 156/156/154 164/164/162 157/157/155
f 164/164/162 156/156/154 165/165/163
f 156/156/154 155/155/153 166/166/164
f 166/166/164 165/165/163 156/156/154
f 165/165/163 166/166/164 167/167/165
f 167/167/165 168/168/166 165/165/163
f 168/168/166 167/167/165 169/169/167
f 170/170/168 165/165/163 168/168/166
f 165/165/163 170/170/168 164/164/162
f 164/164/162 171/171/169 163/163/161
f 171/171/169 164/164/162 170/170/168
f 172/172/170 163/163/161 171/171/169
f 163/163/161 172/172/170 162/162/160
f 168/168/166 173/173/171 170/170/168
f 173/173/171 168/168/166 174/174/172
f 175/175/173 171/171/169 170/170/168
f 173/173/171 175/175/173 170/170/168
f 176/176/174 172/172/170 171/171/169
f 171/171/169 175/175/173 176/176/174
f 177/177/175 162/162/160 172/172/170
f 172/172/170 176/176/174 177/177/175
f 162/162/160 177/177/175 178/178/176
f 175/175/173 173/173/171 179/179/177
f 179/179/177 173/173/171 174/174/172
f 179/179/177 174/174/172 180/180/178
f 181/181/179 180/180/178 174/174/172
f 180/180/178 181/181/179 182/182/180
f 181/181/179 183/183/181 182/182/180
f 183/183/181 184/184/182 182/182/180
f 184/184/182 183/183/181 185/185/183
f 183/183/181 186/186/184 185/185/183
f 187/187/185 185/185/183 186/186/184
f 186/186/184 188/188/186 187/187/185
f 189/189/187 184/184/182 185/185/183
f 185/185/183 187/187/185 189/189/187
f 184/184/182 189/189/187 190/190/188
f 188/188/186 192/192/190 191/191/189
f 188/188/186 186/186/184 193/193/191
f 192/192/190 188/188/186 193/193/191
f 194/194/192 193/193/191 186/186/184
f 186/186/184 183/183/181 194/194/192
f 195/195/193 194/194/192 183/183/181
f 183/183/181 181/181/179 195/195/193
f 168/168/166 196/196/194 174/174/172
f 196/196/194 168/168/166 169/169/167
f 181/181/179 196/196/194 195/195/193
f 196/196/194 181/181/179 174/174/172
f 196/196/194 197/197/195 195/195/193
f 194/194/192 195/195/193 197/197/195
f 198/198/196 196/196/194 169/169/167
f 197/197/195 196/196/194 199/199/197
f 196/196/194 198/198/196 199/199/197
f 200/200/198 197/197/195 199/199/197
f 197/197/195 200/200/198 194/194/192
f 201/201/199 192/192/190 193/193/191
f 200/200/198 201/201/199 194/194/192
f 193/193/191 194/194/192 201/201/199
f 62/62/61 50/50/49 202/202/200
f 192/192/190 201/201/199 202/202/200
f 202/202/200 203/203/201 192/192/190
f 51/51/50 204/204/202 50/50/49
f 50/50/49 204/204/202 202/202/200
f 203/203/201 202/202/200 204/204/202
f 205/205/203 64/64/63 62/62/61
f 201/201/199 205/205/203 202/202/200
f 202/202/200 205/205/203 62/62/61
f 206/206/204 203/203/201 204/204/202
f 51/51/50 206/206/204 204/204/202
f 203/203/201 206/206/204 207/207/205
f 208/208/206 203/203/201 207/207/205
f 203/203/201 208/208/206 209/209/207
f 209/209/207 192/192/190 203/203/201
f 192/192/190 209/209/207 191/191/189
f 210/210/208 198/198/196 169/169/167
f 198/198/196 210/210/208 211/211/209
f 212/212/210 211/211/209 210/210/208
f 211/211/209 212/212/210 213/213/211
f 66/66/65 65/65/64 214/214/212
f 64/64/63 214/214/212 65/65/64
f 214/214/212 213/213/211 212/212/210
f 214/214/212 64/64/63 215/215/213
f 213/213/211 214/214/212 215/215/213
f 64/64/63 205/205/203 215/215/213
f 205/205/203 201/201/199 216/216/214
f 215/215/213 216/216/214 213/213/211
f 216/216/214 215/215/213 205/205/203
f 217/217/215 213/213/211 216/216/214
f 213/213/211 217/217/215 211/211/209
f 216/216/214 218/218/216 217/217/215
f 218/218/216 211/211/209 217/217/215
f 211/211/209 218/218/216 198/198/196
f 218/218/216 199/199/197 198/198/196
f 199/199/197 218/218/216 200/200/198
f 218/218/216 216/216/214 201/201/199
f 201/201/199 200/200/198 218/218/216
f 219/219/217 221/221/219 220/220/218
f 220/220/218 221/221/219 222/222/220
f 222/222/220 221/221/219 223/223/221
f 223/223/221 221/221/219 224/224/222
f 224/224/222 221/221/219 225/225/223
f 225/225/223 221/221/219 226/226/224
f 226/226/224 221/221/219 227/227/225
f 227/227/225 221/221/219 228/228/226
f 228/228/226 221/221/219 229/229/227
f 229/229/227 221/221/219 230/230/228
f 230/230/228 221/221/219 231/231/229
f 232/232/230 221/221/219 219/219/217
f 231/231/229 221/221/219 232/232/230
f 233/233/231 235/235/233 234/234/232
f 235/235/233 233/233/231 236/236/234
f 237/237/235 236/236/234 233/233/231
f 236/236/234 237/237/235 238/238/236
f 237/237/235 239/239/237 238/238/236
f 240/240/238 238/238/236 239/239/237
f 238/238/236 241/241/239 236/236/234
f 238/238/236 240/240/238 241/241/239
f 236/236/234 242/242/240 235/235/233
f 242/242/240 236/236/234 241/241/239
f 242/242/240 243/243/146 235/235/233
f 243/243/146 242/242/240 244/244/241
f 239/239/237 237/237/235 245/245/242
f 246/246/243 234/234/232 247/247/244
f 234/234/232 235/235/233 247/247/244
f 247/247/244 235/235/233 248/248/245
f 248/248/245 235/235/233 243/243/146
f 249/249/246 247/247/244 248/248/245
f 243/243/146 249/249/246 248/248/245
f 249/249/246 243/243/146 250/250/247
f 250/250/247 251/251/248 249/249/246
f 251/251/248 250/250/247 252/252/249
f 252/252/249 253/253/250 251/251/248
f 253/253/250 252/252/249 254/254/251
f 253/253/250 255/255/252 251/251/248
f 255/255/252 249/249/246 251/251/248
f 255/255/252 253/253/250 256/256/253
f 247/247/244 249/249/246 257/257/254
f 249/249/246 255/255/252 257/257/254
f 258/258/255 256/256/253 253/253/250
f 254/254/251 258/258/255 253/253/250
f 256/256/253 258/258/255 259/259/256
f 259/259/256 260/260/257 256/256/253
f 260/260/257 259/259/256 261/261/258
f 259/259/256 262/262/259 261/261/258
f 262/262/259 259/259/256 263/263/260
f 263/263/260 264/264/261 262/262/259
f 265/265/262 264/264/261 263/263/260
f 264/264/261 265/265/262 266/266/263
f 259/259/256 267/267/264 263/263/260
f 267/267/264 265/265/262 263/263/260
f 267/267/264 259/259/256 258/258/255
f 265/265/262 267/267/264 268/268/265
f 269/269/266 268/268/265 267/267/264
f 268/268/265 269/269/266 270/270/267
f 271/271/268 267/267/264 258/258/255
f 258/258/255 254/254/251 271/271/268
f 267/267/264 271/271/268 269/269/266
f 265/265/262 272/272/269 266/266/263
f 272/272/269 265/265/262 273/273/270
f 268/268/265 273/273/270 265/265/262
f 270/270/267 274/274/271 268/268/265
f 273/273/270 268/268/265 274/274/271
f 274/274/271 270/270/267 275/275/272
f 276/276/273 275/275/272 270/270/267
f 277/277/274 276/276/273 270/270/267
f 275/275/272 276/276/273 278/278/275
f 270/270/267 279/279/276 277/277/274
f 279/279/276 270/270/267 269/269/266
f 269/269/266 280/280/177 279/279/276
f 280/280/177 269/269/266 281/281/277
f 269/269/266 271/271/268 281/281/277
f 282/282/278 271/271/268 254/254/251
f 271/271/268 282/282/278 281/281/277
f 283/283/279 140/140/138 147/147/145
f 147/147/145 284/284/280 283/283/279
f 284/284/280 147/147/145 285/285/281
f 285/285/281 286/286/282 284/284/280
f 286/286/282 285/285/281 287/287/283
f 126/126/124 140/140/138 288/288/284
f 140/140/138 283/283/279 288/288/284
f 289/289/285 126/126/124 288/288/284
f 283/283/279 289/289/285 288/288/284
f 289/289/285 283/283/279 284/284/280
f 128/128/126 126/126/124 289/289/285
f 284/284/280 290/290/286 289/289/285
f 290/290/286 284/284/280 286/286/282
f 291/291/287 286/286/282 287/287/283
f 286/286/282 291/291/287 290/290/286
f 292/292/288 291/291/287 287/287/283
f 128/128/126 293/293/289 124/124/122
f 125/125/123 124/124/122 293/293/289
f 294/294/290 125/125/123 293/293/289
f 293/293/289 295/295/291 294/294/290
f 295/295/291 293/293/289 296/296/292
f 289/289/285 296/296/292 128/128/126
f 296/296/292 289/289/285 290/290/286
f 291/291/287 296/296/292 290/290/286
f 296/296/292 291/291/287 295/295/291
f 293/293/289 128/128/126 296/296/292
f 297/297/293 295/295/291 291/291/287
f 291/291/287 292/292/288 297/297/293
f 295/295/291 297/297/293 298/298/294
f 299/299/295 295/295/291 298/298/294
f 295/295/291 299/299/295 294/294/290
f 125/125/123 294/294/290 300/300/296
f 299/299/295 300/300/296 294/294/290
f 118/118/116 125/125/123 301/301/297
f 301/301/297 117/117/115 118/118/116
f 300/300/296 301/301/297 125/125/123
f 117/117/115 301/301/297 302/302/298
f 301/301/297 300/300/296 302/302/298
f 300/300/296 303/303/299 302/302/298
f 300/300/296 299/299/295 304/304/300
f 303/303/299 300/300/296 304/304/300
f 305/305/301 307/307/303 306/306/302
f 307/307/303 305/305/301 308/308/304
f 309/309/305 311/311/307 310/310/306
f 312/312/308 306/306/302 311/311/307
f 311/311/307 309/309/305 312/312/308
f 306/306/302 313/313/309 305/305/301
f 313/313/309 306/306/302 312/312/308
f 314/314/310 305/305/301 313/313/309
f 305/305/301 314/314/310 315/315/311
f 315/315/311 308/308/304 305/305/301
f 308/308/304 315/315/311 316/316/312
f 317/317/313 308/308/304 316/316/312
f 311/311/307 319/319/315 318/318/314
f 319/319/315 311/311/307 306/306/302
f 306/306/302 320/320/316 319/319/315
f 320/320/316 306/306/302 307/307/303
f 308/308/304 317/317/313 321/321/317
f 321/321/317 307/307/303 308/308/304
f 307/307/303 321/321/317 320/320/316
f 322/322/318 321/321/317 317/317/313
f 317/317/313 323/323/319 322/322/318
f 323/323/319 324/324/320 322/322/318
f 324/324/320 323/323/319 325/325/321
f 324/324/320 326/326/322 322/322/318
f 321/321/317 322/322/318 326/326/322
f 326/326/322 324/324/320 327/327/24
f 328/328/323 326/326/322 327/327/24
f 328/328/323 321/321/317 326/326/322
f 321/321/317 328/328/323 320/320/316
f 329/329/324 317/317/313 316/316/312
f 317/317/313 329/329/324 330/330/325
f 323/323/319 317/317/313 330/330/325
f 331/331/326 325/325/321 323/323/319
f 331/331/326 323/323/319 330/330/325
f 332/332/327 325/325/321 331/331/326
f 325/325/321 332/332/327 333/333/328
f 334/334/329 333/333/328 332/332/327
f 333/333/328 334/334/329 335/335/7
f 334/334/329 337/337/331 336/336/330
f 337/337/331 334/334/329 332/332/327
f 331/331/326 337/337/331 332/332/327
f 337/337/331 331/331/326 338/338/332
f 339/339/333 338/338/332 331/331/326
f 330/330/325 339/339/333 331/331/326
f 338/338/332 339/339/333 340/340/334
f 341/341/335 340/340/334 339/339/333
f 340/340/334 341/341/335 342/342/336
f 341/341/335 343/343/337 342/342/336
f 343/343/337 341/341/335 344/344/338
f 344/344/338 345/345/339 343/343/337
f 345/345/339 344/344/338 346/346/340
f 346/346/340 347/347/341 345/345/339
f 347/347/341 346/346/340 348/348/342
f 349/349/343 351/351/172 350/350/344
f 352/352/345 350/350/344 348/348/342
f 350/350/344 352/352/345 349/349/343
f 353/353/346 348/348/342 346/346/340
f 348/348/342 353/353/346 352/352/345
f 354/354/347 346/346/340 344/344/338
f 346/346/340 354/354/347 353/353/346
f 341/341/335 355/355/348 344/344/338
f 355/355/348 354/354/347 344/344/338
f 356/356/349 355/355/348 341/341/335
f 339/339/333 356/356/349 341/341/335
f 357/357/350 353/353/346 354/354/347
f 354/354/347 355/355/348 357/357/350
f 358/358/351 360/360/353 359/359/352
f 361/361/354 358/358/351 359/359/352
f 358/358/351 361/361/354 349/349/343
f 351/351/172 349/349/343 361/361/354
f 362/362/355 352/352/345 353/353/346
f 352/352/345 362/362/355 349/349/343
f 358/358/351 349/349/343 362/362/355
f 353/353/346 357/357/350 362/362/355
f 362/362/355 357/357/350 363/363/356
f 364/364/357 357/357/350 355/355/348
f 355/355/348 356/356/349 364/364/357
f 357/357/350 364/364/357 363/363/356
f 365/365/358 367/367/360 366/366/359
f 356/356/349 366/366/359 367/367/360
f 356/356/349 368/368/361 364/364/357
f 368/368/361 356/356/349 367/367/360
f 369/369/362 364/364/357 368/368/361
f 364/364/357 369/369/362 363/363/356
f 363/363/356 370/370/363 362/362/355
f 370/370/363 363/363/356 369/369/362
f 362/362/355 371/371/364 358/358/351
f 371/371/364 362/362/355 370/370/363
f 369/369/362 372/372/365 370/370/363
f 372/372/365 369/369/362 373/373/366
f 368/368/361 373/373/366 369/369/362
f 373/373/366 368/368/361 367/367/360
f 367/367/360 365/365/358 373/373/366
f 373/373/366 374/374/367 372/372/365
f 374/374/367 373/373/366 365/365/358
f 375/375/368 372/372/365 374/374/367
f 372/372/365 375/375/368 376/376/369
f 370/370/363 376/376/369 371/371/364
f 376/376/369 370/370/363 372/372/365
f 375/375/368 377/377/370 376/376/369
f 377/377/370 371/371/364 376/376/369
f 377/377/370 375/375/368 378/378/371
f 379/379/372 381/381/374 380/380/373
f 380/380/373 382/382/375 379/379/372
f 382/382/375 380/380/373 378/378/371
f 383/383/376 315/315/311 314/314/310
f 314/314/310 382/382/375 383/383/376
f 383/383/376 378/378/371 375/375/368
f 378/378/371 383/383/376 382/382/375
f 384/384/377 375/375/368 374/374/367
f 375/375/368 384/384/377 383/383/376
f 315/315/311 383/383/376 384/384/377
f 316/316/312 315/315/311 384/384/377
f 366/366/359 385/385/378 365/365/358
f 385/385/378 374/374/367 365/365/358
f 374/374/367 385/385/378 384/384/377
f 384/384/377 385/385/378 386/386/379
f 316/316/312 386/386/379 329/329/324
f 386/386/379 316/316/312 384/384/377
f 385/385/378 366/366/359 387/387/380
f 387/387/380 386/386/379 385/385/378
f 366/366/359 356/356/349 388/388/381
f 356/356/349 339/339/333 388/388/381
f 339/339/333 330/330/325 388/388/381
f 388/388/381 387/387/380 366/366/359
f 389/389/382 329/329/324 386/386/379
f 386/386/379 387/387/380 389/389/382
f 389/389/382 388/388/381 330/330/325
f 329/329/324 389/389/382 330/330/325
f 388/388/381 389/389/382 387/387/380
f 390/390/383 379/379/372 382/382/375
f 313/313/309 390/390/383 314/314/310
f 382/382/375 314/314/310 390/390/383
f 379/379/372 390/390/383 391/391/384
f 391/391/384 392/392/385 379/379/372
f 381/381/374 379/379/372 392/392/385
f 392/392/385 391/391/384 393/393/386
f 393/393/386 394/394/387 392/392/385
f 394/394/387 393/393/386 395/395/388
f 395/395/388 396/396/389 394/394/387
f 390/390/383 313/313/309 397/397/390
f 397/397/390 391/391/384 390/390/383
f 397/397/390 312/312/308 309/309/305
f 312/312/308 397/397/390 313/313/309
f 309/309/305 398/398/391 397/397/390
f 398/398/391 393/393/386 391/391/384
f 391/391/384 397/397/390 398/398/391
f 399/399/392 395/395/388 393/393/386
f 393/393/386 398/398/391 399/399/392
f 395/395/388 399/399/392 400/400/393
f 396/396/389 395/395/388 401/401/394
f 400/400/393 401/401/394 395/395/388
f 401/401/394 400/400/393 402/402/395
f 310/310/306 403/403/396 309/309/305
f 403/403/396 399/399/392 398/398/391
f 398/398/391 309/309/305 403/403/396
f 399/399/392 403/403/396 404/404/397
f 404/404/397 400/400/393 399/399/392
f 405/405/398 402/402/395 400/400/393
f 400/400/393 404/404/397 405/405/398
f 402/402/395 405/405/398 406/406/399
f 406/406/399 407/407/400 402/402/395
f 407/407/400 406/406/399 408/408/401
f 406/406/399 409/409/402 408/408/401
f 409/409/402 406/406/399 405/405/398
f 405/405/398 410/410/403 409/409/402
f 410/410/403 405/405/398 404/404/397
f 403/403/396 410/410/403 404/404/397
f 410/410/403 403/403/396 411/411/404
f 411/411/404 409/409/402 410/410/403
f 403/403/396 310/310/306 411/411/404
f 409/409/402 411/411/404 412/412/405
f 413/413/406 402/402/395 407/407/400
f 402/402/395 413/413/406 401/401/394
f 414/414/407 413/413/406 407/407/400
f 407/407/400 415/415/408 414/414/407
f 415/415/408 407/407/400 416/416/409
f 416/416/409 417/417/410 415/415/408
f 417/417/410 416/416/409 418/418/411
f 401/401/394 419/419/412 396/396/389
f 419/419/412 401/401/394 413/413/406
f 420/420/413 419/419/412 413/413/406
f 413/413/406 414/414/407 420/420/413
f 421/421/414 414/414/407 415/415/408
f 414/414/407 421/421/414 420/420/413
f 422/422/415 415/415/408 417/417/410
f 415/415/408 422/422/415 421/421/414
f 417/417/410 423/423/416 422/422/415
f 423/423/416 417/417/410 418/418/411
f 424/424/417 420/420/413 421/421/414
f 419/419/412 420/420/413 424/424/417
f 425/425/418 396/396/389 419/419/412
f 424/424/417 425/425/418 419/419/412
f 426/426/419 394/394/387 396/396/389
f 396/396/389 425/425/418 426/426/419
f 392/392/385 427/427/420 381/381/374
f 427/427/420 392/392/385 394/394/387
f 394/394/387 426/426/419 427/427/420
f 428/428/421 378/378/371 380/380/373
f 378/378/371 428/428/421 377/377/370
f 380/380/373 429/429/422 428/428/421
f 429/429/422 380/380/373 381/381/374
f 430/430/423 381/381/374 427/427/420
f 381/381/374 430/430/423 429/429/422
f 427/427/420 431/431/424 430/430/423
f 431/431/424 427/427/420 426/426/419
f 426/426/419 432/432/425 431/431/424
f 432/432/425 426/426/419 425/425/418
f 432/432/425 433/433/426 431/431/424
f 433/433/426 430/430/423 431/431/424
f 433/433/426 432/432/425 434/434/427
f 435/435/428 434/434/427 432/432/425
f 425/425/418 424/424/417 436/436/429
f 436/436/429 432/432/425 425/425/418
f 432/432/425 436/436/429 435/435/428
f 422/422/415 437/437/430 421/421/414
f 435/435/428 436/436/429 437/437/430
f 424/424/417 437/437/430 436/436/429
f 437/437/430 424/424/417 421/421/414
f 434/434/427 435/435/428 438/438/431
f 437/437/430 438/438/431 435/435/428
f 438/438/431 439/439/432 434/434/427
f 440/440/433 434/434/427 439/439/432
f 434/434/427 440/440/433 433/433/426
f 430/430/423 433/433/426 441/441/434
f 440/440/433 441/441/434 433/433/426
f 442/442/435 430/430/423 441/441/434
f 430/430/423 442/442/435 429/429/422
f 442/442/435 428/428/421 429/429/422
f 441/441/434 443/443/436 442/442/435
f 443/443/436 441/441/434 444/444/437
f 441/441/434 440/440/433 444/444/437
f 445/445/438 442/442/435 443/443/436
f 428/428/421 442/442/435 446/446/439
f 442/442/435 445/445/438 446/446/439
f 428/428/421 447/447/440 377/377/370
f 447/447/440 428/428/421 446/446/439
f 371/371/364 377/377/370 447/447/440
f 448/448/441 371/371/364 447/447/440
f 446/446/439 448/448/441 447/447/440
f 448/448/441 446/446/439 445/445/438
f 360/360/353 358/358/351 448/448/441
f 445/445/438 360/360/353 448/448/441
f 371/371/364 448/448/441 358/358/351
f 360/360/353 445/445/438 449/449/442
f 443/443/436 449/449/442 445/445/438
f 444/444/437 450/450/443 443/443/436
f 449/449/442 443/443/436 450/450/443
f 440/440/433 451/451/444 444/444/437
f 450/450/443 444/444/437 451/451/444
f 451/451/444 440/440/433 452/452/445
f 439/439/432 452/452/445 440/440/433
f 451/451/444 453/453/446 450/450/443
f 452/452/445 454/454/447 451/451/444
f 453/453/446 451/451/444 454/454/447
f 454/454/447 452/452/445 455/455/448
f 452/452/445 456/456/449 455/455/448
f 456/456/449 452/452/445 439/439/432
f 457/457/450 459/459/452 458/458/451
f 460/460/142 458/458/451 459/459/452
f 456/456/449 461/461/453 460/460/142
f 458/458/451 460/460/142 461/461/453
f 462/462/454 456/456/449 460/460/142
f 456/456/449 462/462/454 455/455/448
f 455/455/448 463/463/455 454/454/447
f 463/463/455 455/455/448 462/462/454
f 454/454/447 464/464/456 453/453/446
f 464/464/456 454/454/447 463/463/455
f 463/463/455 465/465/457 464/464/456
f 465/465/457 463/463/455 466/466/458
f 462/462/454 466/466/458 463/463/455
f 466/466/458 462/462/454 467/467/459
f 462/462/454 460/460/142 467/467/459
f 468/468/460 464/464/456 465/465/457
f 466/466/458 468/468/460 465/465/457
f 468/468/460 466/466/458 469/469/461
f 470/470/462 472/472/464 471/471/463
f 473/473/465 471/471/463 472/472/464
f 474/474/466 473/473/465 472/472/464
f 473/473/465 474/474/466 475/475/467
f 476/476/468 475/475/467 474/474/466
f 475/475/467 476/476/468 477/477/469
f 478/478/470 477/477/469 476/476/468
f 478/478/470 453/453/446 464/464/456
f 464/464/456 468/468/460 478/478/470
f 477/477/469 478/478/470 468/468/460
f 471/471/463 473/473/465 479/479/471
f 473/473/465 480/480/472 479/479/471
f 480/480/472 473/473/465 475/475/467
f 481/481/473 450/450/443 453/453/446
f 453/453/446 478/478/470 481/481/473
f 476/476/468 481/481/473 478/478/470
f 450/450/443 481/481/473 449/449/442
f 482/482/474 449/449/442 481/481/473
f 449/449/442 482/482/474 360/360/353
f 474/474/466 482/482/474 476/476/468
f 481/481/473 476/476/468 482/482/474
f 472/472/464 483/483/475 474/474/466
f 483/483/475 360/360/353 482/482/474
f 360/360/353 483/483/475 359/359/352
f 482/482/474 474/474/466 483/483/475
f 472/472/464 470/470/462 484/484/476
f 351/351/172 484/484/476 470/470/462
f 484/484/476 359/359/352 483/483/475
f 359/359/352 484/484/476 361/361/354
f 484/484/476 351/351/172 361/361/354
f 483/483/475 472/472/464 484/484/476
f 154/154/152 485/485/477 155/155/153
f 485/485/477 154/154/152 153/153/151
f 142/142/140 137/137/135 486/486/478
f 486/486/478 153/153/151 142/142/140
f 153/153/151 486/486/478 485/485/477
f 487/487/479 137/137/135 136/136/134
f 487/487/479 485/485/477 486/486/478
f 137/137/135 487/487/479 486/486/478
f 485/485/477 487/487/479 488/488/480
f 488/488/480 155/155/153 485/485/477
f 489/489/481 136/136/134 116/116/114
f 116/116/114 90/90/88 489/489/481
f 489/489/481 488/488/480 487/487/479
f 136/136/134 489/489/481 487/487/479
f 88/88/86 489/489/481 90/90/88
f 88/88/86 76/76/75 490/490/482
f 488/488/480 489/489/481 490/490/482
f 489/489/481 88/88/86 490/490/482
f 155/155/153 488/488/480 491/491/483
f 490/490/482 491/491/483 488/488/480
f 491/491/483 166/166/164 155/155/153
f 491/491/483 490/490/482 76/76/75
f 68/68/67 66/66/65 492/492/484
f 214/214/212 492/492/484 66/66/65
f 492/492/484 214/214/212 212/212/210
f 210/210/208 492/492/484 212/212/210
f 166/166/164 491/491/483 493/493/485
f 492/492/484 493/493/485 68/68/67
f 493/493/485 76/76/75 68/68/67
f 493/493/485 167/167/165 166/166/164
f 76/76/75 493/493/485 491/491/483
f 167/167/165 493/493/485 494/494/486
f 494/494/486 169/169/167 167/167/165
f 169/169/167 494/494/486 210/210/208
f 492/492/484 210/210/208 494/494/486
f 493/493/485 492/492/484 494/494/486
f 495/495/487 497/497/489 496/496/488
f 497/497/489 495/495/487 498/498/490
f 498/498/490 422/422/415 423/423/416
f 498/498/490 499/499/491 497/497/489
f 499/499/491 498/498/490 423/423/416
f 418/418/411 499/499/491 423/423/416
f 499/499/491 418/418/411 500/500/492
f 501/501/48 499/499/491 500/500/492
f 499/499/491 501/501/48 502/502/493
f 502/502/493 497/497/489 499/499/491
f 497/497/489 502/502/493 503/503/494
f 503/503/494 496/496/488 497/497/489
f 496/496/488 503/503/494 504/504/495
f 505/505/496 496/496/488 504/504/495
f 496/496/488 505/505/496 506/506/497
f 459/459/452 457/457/450 507/507/498
f 507/507/498 496/496/488 506/506/497
f 496/496/488 507/507/498 495/495/487
f 458/458/451 508/508/499 457/457/450
f 508/508/499 498/498/490 495/495/487
f 508/508/499 507/507/498 457/457/450
f 507/507/498 508/508/499 495/495/487
f 498/498/490 508/508/499 509/509/500
f 422/422/415 498/498/490 509/509/500
f 437/437/430 422/422/415 509/509/500
f 461/461/453 510/510/501 458/458/451
f 509/509/500 510/510/501 437/437/430
f 508/508/499 458/458/451 510/510/501
f 510/510/501 509/509/500 508/508/499
f 439/439/432 438/438/431 511/511/502
f 437/437/430 511/511/502 438/438/431
f 511/511/502 437/437/430 510/510/501
f 512/512/503 439/439/432 511/511/502
f 461/461/453 456/456/449 512/512/503
f 510/510/501 512/512/503 511/511/502
f 510/510/501 461/461/453 512/512/503
f 439/439/432 512/512/503 456/456/449
f 513/513/188 515/515/505 514/514/504
f 514/514/504 515/515/505 516/516/506
f 516/516/506 515/515/505 517/517/507
f 517/517/507 515/515/505 518/518/508
f 518/518/508 515/515/505 519/519/509
f 519/519/509 515/515/505 520/520/510
f 520/520/510 515/515/505 521/521/511
f 521/521/511 515/515/505 522/522/512
f 522/522/512 515/515/505 523/523/332
f 523/523/332 515/515/505 524/524/513
f 524/524/513 515/515/505 525/525/514
f 525/525/514 515/515/505 526/526/515
f 526/526/515 515/515/505 527/527/516
f 527/527/516 515/515/505 528/528/517
f 528/528/517 515/515/505 529/529/518
f 530/530/187 515/515/505 513/513/188
f 529/529/518 515/515/505 530/530/187
