# Blender 4.4.1
# www.blender.org
mtllib right arm.mtl
o DPROP_GEN_SentinelArm_03_STAT.001
v 0.583682 0.395491 -1.455094
v 0.666790 0.384306 -1.184586
v 0.548905 -0.236921 -1.379265
v 0.569782 0.448192 -1.282460
v 0.666790 0.384306 -1.184586
v 0.530804 0.458920 -1.431838
v -0.219617 0.472728 -1.324656
v -0.226163 0.385177 -1.435446
v 0.471796 -0.138822 -1.620705
v -0.178370 0.450731 -1.411531
v -0.263899 0.380962 -1.195637
v -0.251456 -0.236465 -1.362730
v -0.263899 0.380962 -1.195637
v -0.222701 -0.202884 -1.589920
v -0.221355 -0.569619 -1.485175
v -0.201962 -0.522196 -1.653451
v -0.177535 -0.856838 -1.709167
v 0.354693 -0.835687 -1.783491
v 0.406151 -0.504769 -1.710686
v -0.189386 -0.971546 -1.500449
v -0.098219 -0.925238 -1.732600
v -0.113307 -1.048088 -1.510131
v 0.272128 -0.906248 -1.787648
v 0.442358 -0.966863 -1.553837
v 0.495631 -0.601894 -1.466551
v 0.360727 -1.038805 -1.560650
v 0.389259 -1.093705 -1.794734
v 0.093260 -3.674218 -1.569403
v -0.111241 -3.695086 -1.580014
v -0.152987 -2.447734 -1.758411
v 0.216013 -2.454804 -1.805413
v -0.194278 -2.116313 -1.893097
v 0.375872 -2.134464 -1.839445
v 0.381356 -1.599213 -1.828523
v -0.177253 -1.565951 -1.867679
v -0.168500 -1.049429 -1.817831
v -0.412796 -4.562049 -1.076285
v -0.528043 -3.400486 -1.394332
v 0.045084 -5.284119 -1.047904
v 0.420693 -5.208348 -0.969484
v 0.405289 -5.410280 -0.952841
v 0.055748 -5.413785 -1.011415
v 0.069040 -5.462216 -0.891911
v -0.253876 -5.468167 -0.881835
v -0.323980 -5.430958 -1.000211
v 0.025698 -4.490066 -1.217006
v 0.557993 -4.352178 -1.040821
v 0.752398 -3.169378 -1.286376
v 0.375767 -5.455828 -0.840721
v -0.786775 -0.043244 -0.990900
v -0.263899 0.380962 -1.195637
v -0.251456 -0.236465 -1.362730
v -0.626232 -0.363599 -1.329239
v -0.221355 -0.569619 -1.485175
v -0.398517 -0.730834 -1.625292
v -0.189386 -0.971546 -1.500449
v -0.168500 -1.049429 -1.817831
v -0.514455 -0.728466 -1.753012
v -0.763715 -0.356953 -1.436191
v -0.923698 -0.055503 -1.108374
v -0.949982 -0.223073 -0.933207
v -1.113359 -0.390914 -0.814654
v -1.075226 -0.240043 -1.033896
v -1.226924 -0.412597 -0.898561
v -1.164428 -0.905847 -1.102996
v -1.376912 -1.214497 -0.769066
v -1.241012 -1.279931 -0.752174
v -1.354305 -1.273668 -0.392946
v -1.194546 -1.340806 -1.159093
v -0.925394 -1.039229 -1.454151
v -0.665446 -1.228554 -1.729457
v -0.258761 -1.047274 -1.961595
v -0.995757 -1.480955 -1.436772
v -1.150847 -1.377225 -1.123129
v -1.325462 -1.466388 -0.766536
v -1.452895 -1.440844 -0.348576
v -1.131847 -1.593006 -1.140898
v -0.912726 -1.514738 -1.353300
v -0.771398 -1.667606 -1.694376
v -0.274150 -1.543577 -2.010831
v -0.177253 -1.565951 -1.867679
v -0.194278 -2.116313 -1.893097
v -0.287386 -2.075927 -2.036058
v -0.535190 -1.870285 -1.878888
v -0.677906 -1.722124 -1.569596
v -0.912152 -1.768605 -1.401663
v -1.207812 -1.682055 -1.169189
v -1.414476 -1.546120 -0.780832
v -1.136375 -2.859040 -1.017521
v -1.279476 -2.766127 -0.713889
v -0.983466 -1.848951 -1.454249
v -0.650804 -1.998832 -1.606340
v -0.441890 -1.917740 -1.745015
v -0.194278 -2.116313 -1.893097
v -0.404808 -2.214977 -1.712786
v -0.717454 -2.070479 -1.683213
v -0.927480 -3.030647 -1.298690
v -0.689487 -3.219437 -1.504330
v -0.468479 -2.277293 -1.800120
v -0.434890 -3.430516 -1.631058
v -0.152987 -2.447734 -1.758411
v -0.213680 -2.500705 -1.856198
v -0.172592 -3.640650 -1.703986
v -0.111241 -3.695086 -1.580014
v -1.164343 -2.839727 -0.713019
v -1.034743 -2.923264 -0.968617
v -0.834379 -3.087521 -1.217761
v -0.594595 -3.278142 -1.394765
v -0.361927 -3.482509 -1.512591
v -0.111241 -3.695086 -1.580014
v -0.528043 -3.400486 -1.394332
v -0.766374 -3.199604 -1.181725
v -0.973939 -3.011635 -0.922303
v -1.111019 -2.932383 -0.682961
v -1.170391 -2.917857 -0.406681
v -1.206092 -2.830545 -0.399520
v -0.412796 -4.562049 -1.076285
v -0.568462 -4.560840 -1.130663
v -0.669796 -3.438564 -1.429777
v -0.899453 -3.260454 -1.211713
v -1.098345 -3.095257 -0.946833
v -1.220714 -3.019430 -0.692366
v -0.850301 -4.472043 -0.676882
v -0.931653 -4.428308 -0.240294
v -0.725558 -5.405337 -0.539581
v -0.770905 -3.607826 0.613890
v -1.009208 -3.384559 0.414441
v -0.892382 -4.448699 0.189594
v -1.180156 -3.198426 0.165357
v -1.272636 -3.074032 -0.111566
v -1.267330 -3.003558 -0.400413
v -1.170931 -2.986459 -0.131707
v -1.071738 -3.113703 0.130793
v -0.905053 -3.303018 0.358441
v -0.671012 -3.529467 0.536453
v -1.164566 -2.897486 -0.058456
v -1.032433 -3.036357 0.178722
v -0.806886 -3.280811 0.441527
v -0.539668 -3.567732 0.600274
v -0.381933 -3.827104 0.672820
v -0.205809 -3.928207 0.691898
v -0.902726 -3.214559 0.571861
v -0.618750 -3.506540 0.732574
v -0.886849 -2.406667 0.927587
v -0.522293 -2.727777 0.997840
v -0.276868 -3.859526 0.822048
v -0.102673 -4.116601 0.766551
v 0.126960 -4.280116 0.735308
v 0.063925 -4.203972 0.863313
v -0.177299 -3.057416 1.012754
v -0.468471 -2.668351 0.905599
v -0.833915 -2.329093 0.849655
v -1.209165 -2.104978 0.760836
v -1.143394 -2.022397 0.699451
v -1.368913 -1.753734 0.430768
v -1.196709 -1.858524 0.663408
v -0.932389 -2.061248 0.812938
v -0.679591 -2.276627 0.940096
v -0.309371 -2.471182 0.991340
v -0.120433 -3.015066 0.903782
v 0.126960 -4.280116 0.735308
v -0.416244 -2.504085 1.141662
v -0.757714 -2.308449 1.072124
v -1.058742 -2.076832 0.959531
v -1.299857 -1.828071 0.747604
v -1.387733 -1.628857 0.421827
v -1.467665 -1.552373 0.443624
v -1.237504 -1.099044 0.742144
v -1.431426 -0.867155 0.440618
v -1.009058 -1.372214 1.097343
v -0.819012 -1.647225 1.171464
v -0.538422 -1.879576 1.255512
v -1.066545 -1.038199 1.042627
v -1.076759 -0.699416 1.001031
v -0.841617 -1.360377 1.012525
v -0.682535 -1.622957 1.055810
v -0.432926 -1.842189 1.109656
v -0.309371 -2.471182 0.991340
v -0.876869 -1.025651 0.963296
v -0.901266 -0.682666 0.943665
v -1.064529 -0.226907 0.938859
v -0.898637 -0.193654 0.890975
v -0.999217 -0.139956 0.654571
v -0.780004 -0.118238 0.790398
v -0.938512 -0.016087 0.647770
v -1.045024 0.121274 0.439436
v -0.777218 0.114737 0.384864
v -0.777373 0.217401 0.057491
v -0.694574 0.030188 0.552155
v -0.573095 -0.042592 0.664544
v -0.625278 0.323304 -0.217244
v -0.849053 0.307750 -0.379932
v -1.045229 0.256717 0.007538
v -1.124717 -0.079626 0.306919
v -1.169961 -0.162367 0.698496
v -1.281193 -0.514240 0.602701
v -1.287109 -0.093431 0.369063
v -1.458902 -0.450628 0.070615
v -1.384069 -0.290564 0.230396
v -1.226402 -0.277486 0.170738
v -1.167229 -0.034043 -0.108877
v -0.924996 0.092279 -0.524909
v -0.632522 0.457107 -0.752941
v -0.686033 0.233264 -0.877960
v -1.247450 -0.498161 -0.628186
v -0.219617 0.472728 -1.324656
v -0.133904 0.770703 -1.124148
v -0.139526 0.698458 -0.748626
v -0.466575 0.414173 -0.450139
v -1.455006 -0.872172 -0.044639
v -1.490171 -0.548561 -0.142746
v -1.472012 -0.875784 -0.394573
v -1.467863 -0.587405 -0.401217
v -1.375166 -0.886852 -0.730108
v -1.367493 -0.528242 -0.673687
v -1.341349 -0.548929 -0.394130
v -1.351922 -0.527801 -0.177924
v -1.305954 -0.438281 0.013438
v -0.460270 -5.356494 -0.466748
v -0.253876 -5.468167 -0.881835
v 0.136423 -5.451355 -0.142689
v 0.069040 -5.462216 -0.891911
v 0.375767 -5.455828 -0.840721
v 0.643147 -5.456533 -0.603210
v 0.783693 -5.430804 -0.287381
v 0.732900 -5.446601 0.090711
v 0.542861 -5.428041 0.423180
v 0.220598 -5.431946 0.626009
v -0.068382 -5.333221 0.682865
v -0.325741 -5.266813 0.501222
v -0.509126 -5.292639 0.169602
v -0.551613 -5.336656 -0.139458
v 0.615254 -5.252797 0.484724
v 0.649402 -4.644728 0.482408
v 0.290979 -4.643898 0.715810
v 0.251011 -5.213820 0.720978
v 0.596449 -5.377710 0.494470
v 0.225010 -5.338032 0.712194
v 0.220598 -5.431946 0.626009
v -0.068382 -5.333221 0.682865
v -0.088113 -5.230879 0.800007
v -0.082598 -4.728455 0.735245
v 0.126960 -4.280116 0.735308
v -0.102673 -4.116601 0.766551
v 0.542861 -5.428041 0.423180
v 0.682270 -4.010705 0.628882
v 0.406250 -4.277187 0.682742
v 0.255221 -4.287842 0.680864
v 0.140131 -3.011515 0.875134
v -0.120433 -3.015066 0.903782
v 0.059378 -2.446250 0.979749
v -0.309371 -2.471182 0.991340
v 0.006689 -1.832758 1.105379
v -0.432926 -1.842189 1.109656
v 0.385398 -2.472280 1.098433
v 0.332546 -1.794834 1.203706
v 0.414256 -3.024116 0.968590
v -0.027658 -1.349594 1.162912
v 0.439959 -1.300708 1.122504
v 0.613567 -1.498575 1.185464
v 0.759520 -1.277904 1.173957
v 0.850755 -0.979477 1.155356
v 0.462054 -0.804274 1.230661
v 0.887759 -0.706618 1.145786
v 0.417090 -0.376653 1.304737
v 0.933490 -0.253352 1.094080
v -0.054945 -0.840977 1.248732
v -0.090384 -0.403922 1.275493
v -0.520114 -0.785940 1.131171
v -0.530638 -0.279232 1.018424
v -0.464135 -1.342571 1.074556
v 0.727375 -0.096537 0.909134
v 0.330326 -0.165199 1.090264
v -0.061055 -0.195366 1.065176
v -0.385604 -0.164005 0.836526
v -0.780004 -0.118238 0.790398
v -0.898637 -0.193654 0.890975
v -0.573095 -0.042592 0.664544
v -0.901266 -0.682666 0.943665
v -0.876869 -1.025651 0.963296
v -0.841617 -1.360377 1.012525
v -0.682535 -1.622957 1.055810
v -0.206376 -4.144018 0.866899
v -0.170424 -4.700694 0.858337
v -0.082598 -4.728455 0.735245
v -0.153837 -5.178403 0.921686
v -0.088113 -5.230879 0.800007
v -0.483730 -3.879992 0.761714
v -0.580899 -4.547121 0.617076
v -0.518000 -5.231796 0.685912
v -0.418309 -5.270028 0.600380
v -0.068382 -5.333221 0.682865
v -0.811623 -5.366985 -0.136757
v -0.685749 -5.411253 -0.137331
v -0.641578 -5.356269 0.212023
v -0.771910 -5.319869 0.253229
v -0.325741 -5.266813 0.501222
v -0.509126 -5.292639 0.169602
v -0.551613 -5.336656 -0.139458
v -0.586642 -5.437680 -0.508156
v -0.480362 -5.400786 -1.044510
v -0.323980 -5.430958 -1.000211
v -0.253876 -5.468167 -0.881835
v -0.460270 -5.356494 -0.466748
v 1.020345 -1.112941 -1.596539
v 0.456224 -1.574702 -1.981661
v 0.484115 -1.089875 -1.964234
v 0.889350 -0.642862 -1.627688
v 0.716265 -1.888732 -1.680252
v 0.375872 -2.134464 -1.839445
v 0.444219 -2.069472 -1.979782
v 0.795992 -1.819699 -1.794764
v 1.079796 -1.573464 -1.551131
v 1.327629 -1.343795 -1.215198
v 1.260597 -0.879690 -1.236969
v 1.159348 -0.265608 -1.245735
v 0.983954 -0.270133 -1.176358
v 0.375872 -2.134464 -1.839445
v 0.381356 -1.599213 -1.828523
v 0.389259 -1.093705 -1.794734
v 0.742256 -0.664361 -1.512855
v 0.729198 -0.288840 -1.278002
v 0.874546 0.216797 -1.028256
v 0.548905 -0.236921 -1.379265
v 0.666790 0.384306 -1.184586
v 0.609781 -0.653645 -1.446103
v 0.495631 -0.601894 -1.466551
v 0.442358 -0.966863 -1.553837
v 1.283006 0.013721 -0.894586
v 1.120546 0.035906 -0.832464
v 0.917716 0.449583 -0.867319
v 0.542591 0.833716 -1.115787
v 0.569782 0.448192 -1.282460
v -0.133904 0.770703 -1.124148
v -0.219617 0.472728 -1.324656
v -0.139526 0.698458 -0.748626
v 0.418674 0.686078 -0.745533
v 0.684207 0.353150 -0.536963
v 1.049549 0.220303 -0.310345
v 0.809462 0.255128 -0.169611
v 1.065430 0.087603 0.145359
v 0.823945 0.149836 0.173281
v 0.925901 0.067393 0.430354
v 1.197864 -0.028840 0.475547
v 0.841329 -0.014901 0.694048
v 1.084750 -0.144006 0.812481
v 0.727375 -0.096537 0.909134
v 0.933490 -0.253352 1.094080
v 1.020846 -0.723935 1.264512
v 0.887759 -0.706618 1.145786
v 0.850755 -0.979477 1.155356
v 1.067074 -0.283151 1.198222
v 1.234209 -0.165224 0.909695
v 1.341433 -0.046180 0.592082
v 1.274989 -0.169430 0.358696
v 1.287406 -0.213005 -0.041042
v 1.421717 -0.189295 0.455083
v 1.457213 -1.316175 0.720891
v 1.317810 -1.527678 0.937279
v 1.233230 -1.560243 0.801153
v 0.979914 -0.988720 1.300508
v 1.387742 -0.731653 0.792944
v 1.492962 -0.318433 0.299231
v 1.342037 -0.291494 0.221983
v 1.562102 -0.421044 -0.382272
v 1.396546 -0.394718 -0.360815
v 1.410334 -0.417122 -0.159452
v 1.391033 -0.377561 0.045252
v 1.547531 -0.407387 0.086579
v 1.564019 -0.703362 0.201720
v 1.574822 -1.118417 0.356522
v 1.595447 -0.695837 -0.094009
v 1.573445 -0.447749 -0.154534
v 1.587419 -0.683083 -0.428924
v 1.599254 -1.041750 -0.454249
v 1.616306 -1.022134 -0.054377
v 1.502349 -1.117253 -0.066746
v 1.497297 -1.131255 -0.431432
v 1.388916 -1.461698 -0.880066
v 1.503548 -1.354329 -0.451386
v 1.625013 -1.425831 -0.486805
v 1.402949 -1.243540 -0.812683
v 1.509579 -1.147088 -0.836345
v 1.465278 -0.671859 -0.881470
v 1.491215 -0.321692 -0.619798
v 1.396227 -0.159991 -0.777381
v 1.323200 -0.299498 -0.566307
v 1.196327 -0.083666 -0.469595
v 1.230993 -0.137883 -0.722396
v 1.281024 -1.385134 -1.136009
v 1.197659 -1.648739 -1.219702
v 1.500938 -1.530619 -0.928483
v 1.292257 -1.715093 -1.280057
v 1.369976 -2.674181 -0.906023
v 1.144331 -2.850224 -1.235706
v 1.232950 -2.767579 -0.862492
v 0.990067 -1.654193 -1.460918
v 0.902345 -1.921344 -1.524077
v 0.979513 -1.985135 -1.596373
v 0.852430 -3.084069 -1.465309
v 1.024445 -2.927099 -1.161688
v 0.749678 -3.144419 -1.360805
v 0.576349 -2.184824 -1.694127
v 0.654984 -2.239085 -1.771431
v 0.525024 -3.338259 -1.615299
v 0.435827 -3.401453 -1.490384
v 0.752398 -3.169378 -1.286376
v 0.093260 -3.674218 -1.569403
v 0.168897 -3.608181 -1.714730
v 0.296112 -2.499539 -1.887719
v 0.216013 -2.454804 -1.805413
v 0.093260 -3.674218 -1.569403
v 0.978438 -3.013084 -1.092473
v 0.890151 -3.216977 -1.339200
v 0.685589 -4.334389 -1.138607
v 0.557993 -4.352178 -1.040821
v 0.545339 -5.133845 -1.074574
v 0.420693 -5.208348 -0.969484
v 1.163958 -2.879559 -0.846270
v 1.099477 -3.078793 -1.137136
v 0.964915 -4.242822 -0.828387
v 0.828351 -5.129362 -0.774669
v 0.705063 -5.191947 -0.696968
v 1.286062 -2.956598 -0.885954
v 1.290851 -2.808736 -0.564050
v 1.356710 -2.696688 -0.556276
v 1.501088 -2.608532 -0.551723
v 1.522403 -1.349130 -0.049439
v 1.653311 -1.423226 -0.071861
v 1.526425 -2.630405 -0.198488
v 1.374706 -2.713320 -0.251113
v 1.316883 -2.825665 -0.286028
v 1.318209 -2.819050 0.009299
v 1.268145 -2.948504 -0.014934
v 1.450359 -2.907515 -0.296805
v 1.412582 -2.885537 -0.587748
v 1.116720 -4.239224 -0.387127
v 1.406486 -3.019012 -0.004340
v 1.123398 -3.197993 0.225726
v 1.194066 -2.997295 0.223521
v 1.455380 -2.763427 0.109767
v 1.610061 -1.520100 0.321859
v 1.472853 -1.734057 0.653973
v 1.316676 -2.968989 0.371837
v 1.370757 -1.644805 0.613938
v 1.493559 -1.438429 0.313051
v 1.459115 -1.199124 0.308933
v 1.368515 -1.374970 0.628535
v 1.159963 -1.928476 0.841582
v 1.251882 -2.017138 0.899451
v 1.133331 -3.232257 0.550048
v 1.025985 -3.261602 0.399104
v 0.998400 -2.350203 1.021782
v 0.934311 -3.526451 0.679187
v 0.842228 -3.556835 0.525612
v 0.912224 -3.593699 0.452091
v 0.735007 -5.233663 0.590491
v 0.787165 -4.633251 0.585236
v 0.649402 -4.644728 0.482408
v 0.682270 -4.010705 0.628882
v 0.816238 -4.011832 0.715992
v 0.624745 -3.916571 0.604192
v 0.711890 -3.869938 0.748468
v 0.732900 -2.726227 1.084595
v 0.501803 -3.083018 1.086096
v 0.489463 -4.213426 0.817752
v 0.406250 -4.277187 0.682742
v 0.414256 -3.024116 0.968590
v 0.406250 -4.277187 0.682742
v 0.759520 -1.277904 1.173957
v 0.613567 -1.498575 1.185464
v 0.690322 -1.531201 1.341392
v 0.377471 -1.847165 1.367118
v 0.799569 -2.143794 1.234099
v 0.422613 -2.477499 1.288799
v 0.742980 -2.152736 1.079051
v 0.385398 -2.472280 1.098433
v 0.648254 -2.652750 0.987987
v 0.332546 -1.794834 1.203706
v 0.385398 -2.472280 1.098433
v 0.916657 -2.262151 0.946087
v 1.045690 -1.820361 0.967557
v 1.122572 -1.792226 1.101123
v 0.867360 -1.291347 1.318363
v -1.447512 -1.841310 0.475617
v -1.145019 -2.965045 0.307087
v -1.285171 -2.820354 0.029310
v -1.564927 -1.609524 0.059111
v -1.334722 -2.747569 -0.352359
v -1.545883 -1.528967 -0.348453
v -1.479131 -1.521678 0.036626
v -1.492815 -1.213598 -0.372537
v -1.423415 -1.416965 0.045402
v -1.532644 -1.348685 0.066504
v 0.818069 -5.202898 0.108920
v 0.814072 -5.398976 0.113756
v 0.872230 -5.380872 -0.319208
v 0.876234 -5.184793 -0.324041
v 0.711287 -5.410361 -0.680874
v 0.405289 -5.410280 -0.952841
v 0.375767 -5.455828 -0.840721
v 0.643147 -5.456533 -0.603210
v 0.783693 -5.430804 -0.287381
v 0.732900 -5.446601 0.090711
v 0.542861 -5.428041 0.423180
v 0.596449 -5.377710 0.494470
v 0.615254 -5.252797 0.484724
v 0.960543 -5.153942 0.145178
v 1.018596 -5.125704 -0.349537
v 1.042330 -4.382241 0.100026
v 1.266590 -3.257184 0.257697
v 1.050803 -3.623833 0.511628
v -0.573095 -0.042592 0.664544
v -0.385604 -0.164005 0.836526
v 0.062226 0.127866 0.227771
v -0.061055 -0.195366 1.065176
v 0.330326 -0.165199 1.090264
v 0.727375 -0.096537 0.909134
v 0.841329 -0.014901 0.694048
v 0.925901 0.067393 0.430354
v 0.823945 0.149836 0.173281
v 0.809462 0.255128 -0.169611
v 0.684207 0.353150 -0.536963
v 0.418674 0.686078 -0.745533
v -0.139526 0.698458 -0.748626
v -0.466575 0.414173 -0.450139
v -0.625278 0.323304 -0.217244
v -0.777373 0.217401 0.057491
v -0.777218 0.114737 0.384864
v -0.694574 0.030188 0.552155
vn 0.6401 0.3540 -0.6818
vn 0.7960 0.2260 -0.5616
vn 0.7869 0.0560 -0.6146
vn 0.5311 0.7106 -0.4615
vn 0.7959 0.2259 -0.5617
vn 0.2750 0.8087 -0.5201
vn -0.5973 0.5759 -0.5582
vn -0.6545 0.3124 -0.6885
vn 0.5537 0.1077 -0.8257
vn -0.2224 0.7270 -0.6496
vn -0.6913 -0.2937 -0.6601
vn -0.7600 0.2172 -0.6125
vn -0.6824 0.1348 -0.7184
vn -0.6519 0.2377 -0.7200
vn -0.6971 0.0798 -0.7125
vn -0.7057 -0.1628 -0.6895
vn 0.4973 -0.1227 -0.8588
vn 0.5313 0.0979 -0.8415
vn 0.0594 0.3290 -0.9424
vn -0.3097 -0.4800 -0.8208
vn 0.1203 0.3780 -0.9179
vn 0.1156 -0.4287 -0.8960
vn 0.0076 0.4660 -0.8848
vn 0.6692 0.0645 -0.7402
vn -0.1130 0.3419 -0.9329
vn -0.5058 0.6240 -0.5956
vn 0.1999 -0.4169 -0.8867
vn -0.1109 -0.4384 -0.8919
vn 0.1921 -0.0532 -0.9799
vn -0.2218 -0.0098 -0.9750
vn -0.1097 -0.3778 -0.9194
vn 0.2242 -0.3352 -0.9151
vn -0.4907 0.0401 -0.8704
vn 0.5043 0.0334 -0.8629
vn 0.5841 0.5983 -0.5485
vn 0.0383 -0.2184 -0.9751
vn -0.4066 -0.1833 -0.8950
vn 0.0618 -0.2029 -0.9772
vn 0.2921 -0.3240 -0.8998
vn 0.3650 -0.5701 -0.7361
vn 0.0726 -0.6510 -0.7556
vn 0.0412 -0.9784 -0.2025
vn -0.0723 -0.9910 -0.1127
vn -0.0385 -0.7254 -0.6872
vn 0.0696 -0.3234 -0.9437
vn -0.1097 -0.1580 -0.9813
vn 0.4795 -0.3716 -0.7950
vn 0.1185 -0.9731 -0.1976
vn -0.5494 0.6830 -0.4813
vn -0.6912 -0.2937 -0.6603
vn -0.7600 0.2172 -0.6126
vn 0.1444 0.6887 -0.7105
vn -0.6521 0.2378 -0.7199
vn 0.5323 0.5915 -0.6057
vn 0.0597 0.3290 -0.9424
vn 0.5842 0.5983 -0.5484
vn -0.0678 0.5616 -0.8246
vn -0.1974 0.6000 -0.7753
vn -0.3817 0.8859 -0.2635
vn -0.6613 0.7165 0.2220
vn -0.6498 0.7580 0.0562
vn -0.8008 0.5804 -0.1477
vn -0.7910 0.5746 -0.2103
vn -0.8189 0.1281 -0.5595
vn -0.8365 -0.4675 -0.2860
vn -0.8970 -0.3885 -0.2109
vn -0.8752 -0.3883 -0.2885
vn -0.8563 -0.3862 -0.3429
vn -0.7252 0.1396 -0.6743
vn -0.6061 0.1035 -0.7887
vn 0.2754 0.3491 -0.8957
vn -0.7874 -0.4834 -0.3825
vn -0.8284 -0.4830 -0.2839
vn -0.7560 0.5391 -0.3713
vn -0.7910 0.6046 -0.0940
vn -0.6737 0.3158 -0.6681
vn -0.7557 -0.5308 -0.3836
vn -0.7722 -0.4385 -0.4598
vn 0.2135 0.0572 -0.9753
vn -0.1097 -0.3779 -0.9193
vn 0.0106 -0.6550 -0.7556
vn -0.7301 -0.4733 -0.4929
vn -0.7512 -0.4821 -0.4509
vn -0.4531 0.3970 -0.7982
vn -0.7285 0.2793 -0.6255
vn -0.8453 0.3430 -0.4097
vn -0.8092 -0.5130 -0.2863
vn -0.8409 -0.5049 -0.1949
vn -0.5383 0.3100 -0.7837
vn -0.2575 0.3706 -0.8924
vn -0.6967 -0.5741 -0.4301
vn -0.1098 -0.3777 -0.9194
vn -0.1335 0.2367 -0.9624
vn -0.3044 0.3154 -0.8988
vn -0.7668 -0.5363 -0.3528
vn -0.6991 -0.5481 -0.4591
vn -0.0727 0.2947 -0.9528
vn -0.6285 -0.5617 -0.5380
vn 0.1922 -0.0532 -0.9799
vn 0.3502 0.1263 -0.9281
vn 0.1103 -0.6814 -0.7235
vn -0.1107 -0.4385 -0.8919
vn -0.6768 -0.7297 -0.0976
vn -0.6508 -0.7554 -0.0768
vn -0.6779 -0.7296 -0.0898
vn -0.7112 -0.6713 -0.2090
vn -0.6581 -0.7166 -0.2311
vn -0.1109 -0.4385 -0.8919
vn -0.4065 -0.1833 -0.8951
vn -0.6457 0.0984 -0.7572
vn -0.8153 0.0225 -0.5787
vn -0.9277 0.0931 -0.3615
vn -0.9817 0.1728 -0.0800
vn -0.7570 -0.6486 -0.0791
vn 0.0387 -0.2184 -0.9751
vn -0.3467 -0.2229 -0.9111
vn -0.2636 0.1015 -0.9593
vn -0.6048 0.2591 -0.7531
vn -0.7420 0.2999 -0.5995
vn -0.8886 0.3112 -0.3370
vn -0.9113 -0.2149 -0.3512
vn -0.9794 -0.1967 -0.0465
vn -0.6983 -0.6779 -0.2299
vn -0.3530 0.2728 0.8949
vn -0.5704 0.2813 0.7717
vn -0.9278 -0.1626 0.3357
vn -0.7816 0.2942 0.5500
vn -0.9173 0.3076 0.2528
vn -0.9428 0.3299 -0.0474
vn -0.8937 0.3503 0.2804
vn -0.6659 0.3992 0.6302
vn -0.4298 0.4135 0.8027
vn -0.1806 0.3725 0.9103
vn -0.8293 -0.5566 0.0493
vn -0.8530 -0.4570 0.2520
vn -0.8006 -0.4738 0.3670
vn -0.7241 -0.4673 0.5073
vn 0.1856 0.4801 0.8573
vn -0.5143 -0.2641 0.8159
vn -0.7641 -0.5669 0.3078
vn -0.7000 -0.5586 0.4449
vn -0.1877 0.1704 0.9673
vn 0.0725 0.2132 0.9743
vn -0.6288 -0.5476 0.5521
vn 0.4989 0.3782 0.7798
vn 0.2588 -0.1034 0.9604
vn 0.1747 -0.6462 0.7429
vn 0.4080 0.1368 0.9027
vn 0.1356 0.2129 0.9676
vn -0.1014 0.2578 0.9608
vn -0.4991 0.1859 0.8464
vn -0.3139 0.3287 0.8908
vn -0.7196 0.3101 0.6213
vn -0.7867 -0.6038 0.1284
vn -0.6751 -0.6669 0.3153
vn -0.5832 -0.7617 0.2824
vn 0.0590 -0.3452 0.9367
vn 0.4183 0.0737 0.9053
vn 0.2586 -0.1035 0.9604
vn 0.1897 -0.8371 0.5132
vn -0.5738 -0.7426 0.3454
vn -0.6910 -0.6517 0.3128
vn -0.8459 -0.4913 0.2075
vn -0.8879 -0.4599 -0.0122
vn -0.9336 -0.3366 0.1225
vn -0.8453 0.0358 0.5332
vn -0.9331 0.0939 0.3470
vn -0.2903 0.1590 0.9436
vn -0.0541 0.2122 0.9757
vn 0.2707 0.1876 0.9442
vn -0.3499 0.0855 0.9329
vn -0.3664 0.1002 0.9251
vn 0.1529 0.2055 0.9666
vn 0.2086 0.3814 0.9006
vn 0.3127 0.1244 0.9417
vn 0.0589 -0.3452 0.9367
vn -0.0374 0.1032 0.9940
vn -0.0294 0.0953 0.9950
vn -0.3434 0.5090 0.7893
vn -0.1038 0.6795 0.7263
vn -0.4034 0.7861 0.4683
vn -0.0814 0.8263 0.5573
vn -0.3405 0.6499 0.6794
vn -0.5517 0.7159 0.4280
vn 0.0773 0.9254 0.3709
vn 0.0418 0.9572 0.2865
vn 0.0570 0.8807 0.4703
vn 0.0710 0.8546 0.5144
vn -0.1016 0.9498 0.2959
vn -0.5730 0.8169 -0.0661
vn -0.5493 0.8333 0.0617
vn -0.7771 0.6289 0.0246
vn -0.5899 0.7040 0.3954
vn -0.8960 0.1345 0.4233
vn -0.6140 0.7878 -0.0490
vn -0.8386 0.5234 -0.1513
vn -0.8232 0.5371 -0.1839
vn -0.7029 0.6216 -0.3457
vn -0.9010 0.4193 -0.1112
vn -0.8036 0.4858 -0.3439
vn -0.6543 0.7428 -0.1420
vn -0.7466 0.4280 -0.5093
vn -0.6002 0.7992 -0.0333
vn -0.5972 0.5759 -0.5583
vn -0.2784 0.8769 -0.3919
vn -0.1899 0.9265 0.3249
vn -0.2161 0.9015 0.3749
vn -0.9987 0.0345 0.0380
vn -0.8411 0.5274 -0.1200
vn -0.9899 0.0065 -0.1415
vn -0.8258 0.5407 -0.1607
vn -0.9131 0.0492 -0.4048
vn -0.7804 0.5961 -0.1886
vn -0.6044 0.7917 -0.0888
vn -0.4962 0.8446 -0.2011
vn -0.6452 0.7007 -0.3045
vn 0.1520 -0.9675 0.2021
vn -0.0723 -0.9910 -0.1124
vn -0.0807 -0.9954 0.0520
vn 0.0412 -0.9784 -0.2024
vn 0.1184 -0.9731 -0.1975
vn 0.2296 -0.9667 -0.1131
vn 0.3105 -0.9502 -0.0255
vn 0.2747 -0.9573 0.0903
vn 0.2215 -0.9518 0.2120
vn 0.0158 -0.9092 0.4161
vn -0.2179 -0.8926 0.3946
vn -0.0713 -0.9972 0.0216
vn 0.1758 -0.9836 0.0413
vn 0.2189 -0.9693 0.1121
vn 0.4988 -0.3485 0.7936
vn -0.0425 -0.0877 0.9952
vn 0.3141 -0.0254 0.9490
vn 0.3787 -0.0592 0.9236
vn 0.6093 -0.4991 0.6161
vn 0.2365 -0.4526 0.8598
vn 0.0158 -0.9091 0.4162
vn -0.2178 -0.8926 0.3947
vn 0.1942 -0.5694 0.7988
vn 0.5048 0.0226 0.8629
vn 0.4989 0.3781 0.7798
vn 0.2217 -0.9517 0.2123
vn -0.1878 0.1704 0.9673
vn 0.2142 -0.2318 0.9489
vn 0.2013 -0.0149 0.9794
vn -0.0952 -0.1926 0.9767
vn 0.4182 0.0737 0.9054
vn -0.1417 -0.2096 0.9675
vn 0.0589 -0.3451 0.9367
vn -0.1274 -0.1704 0.9771
vn 0.3128 0.1245 0.9416
vn -0.1578 -0.4321 0.8879
vn -0.5458 0.1275 0.8282
vn -0.4796 -0.0736 0.8744
vn -0.0583 -0.0879 0.9944
vn -0.0047 0.0011 1.0000
vn -0.4679 0.4255 0.7746
vn -0.5009 0.2946 0.8138
vn -0.3664 0.1003 0.9251
vn 0.1251 -0.1740 0.9768
vn -0.2176 0.0675 0.9737
vn 0.1123 0.3136 0.9429
vn -0.0162 0.6895 0.7241
vn -0.0963 -0.1435 0.9849
vn -0.1954 0.3320 0.9228
vn -0.3430 0.0143 0.9392
vn -0.2492 0.5591 0.7908
vn -0.1770 -0.0505 0.9829
vn 0.1054 0.8823 0.4587
vn 0.0064 0.8369 0.5474
vn -0.1355 0.8379 0.5288
vn -0.0452 0.8911 0.4515
vn -0.0813 0.8263 0.5573
vn -0.1040 0.6794 0.7263
vn 0.0710 0.8546 0.5145
vn -0.0295 0.0953 0.9950
vn 0.1526 0.2055 0.9667
vn 0.2084 0.3814 0.9006
vn 0.1757 0.1971 0.9645
vn 0.2168 0.0401 0.9754
vn 0.5050 0.0226 0.8628
vn 0.2108 -0.3794 0.9009
vn 0.1943 -0.5695 0.7987
vn -0.1253 0.3120 0.9418
vn -0.6792 -0.0760 0.7300
vn -0.5358 -0.5491 0.6414
vn -0.0662 -0.9759 0.2078
vn -0.2179 -0.8926 0.3948
vn -0.7815 -0.6233 0.0276
vn 0.0484 -0.9924 0.1134
vn 0.0791 -0.9893 0.1225
vn -0.7105 -0.6199 0.3329
vn -0.0711 -0.9972 0.0215
vn 0.1760 -0.9835 0.0413
vn 0.2190 -0.9693 0.1121
vn 0.0807 -0.9925 0.0916
vn -0.3349 -0.5736 -0.7476
vn -0.0385 -0.7255 -0.6871
vn -0.0723 -0.9910 -0.1125
vn 0.1520 -0.9675 0.2023
vn 0.6895 0.0663 -0.7213
vn -0.2639 0.0312 -0.9641
vn -0.2401 0.3369 -0.9104
vn 0.1899 0.5659 -0.8023
vn 0.6899 -0.5650 -0.4525
vn 0.2242 -0.3353 -0.9150
vn -0.1048 -0.5907 -0.8001
vn 0.7236 -0.4127 -0.5533
vn 0.7885 -0.4021 -0.4653
vn 0.8758 -0.3627 -0.3184
vn 0.8149 0.1004 -0.5708
vn 0.3967 0.5775 -0.7135
vn 0.0848 0.6414 -0.7625
vn 0.2242 -0.3355 -0.9150
vn -0.4906 0.0401 -0.8705
vn -0.5058 0.6241 -0.5955
vn -0.4131 0.6579 -0.6297
vn 0.3909 0.3483 -0.8520
vn 0.6775 0.2576 -0.6889
vn 0.7868 0.0560 -0.6146
vn 0.7959 0.2260 -0.5617
vn -0.0431 0.3590 -0.9323
vn 0.0077 0.4660 -0.8848
vn 0.5208 0.8413 -0.1449
vn 0.7104 0.6583 -0.2489
vn 0.7582 0.6413 -0.1178
vn 0.3593 0.8692 -0.3397
vn 0.5313 0.7105 -0.4615
vn -0.2782 0.8769 -0.3919
vn -0.1896 0.9266 0.3249
vn 0.2323 0.8577 0.4586
vn 0.2893 0.8551 0.4303
vn 0.6431 0.7556 0.1244
vn 0.1469 0.9588 0.2431
vn 0.5695 0.8104 0.1378
vn 0.1291 0.9530 0.2742
vn 0.1766 0.9415 0.2871
vn 0.4341 0.9007 0.0179
vn 0.1335 0.9202 0.3679
vn 0.0857 0.9233 0.3745
vn 0.1056 0.8824 0.4586
vn -0.0165 0.6897 0.7239
vn 0.1051 0.1118 0.9882
vn -0.2175 0.0675 0.9737
vn 0.1694 0.4726 0.8648
vn 0.5492 0.6729 0.4956
vn 0.5946 0.7942 0.1253
vn 0.6632 0.6786 -0.3157
vn 0.8513 0.5245 -0.0128
vn 0.8416 0.5334 -0.0851
vn 0.9106 -0.3581 0.2061
vn 0.8696 -0.3963 0.2945
vn 0.8662 -0.4614 0.1918
vn 0.0572 0.1197 0.9912
vn 0.8873 0.0752 0.4551
vn 0.8316 0.5532 -0.0486
vn 0.6380 0.7275 -0.2524
vn 0.7811 0.6241 0.0197
vn 0.5400 0.8333 0.1182
vn 0.5458 0.8373 -0.0326
vn 0.5720 0.8025 -0.1699
vn 0.7961 0.6033 -0.0483
vn 0.9787 0.0926 0.1835
vn 0.9342 -0.3506 0.0660
vn 0.9972 0.0679 0.0303
vn 0.7868 0.6172 -0.0028
vn 0.9861 0.0707 -0.1504
vn 0.9291 -0.3605 -0.0823
vn 0.9367 -0.3502 -0.0042
vn 0.9068 -0.4214 -0.0134
vn 0.8999 -0.4330 -0.0513
vn 0.7509 0.4735 -0.4604
vn 0.8433 0.4987 -0.2001
vn 0.8561 0.4717 -0.2112
vn 0.9025 -0.4102 -0.1313
vn 0.9107 -0.3515 -0.2168
vn 0.9066 0.1035 -0.4090
vn 0.8060 0.5899 0.0486
vn 0.8011 0.5921 0.0873
vn 0.6060 0.7495 0.2665
vn 0.8787 0.4759 -0.0374
vn 0.6397 0.6730 0.3713
vn 0.8503 -0.4774 -0.2215
vn 0.5624 0.4031 -0.7220
vn 0.7538 0.4396 -0.4885
vn 0.5929 0.3810 -0.7095
vn 0.8264 -0.4962 -0.2661
vn 0.7687 -0.5298 -0.3583
vn 0.6988 -0.7069 -0.1097
vn 0.7951 -0.4786 -0.3724
vn 0.3520 0.3621 -0.8631
vn 0.3827 0.3297 -0.8630
vn 0.6897 -0.5719 -0.4441
vn 0.6656 -0.7415 -0.0838
vn 0.6454 -0.7601 -0.0760
vn 0.2008 0.2639 -0.9434
vn 0.1926 0.2975 -0.9351
vn 0.6260 -0.5826 -0.5184
vn 0.6264 -0.7778 -0.0509
vn 0.4794 -0.3716 -0.7950
vn 0.1998 -0.4170 -0.8867
vn -0.1155 -0.6713 -0.7321
vn -0.1790 0.1491 -0.9725
vn -0.2219 -0.0097 -0.9750
vn 0.1999 -0.4170 -0.8867
vn 0.7059 0.0926 -0.7022
vn 0.2421 0.1695 -0.9553
vn 0.1159 -0.1636 -0.9797
vn -0.1096 -0.1579 -0.9814
vn 0.0530 -0.4745 -0.8787
vn 0.2922 -0.3241 -0.8998
vn 0.8320 0.1508 -0.5339
vn 0.6178 0.3088 -0.7231
vn 0.8516 -0.2170 -0.4771
vn 0.6824 -0.5871 -0.4356
vn 0.6618 -0.5914 -0.4608
vn 0.7632 0.3453 -0.5462
vn 0.9445 0.1900 -0.2679
vn 0.6911 -0.7145 -0.1093
vn 0.8540 -0.4936 -0.1644
vn 0.8605 0.5008 0.0932
vn 0.8885 0.4549 0.0599
vn 0.8708 -0.4886 -0.0546
vn 0.7066 -0.6990 -0.1101
vn 0.9781 0.1851 0.0949
vn 0.7446 -0.6535 -0.1361
vn 0.8714 0.1858 0.4540
vn 0.9162 0.3880 0.1001
vn 0.8792 0.3923 -0.2704
vn 0.9724 -0.1994 -0.1208
vn 0.8208 0.3292 0.4668
vn 0.6603 0.1830 0.7284
vn 0.8023 -0.5918 -0.0775
vn 0.8535 -0.5210 0.0103
vn 0.8526 0.3721 0.3669
vn 0.6998 0.2628 0.6643
vn 0.8491 -0.5194 0.0959
vn 0.6514 0.3205 0.6878
vn 0.8144 0.4512 0.3648
vn 0.9071 -0.4209 -0.0058
vn 0.8881 -0.4492 0.0979
vn 0.4086 0.2068 0.8890
vn 0.4482 0.1739 0.8769
vn 0.8446 -0.5118 0.1572
vn 0.8626 -0.5057 0.0168
vn 0.1998 0.1033 0.9744
vn 0.8278 -0.4948 0.2644
vn 0.8600 -0.4694 0.2003
vn 0.2731 0.2503 0.9289
vn 0.1639 -0.5874 0.7925
vn 0.2743 -0.1272 0.9532
vn -0.0425 -0.0876 0.9952
vn 0.1681 0.0645 0.9836
vn 0.7814 -0.2595 0.5676
vn 0.8263 -0.4756 0.3016
vn 0.0024 0.0799 0.9968
vn -0.2937 -0.0627 0.9538
vn 0.1276 -0.7683 0.6272
vn 0.2143 -0.2320 0.9488
vn -0.4797 -0.0733 0.8743
vn 0.2139 -0.2319 0.9489
vn -0.5010 0.2946 0.8138
vn -0.4679 0.4257 0.7745
vn -0.1797 0.2710 0.9457
vn -0.5550 0.1191 0.8232
vn 0.6534 -0.5560 0.5137
vn -0.1961 -0.8148 0.5456
vn 0.6993 -0.6007 0.3874
vn -0.1579 -0.4323 0.8878
vn -0.1241 0.0859 0.9885
vn -0.5458 0.1276 0.8282
vn -0.1578 -0.4323 0.8878
vn 0.1450 0.1116 0.9831
vn 0.8091 -0.5239 0.2661
vn 0.7806 -0.4795 0.4010
vn -0.0615 0.1343 0.9890
vn -0.7728 0.2420 0.5867
vn -0.8048 -0.5660 0.1786
vn -0.8392 -0.5402 0.0629
vn -0.9186 0.3123 0.2419
vn -0.8539 -0.5149 -0.0755
vn -0.9353 0.3271 -0.1348
vn -0.7919 0.5622 0.2385
vn -0.8767 -0.4275 -0.2205
vn -0.9517 -0.2776 -0.1313
vn -0.9243 -0.3622 -0.1201
vn 0.7525 -0.6352 0.1737
vn 0.8244 -0.5006 0.2642
vn 0.8705 -0.4754 -0.1273
vn 0.7691 -0.6239 -0.1387
vn 0.6951 -0.5326 -0.4829
vn 0.3652 -0.5700 -0.7360
vn 0.2298 -0.9666 -0.1133
vn 0.3106 -0.9502 -0.0255
vn 0.2750 -0.9572 0.0903
vn 0.2217 -0.9518 0.2122
vn 0.6096 -0.4991 0.6159
vn 0.4988 -0.3488 0.7935
vn 0.7887 -0.5860 0.1857
vn 0.8161 -0.5618 -0.1358
vn 0.9536 -0.1575 0.2567
vn 0.6780 0.2504 0.6911
vn 0.4743 0.2194 0.8526
vn -0.0452 0.8912 0.4514
vn 0.0134 0.9224 0.3859
vn -0.1355 0.8380 0.5286
vn 0.0063 0.8370 0.5472
vn 0.1054 0.8824 0.4585
vn 0.1334 0.9203 0.3679
vn 0.1765 0.9415 0.2871
vn 0.1290 0.9530 0.2742
vn 0.1466 0.9588 0.2432
vn 0.2322 0.8577 0.4588
vn -0.1896 0.9265 0.3250
vn -0.2160 0.9015 0.3751
vn -0.1014 0.9498 0.2960
vn 0.0417 0.9571 0.2866
vn 0.0773 0.9255 0.3709
vt 0.943359 0.982437
vt 0.928711 0.983917
vt 0.935059 0.949921
vt 0.944336 0.992405
vt 0.937988 0.996590
vt 0.946777 0.985039
vt 0.985352 0.989227
vt 0.985352 0.981598
vt 0.948730 0.953522
vt 0.982910 0.984985
vt 0.993652 0.991302
vt 0.996582 0.950653
vt 0.998047 0.984024
vt 0.984863 0.950378
vt 0.992676 0.931458
vt 0.983398 0.934143
vt 0.981445 0.918335
vt 0.955078 0.919006
vt 0.951660 0.934631
vt 0.987305 0.908081
vt 0.977539 0.916199
vt 0.980469 0.904968
vt 0.958984 0.916748
vt 0.947754 0.907654
vt 0.938477 0.929077
vt 0.954590 0.904114
vt 0.952637 0.891785
vt 0.961914 0.751709
vt 0.972168 0.751465
vt 0.975098 0.816406
vt 0.955566 0.817261
vt 0.978027 0.834595
vt 0.948730 0.835449
vt 0.950195 0.864380
vt 0.979492 0.863159
vt 0.982422 0.889771
vt 0.992676 0.701904
vt 0.997070 0.763550
vt 0.972168 0.664307
vt 0.950195 0.666504
vt 0.951660 0.657227
vt 0.971680 0.657959
vt 0.970215 0.651367
vt 0.988281 0.650635
vt 0.991699 0.657227
vt 0.969238 0.705811
vt 0.939453 0.706787
vt 0.919434 0.766113
vt 0.952637 0.650879
vt 0.086975 0.663086
vt 0.066956 0.692871
vt 0.049561 0.663818
vt 0.062988 0.649902
vt 0.037964 0.647461
vt 0.039734 0.634521
vt 0.021408 0.635986
vt 0.021255 0.619629
vt 0.044434 0.626953
vt 0.066406 0.642334
vt 0.085388 0.655029
vt 0.094910 0.652100
vt 0.102539 0.641846
vt 0.091187 0.645264
vt 0.099121 0.635498
vt 0.087219 0.611084
vt 0.105957 0.595215
vt 0.104614 0.588623
vt 0.124084 0.588623
vt 0.083862 0.588867
vt 0.065857 0.606934
vt 0.046082 0.600342
vt 0.026382 0.614014
vt 0.065735 0.584229
vt 0.084534 0.585449
vt 0.104614 0.579346
vt 0.126953 0.580078
vt 0.082764 0.574463
vt 0.067322 0.578613
vt 0.047363 0.577148
vt 0.019379 0.589600
vt 0.010849 0.591797
vt 0.005203 0.563477
vt 0.014320 0.562500
vt 0.030853 0.569580
vt 0.050018 0.569336
vt 0.064819 0.565918
vt 0.083984 0.568359
vt 0.105713 0.574219
vt 0.088013 0.507812
vt 0.105469 0.511719
vt 0.066284 0.560303
vt 0.046722 0.555420
vt 0.033569 0.560791
vt 0.017593 0.552490
vt 0.031891 0.545166
vt 0.048981 0.549561
vt 0.070068 0.499512
vt 0.054382 0.489746
vt 0.035645 0.539551
vt 0.039886 0.479980
vt 0.018295 0.532471
vt 0.023407 0.528564
vt 0.025864 0.470215
vt 0.019241 0.466797
vt 0.104004 0.505371
vt 0.088562 0.501465
vt 0.071838 0.492676
vt 0.057098 0.481445
vt 0.042023 0.472656
vt 0.027863 0.463379
vt 0.054596 0.473633
vt 0.071411 0.485840
vt 0.089233 0.496094
vt 0.104492 0.500000
vt 0.120178 0.500244
vt 0.121033 0.504639
vt 0.065552 0.409668
vt 0.073608 0.412598
vt 0.061554 0.470703
vt 0.076477 0.480957
vt 0.092468 0.489746
vt 0.106018 0.493652
vt 0.100830 0.417969
vt 0.123535 0.419434
vt 0.106384 0.370117
vt 0.172852 0.457031
vt 0.159912 0.471191
vt 0.145386 0.416992
vt 0.146851 0.482422
vt 0.133789 0.489746
vt 0.120300 0.494141
vt 0.135132 0.496094
vt 0.149902 0.488281
vt 0.164062 0.476562
vt 0.177979 0.462891
vt 0.139282 0.500000
vt 0.153442 0.491699
vt 0.170898 0.477051
vt 0.185181 0.459961
vt 0.191772 0.444336
vt 0.199829 0.437988
vt 0.176147 0.484863
vt 0.190186 0.467285
vt 0.197388 0.525635
vt 0.211060 0.505615
vt 0.203857 0.445801
vt 0.203369 0.425781
vt 0.214111 0.417480
vt 0.216919 0.425293
vt 0.222778 0.485352
vt 0.216675 0.509766
vt 0.201050 0.530762
vt 0.183105 0.543945
vt 0.185913 0.549561
vt 0.168457 0.564697
vt 0.183716 0.558350
vt 0.197754 0.544922
vt 0.212036 0.532715
vt 0.228882 0.518311
vt 0.229248 0.487305
vt 0.222900 0.419922
vt 0.233521 0.528809
vt 0.217163 0.539795
vt 0.202881 0.552979
vt 0.186768 0.564453
vt 0.167725 0.571045
vt 0.168335 0.576904
vt 0.185913 0.602051
vt 0.167236 0.611816
vt 0.208008 0.589844
vt 0.217407 0.574707
vt 0.230347 0.561523
vt 0.203125 0.607422
vt 0.199219 0.624756
vt 0.217285 0.592285
vt 0.226196 0.578369
vt 0.238525 0.563965
vt 0.243408 0.529785
vt 0.213257 0.610596
vt 0.207397 0.629395
vt 0.191528 0.648438
vt 0.195068 0.656006
vt 0.180298 0.658936
vt 0.191162 0.666748
vt 0.179077 0.665771
vt 0.165283 0.668945
vt 0.167847 0.681885
vt 0.146973 0.687500
vt 0.180664 0.679688
vt 0.190430 0.680420
vt 0.128540 0.694580
vt 0.121582 0.681885
vt 0.143066 0.674805
vt 0.159790 0.657959
vt 0.179443 0.649902
vt 0.175781 0.630859
vt 0.162598 0.650391
vt 0.148193 0.632324
vt 0.155884 0.640625
vt 0.151367 0.647217
vt 0.137817 0.659424
vt 0.114136 0.669678
vt 0.099243 0.690918
vt 0.092468 0.678711
vt 0.112671 0.635010
vt 0.063049 0.697998
vt 0.072754 0.714844
vt 0.092285 0.718018
vt 0.113770 0.701416
vt 0.143188 0.611328
vt 0.138062 0.627441
vt 0.125854 0.611328
vt 0.125488 0.625488
vt 0.108398 0.611084
vt 0.111450 0.628906
vt 0.124390 0.631836
vt 0.134521 0.633301
vt 0.143677 0.638428
vt 0.381592 0.189453
vt 0.385254 0.165527
vt 0.416992 0.195312
vt 0.402100 0.159668
vt 0.419434 0.156738
vt 0.437012 0.164062
vt 0.448975 0.177246
vt 0.452148 0.196289
vt 0.448242 0.215820
vt 0.434570 0.230957
vt 0.419922 0.238770
vt 0.403564 0.234863
vt 0.389160 0.221191
vt 0.382324 0.207031
vt 0.287109 0.451172
vt 0.289307 0.479492
vt 0.266113 0.479492
vt 0.263916 0.453125
vt 0.285645 0.445312
vt 0.262939 0.447754
vt 0.263916 0.441895
vt 0.247192 0.444336
vt 0.245117 0.451660
vt 0.246582 0.476074
vt 0.258789 0.498047
vt 0.247437 0.507080
vt 0.284424 0.439941
vt 0.288086 0.510498
vt 0.273438 0.497559
vt 0.265625 0.497559
vt 0.260254 0.563232
vt 0.246826 0.563232
vt 0.256104 0.592529
vt 0.237183 0.591309
vt 0.253174 0.624756
vt 0.230591 0.623779
vt 0.273926 0.592529
vt 0.270264 0.627686
vt 0.274902 0.563477
vt 0.250488 0.649658
vt 0.274170 0.653320
vt 0.283691 0.643555
vt 0.290527 0.655273
vt 0.294678 0.670898
vt 0.274170 0.678955
vt 0.295898 0.685059
vt 0.270264 0.700439
vt 0.297363 0.709229
vt 0.247925 0.676025
vt 0.245361 0.697754
vt 0.223755 0.677490
vt 0.219727 0.703857
vt 0.227539 0.648926
vt 0.287842 0.722900
vt 0.265625 0.715332
vt 0.244019 0.712891
vt 0.223511 0.717041
vt 0.203491 0.714111
vt 0.199341 0.706543
vt 0.211182 0.724365
vt 0.201904 0.681641
vt 0.204590 0.664062
vt 0.208130 0.647217
vt 0.217041 0.634033
vt 0.196777 0.423828
vt 0.192871 0.395508
vt 0.200195 0.392578
vt 0.189331 0.372070
vt 0.191162 0.367188
vt 0.185669 0.440430
vt 0.170898 0.408203
vt 0.168701 0.373047
vt 0.168701 0.366699
vt 0.187012 0.359375
vt 0.126099 0.371094
vt 0.125854 0.364746
vt 0.144775 0.365234
vt 0.144531 0.372559
vt 0.168457 0.360352
vt 0.145752 0.357910
vt 0.126343 0.356934
vt 0.105835 0.363281
vt 0.079346 0.369629
vt 0.075989 0.363770
vt 0.080688 0.357910
vt 0.106079 0.355957
vt 0.645508 0.854858
vt 0.682129 0.836426
vt 0.675781 0.860229
vt 0.648438 0.879761
vt 0.662109 0.812378
vt 0.682129 0.800781
vt 0.685547 0.810791
vt 0.664062 0.820679
vt 0.644531 0.830933
vt 0.622559 0.840454
vt 0.623535 0.864502
vt 0.624023 0.896118
vt 0.629395 0.903503
vt 0.694336 0.809448
vt 0.690918 0.837769
vt 0.682129 0.866821
vt 0.654785 0.886963
vt 0.642090 0.907898
vt 0.619141 0.928894
vt 0.650879 0.914185
vt 0.629395 0.941925
vt 0.658691 0.892456
vt 0.662598 0.897705
vt 0.675293 0.882019
vt 0.605957 0.908325
vt 0.605469 0.916016
vt 0.607910 0.938965
vt 0.621094 0.962952
vt 0.636230 0.951080
vt 0.630859 0.993809
vt 0.650391 0.991745
vt 0.610840 0.999299
vt 0.603027 0.969818
vt 0.587891 0.948792
vt 0.577148 0.928833
vt 0.568848 0.940338
vt 0.552246 0.924133
vt 0.548828 0.936707
vt 0.533203 0.928345
vt 0.534668 0.913757
vt 0.515625 0.925293
vt 0.514648 0.910461
vt 0.500977 0.923096
vt 0.496094 0.906006
vt 0.489502 0.877747
vt 0.481689 0.882446
vt 0.475830 0.867554
vt 0.498535 0.898560
vt 0.514160 0.901978
vt 0.530762 0.905945
vt 0.542480 0.906433
vt 0.562012 0.905396
vt 0.537598 0.899231
vt 0.520996 0.843384
vt 0.507812 0.834229
vt 0.513184 0.828125
vt 0.485352 0.864258
vt 0.518555 0.872681
vt 0.544922 0.892578
vt 0.549316 0.899902
vt 0.578613 0.886047
vt 0.577637 0.894043
vt 0.567871 0.893250
vt 0.558105 0.895447
vt 0.555664 0.887695
vt 0.549316 0.872925
vt 0.540527 0.852539
vt 0.563965 0.872925
vt 0.567383 0.885132
vt 0.580566 0.873047
vt 0.581543 0.855347
vt 0.561523 0.856812
vt 0.562012 0.849976
vt 0.581055 0.848999
vt 0.605469 0.832397
vt 0.582520 0.838257
vt 0.582520 0.831299
vt 0.601562 0.842896
vt 0.601074 0.849731
vt 0.603516 0.873413
vt 0.590820 0.891113
vt 0.599609 0.899414
vt 0.587891 0.899109
vt 0.584473 0.911804
vt 0.596680 0.907227
vt 0.619629 0.836304
vt 0.625977 0.823120
vt 0.604492 0.825806
vt 0.624512 0.816772
vt 0.606445 0.767212
vt 0.626953 0.758179
vt 0.606445 0.758545
vt 0.642578 0.823242
vt 0.648926 0.809570
vt 0.645996 0.803711
vt 0.645020 0.746094
vt 0.625977 0.749756
vt 0.643066 0.737061
vt 0.668457 0.796631
vt 0.664551 0.791260
vt 0.663574 0.734131
vt 0.661621 0.725830
vt 0.639160 0.732666
vt 0.680176 0.711914
vt 0.682129 0.720459
vt 0.682617 0.777954
vt 0.687988 0.781738
vt 0.689941 0.716309
vt 0.624023 0.743652
vt 0.632324 0.729004
vt 0.622559 0.670898
vt 0.629395 0.667236
vt 0.616211 0.631592
vt 0.617676 0.625000
vt 0.607422 0.751953
vt 0.619141 0.737793
vt 0.602051 0.678223
vt 0.596191 0.637207
vt 0.595215 0.629883
vt 0.604492 0.745361
vt 0.590332 0.756592
vt 0.588867 0.762695
vt 0.587402 0.770996
vt 0.561523 0.838745
vt 0.562988 0.831909
vt 0.569336 0.770264
vt 0.572754 0.762085
vt 0.574219 0.756226
vt 0.558105 0.756592
vt 0.558594 0.750000
vt 0.576172 0.749268
vt 0.589355 0.750000
vt 0.577637 0.679688
vt 0.562500 0.743652
vt 0.542969 0.736572
vt 0.544922 0.747070
vt 0.553223 0.763916
vt 0.544434 0.827881
vt 0.527832 0.817749
vt 0.537598 0.753662
vt 0.525391 0.824097
vt 0.542480 0.834229
vt 0.542480 0.845825
vt 0.524902 0.837524
vt 0.508789 0.809448
vt 0.512695 0.803589
vt 0.525391 0.739746
vt 0.532227 0.733398
vt 0.500977 0.786011
vt 0.513672 0.724365
vt 0.520996 0.718018
vt 0.525879 0.716309
vt 0.526855 0.634521
vt 0.524414 0.661133
vt 0.516113 0.659180
vt 0.512207 0.693115
vt 0.519531 0.691895
vt 0.509277 0.698975
vt 0.503418 0.706055
vt 0.490234 0.765747
vt 0.482178 0.746582
vt 0.492676 0.688232
vt 0.496826 0.680908
vt 0.474609 0.748779
vt 0.486084 0.682617
vt 0.470215 0.851562
vt 0.462402 0.839844
vt 0.470459 0.835205
vt 0.456543 0.818115
vt 0.478027 0.803589
vt 0.459473 0.786011
vt 0.483643 0.796753
vt 0.467529 0.777832
vt 0.483887 0.770020
vt 0.449219 0.821533
vt 0.449463 0.785034
vt 0.495850 0.791504
vt 0.499756 0.815063
vt 0.494873 0.821655
vt 0.479004 0.848389
vt 0.167114 0.558594
vt 0.159302 0.499023
vt 0.143799 0.507324
vt 0.146851 0.570557
vt 0.124268 0.511963
vt 0.127563 0.574463
vt 0.146851 0.576172
vt 0.126953 0.594727
vt 0.147339 0.581543
vt 0.149170 0.587158
vt 0.549805 0.630859
vt 0.549805 0.622314
vt 0.572266 0.622559
vt 0.573242 0.631348
vt 0.592773 0.619873
vt 0.614258 0.615479
vt 0.609863 0.610352
vt 0.590820 0.614746
vt 0.571289 0.617188
vt 0.549805 0.617432
vt 0.529297 0.617920
vt 0.527344 0.623047
vt 0.525879 0.629639
vt 0.549805 0.637939
vt 0.573730 0.638672
vt 0.552246 0.673584
vt 0.548340 0.731689
vt 0.532715 0.712646
vt 0.792969 0.680908
vt 0.785645 0.692871
vt 0.756836 0.662842
vt 0.770996 0.707031
vt 0.751953 0.711182
vt 0.729980 0.705322
vt 0.722656 0.695068
vt 0.715820 0.682129
vt 0.718262 0.667725
vt 0.714844 0.649902
vt 0.717285 0.629639
vt 0.729980 0.609131
vt 0.757324 0.604004
vt 0.777832 0.621582
vt 0.787598 0.632812
vt 0.797852 0.646240
vt 0.800781 0.663330
vt 0.797852 0.673340
s 1
usemtl DPROP_GEN_Sentinel_Arm_MATINST.002
f 1/1/1 2/2/2 3/3/3
f 4/4/4 5/5/5 1/1/1
f 1/1/1 6/6/6 4/4/4
f 7/7/7 4/4/4 6/6/6
f 6/6/6 1/1/1 8/8/8
f 8/8/8 1/1/1 9/9/9
f 3/3/3 9/9/9 1/1/1
f 7/7/7 10/10/10 8/8/8
f 8/8/8 10/10/10 6/6/6
f 6/6/6 10/10/10 7/7/7
f 8/8/8 11/11/11 7/7/7
f 12/12/12 13/13/11 8/8/8
f 8/8/8 14/14/13 12/12/12
f 9/9/9 14/14/13 8/8/8
f 15/15/14 12/12/12 14/14/13
f 14/14/13 16/16/15 15/15/14
f 15/15/14 16/16/15 17/17/16
f 18/18/17 17/17/16 16/16/15
f 19/19/18 16/16/15 14/14/13
f 14/14/13 9/9/9 19/19/18
f 16/16/15 19/19/18 18/18/17
f 19/19/18 9/9/9 3/3/3
f 17/17/16 20/20/19 15/15/14
f 20/20/19 17/17/16 21/21/20
f 21/21/20 22/22/21 20/20/19
f 22/22/21 21/21/20 23/23/22
f 23/23/22 21/21/20 17/17/16
f 17/17/16 18/18/17 23/23/22
f 23/23/22 18/18/17 24/24/23
f 25/25/24 24/24/23 18/18/17
f 18/18/17 19/19/18 25/25/24
f 3/3/3 25/25/24 19/19/18
f 24/24/23 26/26/25 23/23/22
f 23/23/22 26/26/25 22/22/21
f 24/24/23 27/27/26 26/26/25
f 22/22/21 26/26/25 27/27/26
f 28/28/27 29/29/28 30/30/29
f 30/30/29 31/31/30 28/28/27
f 31/31/30 30/30/29 32/32/31
f 32/32/31 33/33/32 31/31/30
f 34/34/33 33/33/32 32/32/31
f 32/32/31 35/35/34 34/34/33
f 27/27/26 34/34/33 35/35/34
f 27/27/26 36/36/35 22/22/21
f 22/22/21 36/36/35 20/20/19
f 35/35/34 36/36/35 27/27/26
f 37/37/36 38/38/37 29/29/28
f 39/39/38 40/40/39 41/41/40
f 41/41/40 42/42/41 39/39/38
f 43/43/42 42/42/41 41/41/40
f 42/42/41 43/43/42 44/44/43
f 39/39/38 42/42/41 45/45/44
f 39/39/38 45/45/44 37/37/36
f 44/44/43 45/45/44 42/42/41
f 37/37/36 46/46/45 39/39/38
f 29/29/28 46/46/45 37/37/36
f 46/46/45 29/29/28 28/28/27
f 40/40/39 39/39/38 46/46/45
f 46/46/45 47/47/46 40/40/39
f 47/47/46 46/46/45 28/28/27
f 28/28/27 48/48/47 47/47/46
f 41/41/40 49/49/48 43/43/42
f 50/50/49 51/51/50 52/52/51
f 52/52/51 53/53/52 50/50/49
f 53/53/52 52/52/51 54/54/53
f 54/54/53 55/55/54 53/53/52
f 55/55/54 54/54/53 56/56/55
f 56/56/55 57/57/56 55/55/54
f 58/58/57 55/55/54 57/57/56
f 59/59/58 53/53/52 55/55/54
f 55/55/54 58/58/57 59/59/58
f 53/53/52 59/59/58 60/60/59
f 60/60/59 50/50/49 53/53/52
f 61/61/60 50/50/49 60/60/59
f 50/50/49 61/61/60 62/62/61
f 59/59/58 63/63/62 60/60/59
f 60/60/59 63/63/62 61/61/60
f 62/62/61 61/61/60 63/63/62
f 63/63/62 64/64/63 62/62/61
f 65/65/64 63/63/62 59/59/58
f 65/65/64 64/64/63 63/63/62
f 66/66/65 67/67/66 68/68/67
f 65/65/64 69/69/68 66/66/65
f 67/67/66 66/66/65 69/69/68
f 69/69/68 65/65/64 70/70/69
f 59/59/58 70/70/69 65/65/64
f 70/70/69 59/59/58 58/58/57
f 58/58/57 71/71/70 70/70/69
f 57/57/56 72/72/71 58/58/57
f 71/71/70 58/58/57 72/72/71
f 70/70/69 73/73/72 69/69/68
f 73/73/72 70/70/69 71/71/70
f 69/69/68 74/74/73 67/67/66
f 74/74/73 69/69/68 73/73/72
f 68/68/67 67/67/66 75/75/74
f 75/75/74 67/67/66 74/74/73
f 75/75/74 76/76/75 68/68/67
f 74/74/73 77/77/76 75/75/74
f 73/73/72 78/78/77 74/74/73
f 77/77/76 74/74/73 78/78/77
f 78/78/77 73/73/72 79/79/78
f 71/71/70 79/79/78 73/73/72
f 79/79/78 71/71/70 80/80/79
f 72/72/71 80/80/79 71/71/70
f 72/72/71 57/57/56 81/81/34
f 81/81/34 80/80/79 72/72/71
f 81/81/34 82/82/80 83/83/81
f 83/83/81 80/80/79 81/81/34
f 80/80/79 84/84/82 79/79/78
f 80/80/79 83/83/81 84/84/82
f 79/79/78 85/85/83 78/78/77
f 85/85/83 79/79/78 84/84/82
f 86/86/84 78/78/77 85/85/83
f 78/78/77 86/86/84 77/77/76
f 87/87/85 77/77/76 86/86/84
f 88/88/86 75/75/74 77/77/76
f 76/76/75 75/75/74 88/88/86
f 77/77/76 87/87/85 88/88/86
f 87/87/85 89/89/87 90/90/88
f 90/90/88 88/88/86 87/87/85
f 89/89/87 87/87/85 91/91/89
f 86/86/84 91/91/89 87/87/85
f 91/91/89 86/86/84 92/92/90
f 85/85/83 92/92/90 86/86/84
f 92/92/90 85/85/83 93/93/91
f 93/93/91 84/84/82 83/83/81
f 84/84/82 93/93/91 85/85/83
f 83/83/81 94/94/92 93/93/91
f 95/95/93 93/93/91 94/94/92
f 93/93/91 95/95/93 92/92/90
f 96/96/94 92/92/90 95/95/93
f 92/92/90 96/96/94 91/91/89
f 91/91/89 97/97/95 89/89/87
f 97/97/95 91/91/89 96/96/94
f 96/96/94 98/98/96 97/97/95
f 98/98/96 96/96/94 99/99/97
f 95/95/93 99/99/97 96/96/94
f 99/99/97 100/100/98 98/98/96
f 94/94/92 101/101/99 95/95/93
f 99/99/97 95/95/93 101/101/99
f 101/101/99 102/102/100 99/99/97
f 100/100/98 99/99/97 102/102/100
f 103/103/101 102/102/100 101/101/99
f 102/102/100 103/103/101 100/100/98
f 101/101/99 104/104/102 103/103/101
f 105/105/103 90/90/88 89/89/87
f 106/106/104 89/89/87 97/97/95
f 89/89/87 106/106/104 105/105/103
f 97/97/95 107/107/105 106/106/104
f 107/107/105 97/97/95 98/98/96
f 108/108/106 98/98/96 100/100/98
f 98/98/96 108/108/106 107/107/105
f 100/100/98 109/109/107 108/108/106
f 109/109/107 100/100/98 103/103/101
f 103/103/101 110/110/108 109/109/107
f 111/111/109 108/108/106 109/109/107
f 109/109/107 110/110/108 111/111/109
f 112/112/110 107/107/105 108/108/106
f 108/108/106 111/111/109 112/112/110
f 107/107/105 112/112/110 113/113/111
f 113/113/111 106/106/104 107/107/105
f 106/106/104 113/113/111 114/114/112
f 114/114/112 105/105/103 106/106/104
f 105/105/103 114/114/112 115/115/113
f 115/115/113 116/116/114 105/105/103
f 90/90/88 105/105/103 116/116/114
f 111/111/109 117/117/115 118/118/116
f 118/118/116 119/119/117 111/111/109
f 112/112/110 111/111/109 119/119/117
f 113/113/111 112/112/110 120/120/118
f 119/119/117 120/120/118 112/112/110
f 120/120/118 121/121/119 113/113/111
f 114/114/112 113/113/111 121/121/119
f 121/121/119 122/122/120 114/114/112
f 115/115/113 114/114/112 122/122/120
f 121/121/119 120/120/118 123/123/121
f 123/123/121 120/120/118 119/119/117
f 122/122/120 121/121/119 123/123/121
f 119/119/117 118/118/116 123/123/121
f 123/123/121 124/124/122 122/122/120
f 124/124/122 123/123/121 125/125/123
f 125/125/123 123/123/121 118/118/116
f 126/126/124 127/127/125 128/128/126
f 128/128/126 127/127/125 129/129/127
f 124/124/122 128/128/126 129/129/127
f 129/129/127 130/130/128 124/124/122
f 122/122/120 131/131/129 115/115/113
f 131/131/129 124/124/122 130/130/128
f 124/124/122 131/131/129 122/122/120
f 131/131/129 130/130/128 132/132/130
f 132/132/130 115/115/113 131/131/129
f 116/116/114 115/115/113 132/132/130
f 133/133/131 132/132/130 130/130/128
f 130/130/128 129/129/127 133/133/131
f 134/134/132 133/133/131 129/129/127
f 129/129/127 127/127/125 134/134/132
f 135/135/133 134/134/132 127/127/125
f 127/127/125 126/126/124 135/135/133
f 132/132/130 136/136/134 116/116/114
f 136/136/134 132/132/130 133/133/131
f 137/137/135 133/133/131 134/134/132
f 133/133/131 137/137/135 136/136/134
f 138/138/136 134/134/132 135/135/133
f 134/134/132 138/138/136 137/137/135
f 135/135/133 139/139/137 138/138/136
f 140/140/138 135/135/133 126/126/124
f 139/139/137 135/135/133 140/140/138
f 140/140/138 141/141/139 139/139/137
f 137/137/135 138/138/136 142/142/140
f 138/138/136 139/139/137 143/143/141
f 143/143/141 142/142/140 138/138/136
f 142/142/140 143/143/141 144/144/142
f 145/145/143 144/144/142 143/143/141
f 143/143/141 146/146/144 145/145/143
f 146/146/144 143/143/141 139/139/137
f 139/139/137 141/141/139 146/146/144
f 141/141/139 140/140/138 147/147/145
f 147/147/145 148/148/146 141/141/139
f 149/149/147 146/146/144 141/141/139
f 141/141/139 148/148/146 149/149/147
f 150/150/148 145/145/143 146/146/144
f 146/146/144 149/149/147 150/150/148
f 144/144/142 145/145/143 151/151/149
f 151/151/149 145/145/143 150/150/148
f 151/151/149 152/152/150 144/144/142
f 144/144/142 153/153/151 142/142/140
f 153/153/151 144/144/142 152/152/150
f 152/152/150 154/154/152 153/153/151
f 155/155/153 154/154/152 156/156/154
f 157/157/155 156/156/154 154/154/152
f 154/154/152 152/152/150 157/157/155
f 152/152/150 151/151/149 158/158/156
f 158/158/156 157/157/155 152/152/150
f 159/159/157 158/158/156 151/151/149
f 150/150/148 160/160/158 151/151/149
f 160/160/158 150/150/148 149/149/147
f 151/151/149 160/160/158 159/159/157
f 149/149/147 161/161/159 160/160/158
f 158/158/156 159/159/157 162/162/160
f 162/162/160 163/163/161 158/158/156
f 157/157/155 158/158/156 163/163/161
f 163/163/161 164/164/162 157/157/155
f 156/156/154 157/157/155 164/164/162
f 164/164/162 165/165/163 156/156/154
f 156/156/154 166/166/164 155/155/153
f 166/166/164 156/156/154 165/165/163
f 165/165/163 167/167/165 166/166/164
f 167/167/165 165/165/163 168/168/166
f 168/168/166 169/169/167 167/167/165
f 170/170/168 168/168/166 165/165/163
f 165/165/163 164/164/162 170/170/168
f 164/164/162 163/163/161 171/171/169
f 171/171/169 170/170/168 164/164/162
f 172/172/170 171/171/169 163/163/161
f 163/163/161 162/162/160 172/172/170
f 168/168/166 170/170/168 173/173/171
f 173/173/171 174/174/172 168/168/166
f 175/175/173 170/170/168 171/171/169
f 173/173/171 170/170/168 175/175/173
f 176/176/174 171/171/169 172/172/170
f 171/171/169 176/176/174 175/175/173
f 177/177/175 172/172/170 162/162/160
f 172/172/170 177/177/175 176/176/174
f 162/162/160 178/178/176 177/177/175
f 175/175/173 179/179/177 173/173/171
f 179/179/177 174/174/172 173/173/171
f 179/179/177 180/180/178 174/174/172
f 181/181/179 174/174/172 180/180/178
f 180/180/178 182/182/180 181/181/179
f 181/181/179 182/182/180 183/183/181
f 183/183/181 182/182/180 184/184/182
f 184/184/182 185/185/183 183/183/181
f 183/183/181 185/185/183 186/186/184
f 187/187/185 186/186/184 185/185/183
f 186/186/184 187/187/185 188/188/186
f 189/189/187 185/185/183 184/184/182
f 185/185/183 189/189/187 187/187/185
f 184/184/182 190/190/188 189/189/187
f 188/188/186 191/191/189 192/192/190
f 188/188/186 193/193/191 186/186/184
f 192/192/190 193/193/191 188/188/186
f 194/194/192 186/186/184 193/193/191
f 186/186/184 194/194/192 183/183/181
f 195/195/193 183/183/181 194/194/192
f 183/183/181 195/195/193 181/181/179
f 168/168/166 174/174/172 196/196/194
f 196/196/194 169/169/167 168/168/166
f 181/181/179 195/195/193 196/196/194
f 196/196/194 174/174/172 181/181/179
f 196/196/194 195/195/193 197/197/195
f 194/194/192 197/197/195 195/195/193
f 198/198/196 169/169/167 196/196/194
f 197/197/195 199/199/197 196/196/194
f 196/196/194 199/199/197 198/198/196
f 200/200/198 199/199/197 197/197/195
f 197/197/195 194/194/192 200/200/198
f 201/201/199 193/193/191 192/192/190
f 200/200/198 194/194/192 201/201/199
f 193/193/191 201/201/199 194/194/192
f 62/62/61 202/202/200 50/50/49
f 192/192/190 202/202/200 201/201/199
f 202/202/200 192/192/190 203/203/201
f 51/51/50 50/50/49 204/204/202
f 50/50/49 202/202/200 204/204/202
f 203/203/201 204/204/202 202/202/200
f 205/205/203 62/62/61 64/64/63
f 201/201/199 202/202/200 205/205/203
f 202/202/200 62/62/61 205/205/203
f 206/206/204 204/204/202 203/203/201
f 51/51/50 204/204/202 206/206/204
f 203/203/201 207/207/205 206/206/204
f 208/208/206 207/207/205 203/203/201
f 203/203/201 209/209/207 208/208/206
f 209/209/207 203/203/201 192/192/190
f 192/192/190 191/191/189 209/209/207
f 210/210/208 169/169/167 198/198/196
f 198/198/196 211/211/209 210/210/208
f 212/212/210 210/210/208 211/211/209
f 211/211/209 213/213/211 212/212/210
f 66/66/65 214/214/212 65/65/64
f 64/64/63 65/65/64 214/214/212
f 214/214/212 212/212/210 213/213/211
f 214/214/212 215/215/213 64/64/63
f 213/213/211 215/215/213 214/214/212
f 64/64/63 215/215/213 205/205/203
f 205/205/203 216/216/214 201/201/199
f 215/215/213 213/213/211 216/216/214
f 216/216/214 205/205/203 215/215/213
f 217/217/215 216/216/214 213/213/211
f 213/213/211 211/211/209 217/217/215
f 216/216/214 217/217/215 218/218/216
f 218/218/216 217/217/215 211/211/209
f 211/211/209 198/198/196 218/218/216
f 218/218/216 198/198/196 199/199/197
f 199/199/197 200/200/198 218/218/216
f 218/218/216 201/201/199 216/216/214
f 201/201/199 218/218/216 200/200/198
f 219/219/217 220/220/218 221/221/219
f 220/220/218 222/222/220 221/221/219
f 222/222/220 223/223/221 221/221/219
f 223/223/221 224/224/222 221/221/219
f 224/224/222 225/225/223 221/221/219
f 225/225/223 226/226/224 221/221/219
f 226/226/224 227/227/225 221/221/219
f 227/227/225 228/228/226 221/221/219
f 228/228/226 229/229/227 221/221/219
f 229/229/227 230/230/228 221/221/219
f 230/230/228 231/231/229 221/221/219
f 232/232/230 219/219/217 221/221/219
f 231/231/229 232/232/230 221/221/219
f 233/233/231 234/234/232 235/235/233
f 235/235/233 236/236/234 233/233/231
f 237/237/235 233/233/231 236/236/234
f 236/236/234 238/238/236 237/237/235
f 237/237/235 238/238/236 239/239/237
f 240/240/238 239/239/237 238/238/236
f 238/238/236 236/236/234 241/241/239
f 238/238/236 241/241/239 240/240/238
f 236/236/234 235/235/233 242/242/240
f 242/242/240 241/241/239 236/236/234
f 242/242/240 235/235/233 243/243/146
f 243/243/146 244/244/241 242/242/240
f 239/239/237 245/245/242 237/237/235
f 246/246/243 247/247/244 234/234/232
f 234/234/232 247/247/244 235/235/233
f 247/247/244 248/248/245 235/235/233
f 248/248/245 243/243/146 235/235/233
f 249/249/246 248/248/245 247/247/244
f 243/243/146 248/248/245 249/249/246
f 249/249/246 250/250/247 243/243/146
f 250/250/247 249/249/246 251/251/248
f 251/251/248 252/252/249 250/250/247
f 252/252/249 251/251/248 253/253/250
f 253/253/250 254/254/251 252/252/249
f 253/253/250 251/251/248 255/255/252
f 255/255/252 251/251/248 249/249/246
f 255/255/252 256/256/253 253/253/250
f 247/247/244 257/257/254 249/249/246
f 249/249/246 257/257/254 255/255/252
f 258/258/255 253/253/250 256/256/253
f 254/254/251 253/253/250 258/258/255
f 256/256/253 259/259/256 258/258/255
f 259/259/256 256/256/253 260/260/257
f 260/260/257 261/261/258 259/259/256
f 259/259/256 261/261/258 262/262/259
f 262/262/259 263/263/260 259/259/256
f 263/263/260 262/262/259 264/264/261
f 265/265/262 263/263/260 264/264/261
f 264/264/261 266/266/263 265/265/262
f 259/259/256 263/263/260 267/267/264
f 267/267/264 263/263/260 265/265/262
f 267/267/264 258/258/255 259/259/256
f 265/265/262 268/268/265 267/267/264
f 269/269/266 267/267/264 268/268/265
f 268/268/265 270/270/267 269/269/266
f 271/271/268 258/258/255 267/267/264
f 258/258/255 271/271/268 254/254/251
f 267/267/264 269/269/266 271/271/268
f 265/265/262 266/266/263 272/272/269
f 272/272/269 273/273/270 265/265/262
f 268/268/265 265/265/262 273/273/270
f 270/270/267 268/268/265 274/274/271
f 273/273/270 274/274/271 268/268/265
f 274/274/271 275/275/272 270/270/267
f 276/276/273 270/270/267 275/275/272
f 277/277/274 270/270/267 276/276/273
f 275/275/272 278/278/275 276/276/273
f 270/270/267 277/277/274 279/279/276
f 279/279/276 269/269/266 270/270/267
f 269/269/266 279/279/276 280/280/177
f 280/280/177 281/281/277 269/269/266
f 269/269/266 281/281/277 271/271/268
f 282/282/278 254/254/251 271/271/268
f 271/271/268 281/281/277 282/282/278
f 283/283/279 147/147/145 140/140/138
f 147/147/145 283/283/279 284/284/280
f 284/284/280 285/285/281 147/147/145
f 285/285/281 284/284/280 286/286/282
f 286/286/282 287/287/283 285/285/281
f 126/126/124 288/288/284 140/140/138
f 140/140/138 288/288/284 283/283/279
f 289/289/285 288/288/284 126/126/124
f 283/283/279 288/288/284 289/289/285
f 289/289/285 284/284/280 283/283/279
f 128/128/126 289/289/285 126/126/124
f 284/284/280 289/289/285 290/290/286
f 290/290/286 286/286/282 284/284/280
f 291/291/287 287/287/283 286/286/282
f 286/286/282 290/290/286 291/291/287
f 292/292/288 287/287/283 291/291/287
f 128/128/126 124/124/122 293/293/289
f 125/125/123 293/293/289 124/124/122
f 294/294/290 293/293/289 125/125/123
f 293/293/289 294/294/290 295/295/291
f 295/295/291 296/296/292 293/293/289
f 289/289/285 128/128/126 296/296/292
f 296/296/292 290/290/286 289/289/285
f 291/291/287 290/290/286 296/296/292
f 296/296/292 295/295/291 291/291/287
f 293/293/289 296/296/292 128/128/126
f 297/297/293 291/291/287 295/295/291
f 291/291/287 297/297/293 292/292/288
f 295/295/291 298/298/294 297/297/293
f 299/299/295 298/298/294 295/295/291
f 295/295/291 294/294/290 299/299/295
f 125/125/123 300/300/296 294/294/290
f 299/299/295 294/294/290 300/300/296
f 118/118/116 301/301/297 125/125/123
f 301/301/297 118/118/116 117/117/115
f 300/300/296 125/125/123 301/301/297
f 117/117/115 302/302/298 301/301/297
f 301/301/297 302/302/298 300/300/296
f 300/300/296 302/302/298 303/303/299
f 300/300/296 304/304/300 299/299/295
f 303/303/299 304/304/300 300/300/296
f 305/305/301 306/306/302 307/307/303
f 307/307/303 308/308/304 305/305/301
f 309/309/305 310/310/306 311/311/307
f 312/312/308 311/311/307 306/306/302
f 311/311/307 312/312/308 309/309/305
f 306/306/302 305/305/301 313/313/309
f 313/313/309 312/312/308 306/306/302
f 314/314/310 313/313/309 305/305/301
f 305/305/301 315/315/311 314/314/310
f 315/315/311 305/305/301 308/308/304
f 308/308/304 316/316/312 315/315/311
f 317/317/313 316/316/312 308/308/304
f 311/311/307 318/318/314 319/319/315
f 319/319/315 306/306/302 311/311/307
f 306/306/302 319/319/315 320/320/316
f 320/320/316 307/307/303 306/306/302
f 308/308/304 321/321/317 317/317/313
f 321/321/317 308/308/304 307/307/303
f 307/307/303 320/320/316 321/321/317
f 322/322/318 317/317/313 321/321/317
f 317/317/313 322/322/318 323/323/319
f 323/323/319 322/322/318 324/324/320
f 324/324/320 325/325/321 323/323/319
f 324/324/320 322/322/318 326/326/322
f 321/321/317 326/326/322 322/322/318
f 326/326/322 327/327/24 324/324/320
f 328/328/323 327/327/24 326/326/322
f 328/328/323 326/326/322 321/321/317
f 321/321/317 320/320/316 328/328/323
f 329/329/324 316/316/312 317/317/313
f 317/317/313 330/330/325 329/329/324
f 323/323/319 330/330/325 317/317/313
f 331/331/326 323/323/319 325/325/321
f 331/331/326 330/330/325 323/323/319
f 332/332/327 331/331/326 325/325/321
f 325/325/321 333/333/328 332/332/327
f 334/334/329 332/332/327 333/333/328
f 333/333/328 335/335/7 334/334/329
f 334/334/329 336/336/330 337/337/331
f 337/337/331 332/332/327 334/334/329
f 331/331/326 332/332/327 337/337/331
f 337/337/331 338/338/332 331/331/326
f 339/339/333 331/331/326 338/338/332
f 330/330/325 331/331/326 339/339/333
f 338/338/332 340/340/334 339/339/333
f 341/341/335 339/339/333 340/340/334
f 340/340/334 342/342/336 341/341/335
f 341/341/335 342/342/336 343/343/337
f 343/343/337 344/344/338 341/341/335
f 344/344/338 343/343/337 345/345/339
f 345/345/339 346/346/340 344/344/338
f 346/346/340 345/345/339 347/347/341
f 347/347/341 348/348/342 346/346/340
f 349/349/343 350/350/344 351/351/172
f 352/352/345 348/348/342 350/350/344
f 350/350/344 349/349/343 352/352/345
f 353/353/346 346/346/340 348/348/342
f 348/348/342 352/352/345 353/353/346
f 354/354/347 344/344/338 346/346/340
f 346/346/340 353/353/346 354/354/347
f 341/341/335 344/344/338 355/355/348
f 355/355/348 344/344/338 354/354/347
f 356/356/349 341/341/335 355/355/348
f 339/339/333 341/341/335 356/356/349
f 357/357/350 354/354/347 353/353/346
f 354/354/347 357/357/350 355/355/348
f 358/358/351 359/359/352 360/360/353
f 361/361/354 359/359/352 358/358/351
f 358/358/351 349/349/343 361/361/354
f 351/351/172 361/361/354 349/349/343
f 362/362/355 353/353/346 352/352/345
f 352/352/345 349/349/343 362/362/355
f 358/358/351 362/362/355 349/349/343
f 353/353/346 362/362/355 357/357/350
f 362/362/355 363/363/356 357/357/350
f 364/364/357 355/355/348 357/357/350
f 355/355/348 364/364/357 356/356/349
f 357/357/350 363/363/356 364/364/357
f 365/365/358 366/366/359 367/367/360
f 356/356/349 367/367/360 366/366/359
f 356/356/349 364/364/357 368/368/361
f 368/368/361 367/367/360 356/356/349
f 369/369/362 368/368/361 364/364/357
f 364/364/357 363/363/356 369/369/362
f 363/363/356 362/362/355 370/370/363
f 370/370/363 369/369/362 363/363/356
f 362/362/355 358/358/351 371/371/364
f 371/371/364 370/370/363 362/362/355
f 369/369/362 370/370/363 372/372/365
f 372/372/365 373/373/366 369/369/362
f 368/368/361 369/369/362 373/373/366
f 373/373/366 367/367/360 368/368/361
f 367/367/360 373/373/366 365/365/358
f 373/373/366 372/372/365 374/374/367
f 374/374/367 365/365/358 373/373/366
f 375/375/368 374/374/367 372/372/365
f 372/372/365 376/376/369 375/375/368
f 370/370/363 371/371/364 376/376/369
f 376/376/369 372/372/365 370/370/363
f 375/375/368 376/376/369 377/377/370
f 377/377/370 376/376/369 371/371/364
f 377/377/370 378/378/371 375/375/368
f 379/379/372 380/380/373 381/381/374
f 380/380/373 379/379/372 382/382/375
f 382/382/375 378/378/371 380/380/373
f 383/383/376 314/314/310 315/315/311
f 314/314/310 383/383/376 382/382/375
f 383/383/376 375/375/368 378/378/371
f 378/378/371 382/382/375 383/383/376
f 384/384/377 374/374/367 375/375/368
f 375/375/368 383/383/376 384/384/377
f 315/315/311 384/384/377 383/383/376
f 316/316/312 384/384/377 315/315/311
f 366/366/359 365/365/358 385/385/378
f 385/385/378 365/365/358 374/374/367
f 374/374/367 384/384/377 385/385/378
f 384/384/377 386/386/379 385/385/378
f 316/316/312 329/329/324 386/386/379
f 386/386/379 384/384/377 316/316/312
f 385/385/378 387/387/380 366/366/359
f 387/387/380 385/385/378 386/386/379
f 366/366/359 388/388/381 356/356/349
f 356/356/349 388/388/381 339/339/333
f 339/339/333 388/388/381 330/330/325
f 388/388/381 366/366/359 387/387/380
f 389/389/382 386/386/379 329/329/324
f 386/386/379 389/389/382 387/387/380
f 389/389/382 330/330/325 388/388/381
f 329/329/324 330/330/325 389/389/382
f 388/388/381 387/387/380 389/389/382
f 390/390/383 382/382/375 379/379/372
f 313/313/309 314/314/310 390/390/383
f 382/382/375 390/390/383 314/314/310
f 379/379/372 391/391/384 390/390/383
f 391/391/384 379/379/372 392/392/385
f 381/381/374 392/392/385 379/379/372
f 392/392/385 393/393/386 391/391/384
f 393/393/386 392/392/385 394/394/387
f 394/394/387 395/395/388 393/393/386
f 395/395/388 394/394/387 396/396/389
f 390/390/383 397/397/390 313/313/309
f 397/397/390 390/390/383 391/391/384
f 397/397/390 309/309/305 312/312/308
f 312/312/308 313/313/309 397/397/390
f 309/309/305 397/397/390 398/398/391
f 398/398/391 391/391/384 393/393/386
f 391/391/384 398/398/391 397/397/390
f 399/399/392 393/393/386 395/395/388
f 393/393/386 399/399/392 398/398/391
f 395/395/388 400/400/393 399/399/392
f 396/396/389 401/401/394 395/395/388
f 400/400/393 395/395/388 401/401/394
f 401/401/394 402/402/395 400/400/393
f 310/310/306 309/309/305 403/403/396
f 403/403/396 398/398/391 399/399/392
f 398/398/391 403/403/396 309/309/305
f 399/399/392 404/404/397 403/403/396
f 404/404/397 399/399/392 400/400/393
f 405/405/398 400/400/393 402/402/395
f 400/400/393 405/405/398 404/404/397
f 402/402/395 406/406/399 405/405/398
f 406/406/399 402/402/395 407/407/400
f 407/407/400 408/408/401 406/406/399
f 406/406/399 408/408/401 409/409/402
f 409/409/402 405/405/398 406/406/399
f 405/405/398 409/409/402 410/410/403
f 410/410/403 404/404/397 405/405/398
f 403/403/396 404/404/397 410/410/403
f 410/410/403 411/411/404 403/403/396
f 411/411/404 410/410/403 409/409/402
f 403/403/396 411/411/404 310/310/306
f 409/409/402 412/412/405 411/411/404
f 413/413/406 407/407/400 402/402/395
f 402/402/395 401/401/394 413/413/406
f 414/414/407 407/407/400 413/413/406
f 407/407/400 414/414/407 415/415/408
f 415/415/408 416/416/409 407/407/400
f 416/416/409 415/415/408 417/417/410
f 417/417/410 418/418/411 416/416/409
f 401/401/394 396/396/389 419/419/412
f 419/419/412 413/413/406 401/401/394
f 420/420/413 413/413/406 419/419/412
f 413/413/406 420/420/413 414/414/407
f 421/421/414 415/415/408 414/414/407
f 414/414/407 420/420/413 421/421/414
f 422/422/415 417/417/410 415/415/408
f 415/415/408 421/421/414 422/422/415
f 417/417/410 422/422/415 423/423/416
f 423/423/416 418/418/411 417/417/410
f 424/424/417 421/421/414 420/420/413
f 419/419/412 424/424/417 420/420/413
f 425/425/418 419/419/412 396/396/389
f 424/424/417 419/419/412 425/425/418
f 426/426/419 396/396/389 394/394/387
f 396/396/389 426/426/419 425/425/418
f 392/392/385 381/381/374 427/427/420
f 427/427/420 394/394/387 392/392/385
f 394/394/387 427/427/420 426/426/419
f 428/428/421 380/380/373 378/378/371
f 378/378/371 377/377/370 428/428/421
f 380/380/373 428/428/421 429/429/422
f 429/429/422 381/381/374 380/380/373
f 430/430/423 427/427/420 381/381/374
f 381/381/374 429/429/422 430/430/423
f 427/427/420 430/430/423 431/431/424
f 431/431/424 426/426/419 427/427/420
f 426/426/419 431/431/424 432/432/425
f 432/432/425 425/425/418 426/426/419
f 432/432/425 431/431/424 433/433/426
f 433/433/426 431/431/424 430/430/423
f 433/433/426 434/434/427 432/432/425
f 435/435/428 432/432/425 434/434/427
f 425/425/418 436/436/429 424/424/417
f 436/436/429 425/425/418 432/432/425
f 432/432/425 435/435/428 436/436/429
f 422/422/415 421/421/414 437/437/430
f 435/435/428 437/437/430 436/436/429
f 424/424/417 436/436/429 437/437/430
f 437/437/430 421/421/414 424/424/417
f 434/434/427 438/438/431 435/435/428
f 437/437/430 435/435/428 438/438/431
f 438/438/431 434/434/427 439/439/432
f 440/440/433 439/439/432 434/434/427
f 434/434/427 433/433/426 440/440/433
f 430/430/423 441/441/434 433/433/426
f 440/440/433 433/433/426 441/441/434
f 442/442/435 441/441/434 430/430/423
f 430/430/423 429/429/422 442/442/435
f 442/442/435 429/429/422 428/428/421
f 441/441/434 442/442/435 443/443/436
f 443/443/436 444/444/437 441/441/434
f 441/441/434 444/444/437 440/440/433
f 445/445/438 443/443/436 442/442/435
f 428/428/421 446/446/439 442/442/435
f 442/442/435 446/446/439 445/445/438
f 428/428/421 377/377/370 447/447/440
f 447/447/440 446/446/439 428/428/421
f 371/371/364 447/447/440 377/377/370
f 448/448/441 447/447/440 371/371/364
f 446/446/439 447/447/440 448/448/441
f 448/448/441 445/445/438 446/446/439
f 360/360/353 448/448/441 358/358/351
f 445/445/438 448/448/441 360/360/353
f 371/371/364 358/358/351 448/448/441
f 360/360/353 449/449/442 445/445/438
f 443/443/436 445/445/438 449/449/442
f 444/444/437 443/443/436 450/450/443
f 449/449/442 450/450/443 443/443/436
f 440/440/433 444/444/437 451/451/444
f 450/450/443 451/451/444 444/444/437
f 451/451/444 452/452/445 440/440/433
f 439/439/432 440/440/433 452/452/445
f 451/451/444 450/450/443 453/453/446
f 452/452/445 451/451/444 454/454/447
f 453/453/446 454/454/447 451/451/444
f 454/454/447 455/455/448 452/452/445
f 452/452/445 455/455/448 456/456/449
f 456/456/449 439/439/432 452/452/445
f 457/457/450 458/458/451 459/459/452
f 460/460/142 459/459/452 458/458/451
f 456/456/449 460/460/142 461/461/453
f 458/458/451 461/461/453 460/460/142
f 462/462/454 460/460/142 456/456/449
f 456/456/449 455/455/448 462/462/454
f 455/455/448 454/454/447 463/463/455
f 463/463/455 462/462/454 455/455/448
f 454/454/447 453/453/446 464/464/456
f 464/464/456 463/463/455 454/454/447
f 463/463/455 464/464/456 465/465/457
f 465/465/457 466/466/458 463/463/455
f 462/462/454 463/463/455 466/466/458
f 466/466/458 467/467/459 462/462/454
f 462/462/454 467/467/459 460/460/142
f 468/468/460 465/465/457 464/464/456
f 466/466/458 465/465/457 468/468/460
f 468/468/460 469/469/461 466/466/458
f 470/470/462 471/471/463 472/472/464
f 473/473/465 472/472/464 471/471/463
f 474/474/466 472/472/464 473/473/465
f 473/473/465 475/475/467 474/474/466
f 476/476/468 474/474/466 475/475/467
f 475/475/467 477/477/469 476/476/468
f 478/478/470 476/476/468 477/477/469
f 478/478/470 464/464/456 453/453/446
f 464/464/456 478/478/470 468/468/460
f 477/477/469 468/468/460 478/478/470
f 471/471/463 479/479/471 473/473/465
f 473/473/465 479/479/471 480/480/472
f 480/480/472 475/475/467 473/473/465
f 481/481/473 453/453/446 450/450/443
f 453/453/446 481/481/473 478/478/470
f 476/476/468 478/478/470 481/481/473
f 450/450/443 449/449/442 481/481/473
f 482/482/474 481/481/473 449/449/442
f 449/449/442 360/360/353 482/482/474
f 474/474/466 476/476/468 482/482/474
f 481/481/473 482/482/474 476/476/468
f 472/472/464 474/474/466 483/483/475
f 483/483/475 482/482/474 360/360/353
f 360/360/353 359/359/352 483/483/475
f 482/482/474 483/483/475 474/474/466
f 472/472/464 484/484/476 470/470/462
f 351/351/172 470/470/462 484/484/476
f 484/484/476 483/483/475 359/359/352
f 359/359/352 361/361/354 484/484/476
f 484/484/476 361/361/354 351/351/172
f 483/483/475 484/484/476 472/472/464
f 154/154/152 155/155/153 485/485/477
f 485/485/477 153/153/151 154/154/152
f 142/142/140 486/486/478 137/137/135
f 486/486/478 142/142/140 153/153/151
f 153/153/151 485/485/477 486/486/478
f 487/487/479 136/136/134 137/137/135
f 487/487/479 486/486/478 485/485/477
f 137/137/135 486/486/478 487/487/479
f 485/485/477 488/488/480 487/487/479
f 488/488/480 485/485/477 155/155/153
f 489/489/481 116/116/114 136/136/134
f 116/116/114 489/489/481 90/90/88
f 489/489/481 487/487/479 488/488/480
f 136/136/134 487/487/479 489/489/481
f 88/88/86 90/90/88 489/489/481
f 88/88/86 490/490/482 76/76/75
f 488/488/480 490/490/482 489/489/481
f 489/489/481 490/490/482 88/88/86
f 155/155/153 491/491/483 488/488/480
f 490/490/482 488/488/480 491/491/483
f 491/491/483 155/155/153 166/166/164
f 491/491/483 76/76/75 490/490/482
f 68/68/67 492/492/484 66/66/65
f 214/214/212 66/66/65 492/492/484
f 492/492/484 212/212/210 214/214/212
f 210/210/208 212/212/210 492/492/484
f 166/166/164 493/493/485 491/491/483
f 492/492/484 68/68/67 493/493/485
f 493/493/485 68/68/67 76/76/75
f 493/493/485 166/166/164 167/167/165
f 76/76/75 491/491/483 493/493/485
f 167/167/165 494/494/486 493/493/485
f 494/494/486 167/167/165 169/169/167
f 169/169/167 210/210/208 494/494/486
f 492/492/484 494/494/486 210/210/208
f 493/493/485 494/494/486 492/492/484
f 495/495/487 496/496/488 497/497/489
f 497/497/489 498/498/490 495/495/487
f 498/498/490 423/423/416 422/422/415
f 498/498/490 497/497/489 499/499/491
f 499/499/491 423/423/416 498/498/490
f 418/418/411 423/423/416 499/499/491
f 499/499/491 500/500/492 418/418/411
f 501/501/48 500/500/492 499/499/491
f 499/499/491 502/502/493 501/501/48
f 502/502/493 499/499/491 497/497/489
f 497/497/489 503/503/494 502/502/493
f 503/503/494 497/497/489 496/496/488
f 496/496/488 504/504/495 503/503/494
f 505/505/496 504/504/495 496/496/488
f 496/496/488 506/506/497 505/505/496
f 459/459/452 507/507/498 457/457/450
f 507/507/498 506/506/497 496/496/488
f 496/496/488 495/495/487 507/507/498
f 458/458/451 457/457/450 508/508/499
f 508/508/499 495/495/487 498/498/490
f 508/508/499 457/457/450 507/507/498
f 507/507/498 495/495/487 508/508/499
f 498/498/490 509/509/500 508/508/499
f 422/422/415 509/509/500 498/498/490
f 437/437/430 509/509/500 422/422/415
f 461/461/453 458/458/451 510/510/501
f 509/509/500 437/437/430 510/510/501
f 508/508/499 510/510/501 458/458/451
f 510/510/501 508/508/499 509/509/500
f 439/439/432 511/511/502 438/438/431
f 437/437/430 438/438/431 511/511/502
f 511/511/502 510/510/501 437/437/430
f 512/512/503 511/511/502 439/439/432
f 461/461/453 512/512/503 456/456/449
f 510/510/501 511/511/502 512/512/503
f 510/510/501 512/512/503 461/461/453
f 439/439/432 456/456/449 512/512/503
f 513/513/188 514/514/504 515/515/505
f 514/514/504 516/516/506 515/515/505
f 516/516/506 517/517/507 515/515/505
f 517/517/507 518/518/508 515/515/505
f 518/518/508 519/519/509 515/515/505
f 519/519/509 520/520/510 515/515/505
f 520/520/510 521/521/511 515/515/505
f 521/521/511 522/522/512 515/515/505
f 522/522/512 523/523/332 515/515/505
f 523/523/332 524/524/513 515/515/505
f 524/524/513 525/525/514 515/515/505
f 525/525/514 526/526/515 515/515/505
f 526/526/515 527/527/516 515/515/505
f 527/527/516 528/528/517 515/515/505
f 528/528/517 529/529/518 515/515/505
f 530/530/187 513/513/188 515/515/505
f 529/529/518 530/530/187 515/515/505
